<svg width="57" height="80" viewBox="0 0 57 80" fill="none" xmlns="http://www.w3.org/2000/svg">
<path d="M0 0C4.31626 0 6.47439 0 8.23595 0.511636C12.4751 1.74287 15.7896 5.05738 17.0208 9.29652C17.5325 11.0581 17.5325 13.2162 17.5325 17.5325V79.8702C13.2162 79.8702 11.0581 79.8702 9.29652 79.3585C5.05738 78.1273 1.74287 74.8128 0.511636 70.5736C0 68.8121 0 66.6539 0 62.3377V0Z" fill="white"/>
<path d="M35.8438 43.7664C35.8438 36.445 35.8438 32.7844 37.2489 30.0265C38.485 27.6007 40.4573 25.6284 42.8831 24.3923C45.641 22.9871 49.3012 22.9871 56.6217 22.9871C56.6217 30.3085 56.6217 33.9691 55.2165 36.727C53.9804 39.1528 52.0082 41.1251 49.5823 42.3612C46.8244 43.7664 43.1642 43.7664 35.8438 43.7664Z" fill="white"/>
<path d="M56.6217 80C49.3012 80 45.641 80 42.8831 78.5948C40.4573 77.3588 38.485 75.3865 37.2489 72.9606C35.8438 70.2028 35.8438 66.5421 35.8438 59.2208C43.1642 59.2208 46.8244 59.2208 49.5823 60.626C52.0082 61.862 53.9804 63.8343 55.2165 66.2602C56.6217 69.018 56.6217 72.6787 56.6217 80Z" fill="white"/>
<circle cx="28.1163" cy="52.0129" r="8.76624" fill="white"/>
</svg>
