<svg width="18" height="18" viewBox="0 0 18 18" fill="none" xmlns="http://www.w3.org/2000/svg">
<path d="M3.59607 5.2921C3.59607 4.35535 4.35507 3.59635 5.29182 3.5956H6.06357C6.51132 3.5956 6.94032 3.41785 7.25832 3.10285L7.79757 2.56285C8.45832 1.89835 9.53232 1.89535 10.1968 2.5561L10.1976 2.55685L10.2043 2.56285L10.7443 3.10285C11.0623 3.4186 11.4913 3.5956 11.9391 3.5956H12.7101C13.6468 3.5956 14.4066 4.3546 14.4066 5.2921V6.06235C14.4066 6.5101 14.5836 6.93985 14.8993 7.25785L15.4393 7.79785C16.1038 8.4586 16.1076 9.5326 15.4468 10.1971L15.4461 10.1979L15.4393 10.2046L14.8993 10.7446C14.5836 11.0619 14.4066 11.4909 14.4066 11.9386V12.7104C14.4066 13.6471 13.6476 14.4061 12.7108 14.4061H12.7101H11.9376C11.4898 14.4061 11.0601 14.5839 10.7428 14.8996L10.2028 15.4389C9.54282 16.1034 8.46957 16.1071 7.80507 15.4479C7.80432 15.4471 7.80357 15.4464 7.80282 15.4456L7.79607 15.4389L7.25682 14.8996C6.93957 14.5839 6.50982 14.4069 6.06207 14.4061H5.29182C4.35507 14.4061 3.59607 13.6471 3.59607 12.7104V11.9371C3.59607 11.4894 3.41832 11.0604 3.10257 10.7431L2.56332 10.2031C1.89882 9.5431 1.89507 8.46985 2.55507 7.80535C2.55507 7.8046 2.55582 7.80385 2.55657 7.8031L2.56332 7.79635L3.10257 7.25635C3.41832 6.93835 3.59607 6.50935 3.59607 6.06085V5.2921" stroke="#1FB545" stroke-width="1.125" stroke-linecap="round" stroke-linejoin="round"/>
<path d="M7.07373 10.9287L10.9287 7.07373" stroke="#1FB545" stroke-width="1.125" stroke-linecap="round" stroke-linejoin="round"/>
<path d="M10.8716 10.875H10.8784" stroke="#1FB545" stroke-width="1.5" stroke-linecap="round" stroke-linejoin="round"/>
<path d="M7.12162 7.125H7.12837" stroke="#1FB545" stroke-width="1.5" stroke-linecap="round" stroke-linejoin="round"/>
</svg>
