<svg width="327" height="327" viewBox="0 0 327 327" fill="none" xmlns="http://www.w3.org/2000/svg">
<path d="M270.311 162.068C210.928 127.779 114.96 127.779 55.9562 162.068C-3.04764 196.357 -2.72718 251.947 56.656 286.23C116.039 320.512 212.014 320.519 271.011 286.23C330.008 251.94 329.701 196.357 270.311 162.068Z" fill="#F5F5F5"/>
<path d="M291.756 222.36C296.138 219.836 303.214 219.836 307.57 222.36C311.925 224.885 311.899 228.985 307.517 231.516C303.135 234.047 296.059 234.047 291.704 231.516C287.348 228.985 287.374 224.904 291.756 222.36Z" fill="#E0E0E0"/>
<path d="M167.176 226.055L159.073 215.042C158.255 213.93 157.207 213.007 156.001 212.337C154.794 211.666 153.457 211.264 152.081 211.157L140.139 210.241L121.173 198.711L128.269 194.611C128.362 194.552 128.439 194.47 128.492 194.374C128.545 194.277 128.573 194.169 128.573 194.058C128.573 193.948 128.545 193.839 128.492 193.743C128.439 193.646 128.362 193.565 128.269 193.506L125.32 191.825C124.738 191.492 124.08 191.317 123.41 191.317C122.74 191.317 122.082 191.492 121.5 191.825L51.9473 232.039C51.8541 232.098 51.7774 232.18 51.7242 232.276C51.671 232.373 51.6431 232.482 51.6431 232.592C51.6431 232.702 51.671 232.811 51.7242 232.907C51.7774 233.004 51.8541 233.086 51.9473 233.145L54.8249 234.806C55.4083 235.143 56.0704 235.321 56.7444 235.321C57.4184 235.321 58.0805 235.143 58.6639 234.806L88.8525 217.37L107.563 228.102L110.009 234.989C110.762 237.103 112.151 238.932 113.984 240.226C115.818 241.52 118.007 242.215 120.251 242.216H137.713L149.563 249.056L178.195 232.412L167.176 226.055Z" fill="#E0E0E0"/>
<path d="M273.712 215.892C254.785 204.97 224.198 204.97 205.395 215.892C188.777 225.545 186.933 240.496 199.784 251.391C189.411 250.737 178.673 252.699 170.753 257.323C156.855 265.4 156.927 278.493 170.916 286.57C184.905 294.647 207.54 294.64 221.405 286.57C232.458 280.141 234.662 270.54 228.063 262.817C243.994 265.125 261.528 262.673 273.941 255.466C292.743 244.544 292.645 226.827 273.712 215.892Z" fill="#E0E0E0"/>
<path d="M54.0074 246.054C49.0239 243.177 40.9666 243.177 36.0158 246.054C31.065 248.932 31.0912 253.602 36.0747 256.479C41.0581 259.357 49.1154 259.357 54.0662 256.479C59.017 253.602 58.9974 248.932 54.0074 246.054Z" fill="#E0E0E0"/>
<path d="M102.527 20.8887L106.026 18.8875L106.242 95.3662L106.235 95.3727L78.0349 111.474L78.0218 107.472L77.8125 34.9955L102.527 20.8887Z" fill="#F0F0F0"/>
<path opacity="0.1" d="M102.737 93.3584L102.527 20.8887L106.026 18.8875L106.242 95.3662L106.236 95.3727L102.724 93.365L102.737 93.3584Z" fill="black"/>
<path opacity="0.2" d="M78.022 107.472L102.724 93.365L106.236 95.3728L78.0351 111.474L78.022 107.472Z" fill="black"/>
<path d="M63.9349 42.9219L67.4338 40.9207L67.6496 117.399L67.6431 117.406L39.4426 133.507L39.4295 129.505L39.2202 57.0287L63.9349 42.9219Z" fill="#F0F0F0"/>
<path opacity="0.1" d="M64.1443 115.392L63.9351 42.9219L67.434 40.9207L67.6498 117.399L67.6432 117.406L64.1313 115.398L64.1443 115.392Z" fill="black"/>
<path opacity="0.2" d="M39.4292 129.505L64.1308 115.398L67.6428 117.406L39.4423 133.507L39.4292 129.505Z" fill="black"/>
<path d="M184.068 63.8105C183.853 63.5816 183.643 63.3462 183.414 63.1042L183.277 62.9473C182.93 62.5483 182.623 62.1428 182.27 61.7243L182.165 61.5869C181.904 61.2534 181.655 60.9329 181.407 60.5602L181.295 60.4097C181.06 60.0697 180.831 59.7557 180.609 59.3764C180.55 59.2914 180.497 59.2064 180.445 59.1214C180.262 58.8336 180.085 58.5458 179.915 58.2515C179.875 58.1929 179.837 58.1317 179.804 58.0684C179.608 57.7349 179.418 57.4144 179.235 57.0547L179.104 56.7931C178.961 56.525 178.823 56.2503 178.686 55.9756L178.555 55.7009C178.385 55.3543 178.228 55.0077 178.071 54.6545L178.012 54.5041C177.875 54.1837 177.744 53.8501 177.62 53.5493L177.509 53.2615C177.365 52.8822 177.227 52.5029 177.103 52.1236C177.103 52.1236 177.103 52.0647 177.071 52.032C176.94 51.6396 176.822 51.2472 176.711 50.8548L176.652 50.6324C176.521 50.1746 176.41 49.7168 176.312 49.2656C176.312 49.1609 176.273 49.0628 176.246 48.9647L176.148 48.4285C176.148 48.3173 176.103 48.2061 176.09 48.0884C176.09 47.9053 176.031 47.7221 176.004 47.539C175.978 47.3559 175.972 47.3232 175.959 47.212C175.906 46.8196 175.874 46.4272 175.841 46.0414C175.841 45.9563 175.841 45.8713 175.841 45.7928C175.841 45.3939 175.802 44.995 175.802 44.6026C175.802 44.3344 175.802 44.0663 175.802 43.8112V43.5169C175.802 43.36 175.802 43.1965 175.841 43.046C175.88 42.8956 175.841 42.8498 175.874 42.7517C175.906 42.6536 175.874 42.4509 175.926 42.307C175.978 42.1631 175.965 42.1043 175.978 42.0062C175.991 41.9081 176.024 41.738 176.05 41.6072C176.076 41.4764 176.096 41.4045 176.116 41.2999C176.135 41.1952 176.175 41.0579 176.201 40.9336C176.227 40.8094 176.26 40.7374 176.286 40.6393C176.312 40.5412 176.351 40.4104 176.39 40.2992L176.488 40.0115C176.528 39.9068 176.56 39.7957 176.606 39.691C176.652 39.5864 176.685 39.5144 176.717 39.4229C176.75 39.3313 176.802 39.2201 176.848 39.122C176.894 39.0239 176.933 38.952 176.979 38.867C177.025 38.782 177.071 38.6773 177.123 38.5858L177.267 38.3503L177.424 38.0822L177.581 37.8598C177.639 37.7813 177.692 37.6963 177.757 37.6178C177.823 37.5394 177.868 37.4805 177.927 37.4086C177.986 37.3366 178.045 37.2581 178.11 37.1862C178.176 37.1143 178.235 37.0554 178.293 36.99L178.49 36.7873L178.686 36.6107L178.895 36.4276L179.104 36.2706L179.327 36.1071L179.543 35.9632C180.216 35.5428 180.957 35.2439 181.734 35.0803C180.262 36.7349 179.399 39.2528 179.386 42.4967C179.386 42.8891 179.386 43.288 179.425 43.687C179.425 43.772 179.425 43.8505 179.425 43.9355C179.425 44.3213 179.49 44.7137 179.543 45.1061C179.543 45.2173 179.575 45.3285 179.588 45.4331C179.602 45.5378 179.641 45.7994 179.673 45.9825C179.706 46.1656 179.713 46.231 179.739 46.3553L179.837 46.8916C179.837 46.9897 179.883 47.0878 179.902 47.1924C180 47.6437 180.112 48.1015 180.236 48.5593C180.262 48.6344 180.283 48.7108 180.301 48.7882C180.412 49.174 180.53 49.5664 180.661 49.9588C180.661 49.9588 180.661 50.0242 180.694 50.0504C180.818 50.4362 180.955 50.8156 181.099 51.1883C181.138 51.2864 181.171 51.3845 181.21 51.4761C181.335 51.7966 181.465 52.1301 181.603 52.4309L181.662 52.5814C181.819 52.9345 181.976 53.2811 182.146 53.6278C182.185 53.7193 182.231 53.8109 182.276 53.9024C182.414 54.1771 182.551 54.4518 182.695 54.7265L182.826 54.9815C183.009 55.3216 183.199 55.6355 183.395 55.9952C183.427 56.0606 183.467 56.1195 183.506 56.1849C183.676 56.4727 183.852 56.767 184.036 57.0547L184.193 57.3032C184.421 57.6499 184.65 57.9965 184.886 58.3366L184.997 58.487C185.246 58.8401 185.494 59.1802 185.756 59.5203L185.86 59.6576C186.187 60.0762 186.514 60.4817 186.867 60.8806L186.998 61.0376L187.652 61.7504L187.691 61.7897C187.92 62.0317 188.156 62.2736 188.391 62.5025C188.437 62.5549 188.489 62.6006 188.542 62.653C188.849 62.9473 189.156 63.2416 189.477 63.5228L189.562 63.6013C189.889 63.889 190.216 64.1572 190.556 64.4253L190.752 64.5757C191.079 64.8308 191.406 65.0728 191.759 65.3082L191.936 65.4259C192.296 65.6614 192.655 65.8903 193.015 66.0799C193.375 66.2696 193.597 66.4004 193.885 66.5508L194.127 66.6685L194.781 66.9694L195.01 67.0675L195.611 67.2964L195.762 67.3487C196.01 67.4337 196.259 67.5122 196.501 67.5776L196.932 67.6822L197.129 67.7345C197.338 67.7803 197.541 67.813 197.743 67.8457C198.046 67.895 198.352 67.9256 198.659 67.9373H198.842C199.11 67.9373 199.372 67.9373 199.634 67.9373H199.764C199.973 67.9237 200.18 67.8997 200.386 67.8653H200.575L200.771 67.8196C200.287 68.3714 199.714 68.8398 199.078 69.206L199.012 69.2387H198.966C198.803 69.3303 198.633 69.4088 198.463 69.4873L198.286 69.5592C198.108 69.6333 197.924 69.6987 197.737 69.7554H197.639C197.423 69.8143 197.201 69.8666 196.985 69.9058H196.808C196.605 69.9058 196.409 69.9581 196.2 69.9778H196.043C195.788 69.9778 195.526 69.9778 195.265 69.9778H195.095H194.663L194.166 69.9189L193.852 69.86L193.551 69.8012L193.368 69.7554H193.316L192.93 69.6638C192.688 69.5919 192.446 69.52 192.204 69.4349L192.054 69.3826L191.445 69.1537L191.23 69.0622C191.012 68.9706 190.794 68.8725 190.576 68.7679L190.432 68.6959C190.395 68.6825 190.36 68.6649 190.327 68.6436C190.039 68.4997 189.752 68.3493 189.457 68.1793C189.163 68.0092 188.738 67.7411 188.385 67.5253H188.332L188.202 67.4402C187.862 67.2048 187.548 66.9628 187.194 66.7078L187.07 66.6097L186.998 66.5573C186.665 66.2892 186.344 66.0145 186.004 65.7333C185.985 65.7176 185.968 65.7 185.952 65.681H185.919C185.599 65.4063 185.265 65.112 184.984 64.8177L184.833 64.6673C184.598 64.4384 184.363 64.1964 184.134 63.9544L184.068 63.8105Z" fill="#EBEBEB"/>
<path d="M200.582 56.3486V57.1923L202.956 58.5592V57.7155L200.582 56.3486Z" fill="white"/>
<path d="M181.387 38.6121L181.021 39.1222L183.075 41.6793L183.441 41.1627L181.387 38.6121Z" fill="white"/>
<path d="M204.964 59.2979C204.964 67.9765 198.797 71.4754 191.23 67.1459C183.663 62.8164 177.594 52.1889 177.614 43.5103C177.633 34.8317 183.781 31.3328 191.348 35.6623C198.915 39.9918 204.99 50.6193 204.964 59.2979ZM185.083 50.9201C185.14 51.1038 185.26 51.2613 185.423 51.3649C185.466 51.3918 185.515 51.4076 185.566 51.4106L191.374 51.8684C191.414 51.8801 191.457 51.8782 191.496 51.8628C191.535 51.8474 191.568 51.8195 191.59 51.7834L195.39 45.3415C195.424 45.2279 195.427 45.107 195.399 44.9918C195.37 44.8766 195.31 44.7714 195.226 44.6875C195.179 44.6331 195.124 44.5867 195.063 44.5502C194.932 44.4782 194.801 44.4848 194.736 44.596L191.001 50.9332L185.279 50.482C185.096 50.482 185.004 50.6651 185.083 50.9267V50.9201ZM196.253 45.2369L197.443 43.5626L196.789 42.7778L195.645 44.4717L196.299 45.2565L196.253 45.2369ZM196.789 66.433L197.443 66.3807L196.201 63.3069L195.547 63.3592L196.724 66.4069L196.789 66.433ZM181.348 52.7448L183.408 52.5682L183.049 51.6265L180.982 51.803L181.348 52.7448ZM201.191 64.2029L201.557 63.6862L199.503 61.1291L199.137 61.6457L201.191 64.2029ZM181.387 38.5857L181.021 39.0958L183.075 41.653L183.441 41.1363L181.387 38.5857ZM199.536 51.1817L201.596 51.0052L201.23 50.0699L199.17 50.24L199.536 51.1817ZM185.802 36.4013L185.148 36.4537L186.325 39.5013L186.979 39.449L185.795 36.4013H185.802ZM185.737 60.0369L186.933 58.3561L186.279 57.5779L185.083 59.2521L185.737 60.0369ZM181.996 46.4337V45.6162L179.622 44.2493V45.0865L181.996 46.4599V46.4337ZM202.956 57.7217L200.582 56.3483V57.192L202.956 58.5589V57.7217ZM190.89 64.6018L191.616 65.0204V62.2932L190.89 61.8681V64.6018ZM191.694 38.2064L190.969 37.7878V40.5477L191.694 40.9728V38.2391" fill="#E0E0E0"/>
<path d="M190.962 37.7881L190.955 40.5153L191.681 40.9404L191.694 38.2066L190.962 37.7881Z" fill="white"/>
<path d="M196.841 42.7715L195.645 44.4457L196.279 45.2305L197.469 43.5563L196.841 42.7715Z" fill="white"/>
<path d="M201.23 50.0701L199.169 50.2401L199.536 51.1819L201.596 51.0053L201.23 50.0701Z" fill="white"/>
<path d="M199.503 61.1294L199.137 61.6461L201.19 64.2032L201.557 63.6865L199.503 61.1294Z" fill="white"/>
<path d="M196.226 63.3071L195.592 63.3594L196.769 66.4071L197.403 66.3548L196.226 63.3071Z" fill="white"/>
<path d="M190.897 61.8682L190.89 64.6019L191.616 65.0204L191.623 62.2933L190.897 61.8682Z" fill="white"/>
<path d="M186.305 57.5781L185.108 59.2524L185.736 60.0372L186.933 58.3564L186.305 57.5781Z" fill="white"/>
<path d="M183.042 51.6267L180.982 51.8033L181.348 52.745L183.408 52.5685L183.042 51.6267Z" fill="white"/>
<path d="M179.622 44.2495V45.0866L181.996 46.46V45.6164L179.622 44.2495Z" fill="white"/>
<path d="M185.802 36.4016L185.174 36.4539L186.351 39.5016L186.985 39.4493L185.802 36.4016Z" fill="white"/>
<path d="M191.289 51.0119C191.246 50.9849 191.196 50.9692 191.145 50.9662H191.027L185.305 50.5149C185.122 50.5149 185.03 50.698 185.109 50.9596C185.166 51.1433 185.287 51.3007 185.449 51.4043C185.492 51.4313 185.542 51.4471 185.593 51.4501L191.4 51.9079C191.583 51.9079 191.668 51.7313 191.59 51.4697C191.548 51.286 191.441 51.1234 191.289 51.0119Z" fill="white"/>
<path d="M195.089 44.5438C194.958 44.4718 194.827 44.4784 194.762 44.5896L191.027 50.9268H191.145C191.196 50.9299 191.246 50.9456 191.289 50.9726C191.451 51.0752 191.569 51.2333 191.622 51.4173C191.701 51.6789 191.622 51.8751 191.433 51.8555C191.473 51.8672 191.516 51.8652 191.555 51.8498C191.594 51.8344 191.627 51.8065 191.649 51.7705L195.448 45.3286C195.483 45.215 195.486 45.0941 195.457 44.9789C195.429 44.8637 195.369 44.7585 195.285 44.6746C195.228 44.6194 195.161 44.5751 195.089 44.5438Z" fill="#F5F5F5"/>
<path d="M200.654 69.9779L200.87 69.8078C200.951 69.7456 201.027 69.6779 201.099 69.6051C201.171 69.5462 201.243 69.4874 201.308 69.422L201.524 69.1996L201.72 68.9903C201.793 68.9141 201.86 68.8332 201.923 68.7483C201.982 68.6764 202.047 68.6045 202.106 68.526C202.165 68.4475 202.23 68.3494 202.289 68.2644C202.348 68.1794 202.407 68.1074 202.459 68.0224C202.511 67.9374 202.577 67.8327 202.629 67.7346C202.681 67.6365 202.74 67.5646 202.786 67.4796C202.832 67.3946 202.891 67.2768 202.943 67.1722L203.087 66.8975L203.224 66.5705C203.264 66.4724 203.309 66.3809 203.349 66.2828C203.388 66.1847 203.434 66.0473 203.473 65.9296C203.512 65.8119 203.551 65.7269 203.584 65.6288C203.617 65.5307 203.656 65.3802 203.689 65.256C203.721 65.1317 203.754 65.0467 203.78 64.9355C203.806 64.8243 203.846 64.6805 203.872 64.5497L203.95 64.2096C203.95 64.0722 203.996 63.9284 204.022 63.791L204.081 63.4509L204.14 62.967L204.179 62.6596L204.218 62.1037V61.8356C204.218 61.5565 204.218 61.2688 204.218 60.9723C204.218 60.5472 204.218 60.1221 204.179 59.6643C204.176 59.636 204.176 59.6075 204.179 59.5793C204.146 59.1018 204.107 58.6179 204.042 58.1274V57.9639L203.924 57.1725C203.924 57.0417 203.878 56.9109 203.852 56.7736C203.813 56.5839 203.78 56.3877 203.741 56.1915V56.1C203.511 55.0072 203.218 53.9285 202.865 52.8692C202.392 51.4439 201.824 50.052 201.164 48.7032L201.125 48.6182C200.746 47.853 200.347 47.0944 199.915 46.3554L199.797 46.1526C199.601 45.8191 199.398 45.4986 199.196 45.1716L199.052 44.9427C198.489 44.0729 197.901 43.2358 197.273 42.4314C196.658 41.6422 196.004 40.8858 195.311 40.162C195.056 39.8873 194.794 39.6257 194.533 39.3576L194.402 39.2399C194.062 38.8998 193.715 38.5859 193.355 38.2589H193.316C192.95 37.9319 192.571 37.6049 192.191 37.3171L191.989 37.1536C191.629 36.8789 191.269 36.6173 190.896 36.3688L190.857 36.3361C190.622 36.1791 190.386 36.0222 190.151 35.8783C189.915 35.7344 189.745 35.6232 189.536 35.5055C189.222 35.3224 188.882 35.1589 188.601 35.0019C187.708 34.5457 186.773 34.1777 185.808 33.9032L185.553 33.8378L185.148 33.7397L184.867 33.6874L184.487 33.622H184.455H184.18L183.696 33.5697H183.657H183.506C183.156 33.5501 182.804 33.5501 182.453 33.5697H182.303C182.08 33.5697 181.858 33.6089 181.649 33.6416C181.34 33.6862 181.034 33.7517 180.733 33.8378H180.681H180.622C180.419 33.9032 180.223 33.9752 180.027 34.0536L179.935 34.0929C179.667 34.2106 179.399 34.3349 179.144 34.4787L182.767 32.3729L182.846 32.3271L182.944 32.2748C183.12 32.1832 183.303 32.0916 183.487 32.0132C183.52 31.9931 183.555 31.9756 183.591 31.9608H183.676C183.894 31.8736 184.112 31.7952 184.33 31.7254C184.573 31.6556 184.82 31.5989 185.069 31.5554H185.154H185.272C185.488 31.5168 185.707 31.4906 185.926 31.4769H186.037H186.07C186.355 31.4605 186.641 31.4605 186.927 31.4769H187.012H187.293H187.489C187.685 31.4769 187.888 31.5161 188.091 31.5488L188.745 31.6731L188.954 31.7254L189.379 31.83H189.418C189.68 31.902 189.948 31.9805 190.216 32.072L190.38 32.1374C190.596 32.2094 190.811 32.2944 191.034 32.3859L191.125 32.4186L191.289 32.4906C191.518 32.5887 191.753 32.6999 191.989 32.811L192.257 32.9418C192.564 33.0988 192.911 33.2623 193.192 33.4454C193.473 33.6285 193.97 33.9163 194.356 34.1779L194.552 34.3087C194.919 34.5572 195.285 34.8188 195.644 35.0935L195.847 35.257C196.213 35.5448 196.573 35.8391 196.926 36.153C196.96 36.1778 196.991 36.2064 197.018 36.238C197.364 36.5388 197.672 36.8528 198.032 37.1798L198.13 37.2713L198.195 37.3367C198.45 37.5852 198.699 37.8403 198.947 38.1084L198.986 38.1477C199.222 38.4027 199.451 38.6578 199.68 38.9194L199.745 38.9913L199.824 39.0894C200.196 39.5211 200.563 39.9593 200.916 40.3974V40.4367C200.944 40.47 200.97 40.5049 200.994 40.5413C201.278 40.9076 201.552 41.2803 201.818 41.6597L201.903 41.7708C201.917 41.789 201.928 41.8088 201.936 41.8297C202.198 42.1894 202.446 42.5622 202.688 42.9415C202.708 42.9789 202.732 43.0139 202.76 43.0461L202.858 43.2162C203.054 43.5236 203.244 43.8702 203.434 44.1514L203.519 44.2953C203.521 44.3148 203.521 44.3346 203.519 44.3541C203.734 44.7204 203.937 45.0866 204.133 45.4529L204.179 45.5444L204.277 45.7275L204.729 46.617C204.729 46.6758 204.787 46.7412 204.82 46.8001C204.853 46.859 204.853 46.8786 204.872 46.9113C205.049 47.2906 205.226 47.6699 205.389 48.0492C205.401 48.0895 205.417 48.1289 205.435 48.167C205.585 48.5136 205.723 48.8602 205.86 49.2068C205.86 49.2657 205.906 49.318 205.932 49.3769C205.958 49.4357 205.965 49.4684 205.978 49.5207C206.135 49.9262 206.285 50.3382 206.422 50.7503V50.8222C206.566 51.2582 206.697 51.6942 206.815 52.1302L206.861 52.2937C206.863 52.322 206.863 52.3505 206.861 52.3787C206.991 52.8758 207.116 53.3663 207.22 53.8568C207.223 53.9003 207.223 53.944 207.22 53.9876L207.259 54.1838C207.299 54.3734 207.331 54.5696 207.371 54.7593C207.41 54.9489 207.416 55.0274 207.443 55.1648C207.469 55.3021 207.501 55.5637 207.528 55.7599C207.528 55.8515 207.56 55.943 207.573 56.0411C207.57 56.065 207.57 56.0892 207.573 56.1131C207.626 56.5382 207.665 56.9633 207.698 57.3818C207.698 57.4734 207.698 57.5584 207.698 57.65C207.698 58.0816 207.743 58.5067 207.743 58.958C207.743 63.621 206.082 66.8975 203.434 68.441L199.81 70.5468L200.039 70.3964C200.118 70.3506 200.196 70.3049 200.268 70.2525L200.654 69.9779Z" fill="#EBEBEB"/>
<path d="M174.697 43.9224C174.697 53.3008 181.237 64.7261 189.431 69.4284C193.656 71.8678 197.476 72.0444 200.177 70.3113C200.255 70.2655 200.334 70.2197 200.406 70.1674L200.654 69.9843L200.87 69.8143C200.951 69.752 201.027 69.6843 201.099 69.6115C201.171 69.5527 201.243 69.4938 201.308 69.4284L201.524 69.206L201.72 68.9968C201.793 68.9205 201.86 68.8397 201.923 68.7548C201.982 68.6828 202.047 68.6109 202.106 68.5324C202.165 68.4539 202.23 68.3558 202.289 68.2708C202.348 68.1858 202.407 68.1139 202.459 68.0288C202.511 67.9438 202.577 67.8392 202.629 67.7411C202.681 67.643 202.74 67.571 202.786 67.486C202.832 67.401 202.891 67.2833 202.943 67.1786L203.087 66.904L203.224 66.577C203.263 66.4789 203.309 66.3873 203.349 66.2892C203.388 66.1911 203.434 66.0538 203.473 65.936C203.512 65.8183 203.551 65.7333 203.584 65.6352C203.617 65.5371 203.656 65.3867 203.689 65.2624C203.721 65.1382 203.754 65.0531 203.78 64.942C203.806 64.8308 203.846 64.6869 203.872 64.5561L203.95 64.216C203.95 64.0787 203.996 63.9348 204.022 63.7975L204.081 63.4574L204.14 62.9734L204.179 62.666L204.218 62.1101V61.842C204.218 61.563 204.218 61.2752 204.218 60.9787C204.218 60.5536 204.218 60.1285 204.179 59.6707V59.5857C204.146 59.1083 204.107 58.6243 204.042 58.1338V57.9703L203.924 57.179C203.924 57.0482 203.878 56.9174 203.852 56.78C203.826 56.6427 203.78 56.3942 203.741 56.198V56.1064C203.511 55.0136 203.218 53.9349 202.865 52.8757C202.392 51.4503 201.824 50.0585 201.164 48.7097L201.125 48.6247C200.746 47.8595 200.347 47.1008 199.915 46.3618L199.797 46.1591C199.601 45.8255 199.398 45.5051 199.196 45.1781L199.052 44.9492C198.489 44.0794 197.901 43.2422 197.273 42.4378C196.658 41.6487 196.004 40.8922 195.311 40.1684C195.056 39.8938 194.794 39.6322 194.533 39.364L194.402 39.2463C194.062 38.9062 193.715 38.5923 193.355 38.2653H193.316C192.95 37.9383 192.571 37.6113 192.191 37.3235C192.119 37.2727 192.049 37.2181 191.982 37.16C191.622 36.8854 191.263 36.6238 190.89 36.3752L190.851 36.3425C190.615 36.1856 190.38 36.0286 190.144 35.8847C189.909 35.7409 189.739 35.6297 189.529 35.512C189.216 35.3288 188.875 35.1653 188.594 35.0084C187.701 34.5521 186.766 34.1841 185.802 33.9097L185.534 33.8443L185.128 33.7462C185.03 33.7462 184.932 33.7069 184.834 33.6873L184.454 33.6219L184.147 33.5827L183.663 33.5303H183.473C183.123 33.5107 182.771 33.5107 182.421 33.5303H182.25C182.028 33.5303 181.806 33.5696 181.596 33.6023C181.287 33.6468 180.981 33.7124 180.681 33.7985H180.57C180.367 33.8639 180.171 33.9358 179.975 34.0143L179.87 34.0535C179.602 34.1713 179.334 34.2955 179.079 34.4394C176.364 35.9698 174.71 39.2398 174.697 43.9224ZM184.108 63.8563L184.069 63.8105C183.853 63.5816 183.644 63.3462 183.415 63.1042L183.277 62.9473C182.931 62.5483 182.623 62.1428 182.27 61.7243L182.165 61.5869C181.904 61.2469 181.655 60.9329 181.407 60.5536L181.296 60.4032C181.06 60.0631 180.831 59.7492 180.609 59.3699C180.55 59.2849 180.498 59.1998 180.445 59.1148C180.262 58.8336 180.086 58.5393 179.916 58.245C179.875 58.1863 179.838 58.1252 179.805 58.0619C179.608 57.7283 179.419 57.4079 179.236 57.0482L179.105 56.7866C178.961 56.5184 178.824 56.2438 178.686 55.9691L178.555 55.6944C178.385 55.3478 178.228 55.0012 178.071 54.648L178.013 54.4976C177.875 54.1771 177.744 53.8436 177.62 53.5427L177.509 53.255C177.365 52.8757 177.228 52.4963 177.103 52.117C177.103 52.117 177.104 52.0582 177.071 52.0255C176.94 51.6331 176.822 51.2407 176.711 50.8483L176.652 50.6259C176.521 50.1681 176.41 49.7103 176.312 49.259C176.312 49.1544 176.273 49.0563 176.247 48.9582L176.149 48.4219C176.149 48.3107 176.103 48.1996 176.09 48.0818C176.077 47.9641 176.024 47.696 175.998 47.4998C175.972 47.3036 175.966 47.284 175.952 47.1728C175.9 46.7804 175.867 46.388 175.835 46.0021C175.835 45.9171 175.835 45.8321 175.835 45.7536C175.835 45.3547 175.795 44.9557 175.795 44.5633C175.795 44.2952 175.795 44.027 175.795 43.772V43.4777C175.795 43.3207 175.795 43.1572 175.835 43.0068C175.874 42.8564 175.835 42.8106 175.867 42.7125C175.9 42.6144 175.867 42.4117 175.92 42.2678C175.972 42.1239 175.959 42.065 175.972 41.9669C175.985 41.8688 176.018 41.6988 176.044 41.568C176.07 41.4372 176.09 41.3653 176.109 41.2606C176.129 41.156 176.168 41.0186 176.194 40.8944C176.221 40.7701 176.253 40.6982 176.279 40.6001C176.306 40.502 176.345 40.3712 176.384 40.26L176.482 39.9722C176.521 39.8676 176.554 39.7564 176.6 39.6518C176.646 39.5471 176.678 39.4752 176.711 39.3836C176.744 39.2921 176.796 39.1809 176.842 39.0828C176.888 38.9847 176.927 38.9128 176.973 38.8277C177.018 38.7427 177.064 38.6381 177.117 38.5465L177.26 38.3111L177.417 38.0429L177.574 37.8206C177.633 37.7421 177.686 37.6571 177.751 37.5786C177.816 37.5001 177.862 37.4413 177.921 37.3693C177.98 37.2974 178.039 37.2189 178.104 37.147C178.17 37.075 178.228 37.0162 178.287 36.9508L178.483 36.748L178.68 36.5714L178.889 36.3883L179.098 36.2314L179.321 36.0679L179.536 35.924C180.209 35.5035 180.951 35.2047 181.727 35.0411C183.931 34.5702 186.6 35.0869 189.477 36.748C197.024 41.1037 203.133 51.6723 203.107 60.3509C203.107 63.6209 202.237 66.1061 200.765 67.7607C200.28 68.3125 199.708 68.781 199.071 69.1472L199.006 69.1799C198.823 69.278 198.633 69.3695 198.444 69.4546L198.267 69.5265C198.088 69.6006 197.905 69.666 197.718 69.7227H197.619C197.397 69.7816 197.168 69.8339 196.965 69.8797H196.789C196.586 69.8797 196.39 69.932 196.181 69.9516H196.024C195.769 69.9516 195.501 69.9516 195.232 69.9516H195.062H194.631L194.134 69.8927L193.82 69.8339L193.519 69.775C193.44 69.775 193.362 69.7358 193.283 69.7162L192.898 69.6246C192.391 69.4806 191.893 69.3081 191.406 69.1079L191.191 69.0164C190.923 68.8987 190.661 68.7809 190.393 68.6436C190.356 68.6301 190.321 68.6126 190.288 68.5913C190 68.4474 189.713 68.297 189.418 68.1269C189.124 67.9569 188.699 67.6888 188.346 67.4729H188.293C187.868 67.1852 187.443 66.8778 187.031 66.5573L186.959 66.505C186.606 66.2238 186.253 65.936 185.913 65.6287H185.88C185.56 65.354 185.226 65.0597 184.945 64.7654L184.795 64.615C184.572 64.3403 184.337 64.0918 184.108 63.8563Z" fill="white"/>
<path d="M278.663 93.7445L278.623 109.022L276.772 110.101L276.818 92.6851L278.663 93.7445Z" fill="#F0F0F0"/>
<path d="M298.61 120.565L298.603 122.703L276.772 110.101L278.623 109.022L298.61 120.565Z" fill="#F5F5F5"/>
<path d="M274.523 111.376L300.84 126.569L300.905 104.012L274.595 88.8198L274.523 111.376ZM276.773 110.068L276.818 92.6457L278.663 93.7117L298.656 105.294L298.61 120.572V122.71L276.773 110.068Z" fill="#E0E0E0"/>
<path d="M274.588 88.8199L276.439 87.7473L302.75 102.94L300.899 104.012L274.588 88.8199Z" fill="#F5F5F5"/>
<path d="M302.749 102.94L302.684 125.49L300.833 126.569L300.898 104.012L302.749 102.94Z" fill="#F0F0F0"/>
<path d="M279.447 62.7906L279.408 78.0681L277.551 79.1406L277.603 61.7246L279.447 62.7906Z" fill="#F0F0F0"/>
<path d="M299.394 89.6047L299.388 91.7498L277.551 79.1407L279.408 78.0681L299.394 89.6047Z" fill="#F5F5F5"/>
<path d="M275.334 80.442L301.644 95.6345L301.71 73.078L275.373 57.866L275.334 80.442ZM277.577 79.134L277.63 61.718L279.448 62.784L299.44 74.3271L299.395 89.598V91.7432L277.577 79.134Z" fill="#E0E0E0"/>
<path d="M275.373 57.866L277.224 56.7869L303.534 71.9793L301.683 73.0584L275.373 57.866Z" fill="#F5F5F5"/>
<path d="M303.534 71.9792L303.469 94.5357L301.618 95.6083L301.684 73.0583L303.534 71.9792Z" fill="#F0F0F0"/>
<path d="M285.019 99.5454L279.565 103.842L279.552 108.034L297.681 118.498L297.694 114.306L294.241 107.446L291.141 109.852L292.233 113.26L290.644 110.238L285.019 99.5454Z" fill="#E0E0E0"/>
<path d="M290.971 101.658C290.121 101.167 289.421 101.566 289.421 102.547C289.449 103.081 289.604 103.601 289.872 104.064C290.141 104.527 290.515 104.919 290.964 105.209C291.815 105.706 292.508 105.307 292.514 104.326C292.485 103.791 292.33 103.271 292.062 102.807C291.794 102.343 291.42 101.95 290.971 101.658Z" fill="#E0E0E0"/>
<path d="M285.798 68.5916L280.35 72.8818L280.337 77.0739L298.466 87.5445L298.479 83.3523L295.026 76.4853L291.919 78.8986L293.018 82.3059L291.429 79.2779L285.798 68.5916Z" fill="#E0E0E0"/>
<path d="M291.756 70.7041C290.899 70.2136 290.206 70.606 290.206 71.587C290.233 72.1215 290.386 72.642 290.653 73.1059C290.92 73.5697 291.294 73.9636 291.742 74.2553C292.599 74.7458 293.292 74.3534 293.292 73.3724C293.265 72.8379 293.112 72.3173 292.845 71.8535C292.578 71.3897 292.204 70.9958 291.756 70.7041Z" fill="#E0E0E0"/>
<path d="M223.995 45.198L263.15 67.8394C263.812 68.2225 264.362 68.7726 264.746 69.4347C265.129 70.0969 265.332 70.8479 265.334 71.613V110.984C265.312 111.737 265.093 112.47 264.698 113.112C264.303 113.753 263.746 114.279 263.084 114.638C262.422 114.996 261.677 115.174 260.924 115.154C260.171 115.133 259.437 114.915 258.794 114.522L242.444 104.817L242.091 105.386C242.091 105.386 242.059 105.418 242.039 105.438H242C241.346 105.863 240.24 106.465 239.992 106.595C239.934 106.614 239.871 106.61 239.816 106.583C239.761 106.556 239.718 106.509 239.698 106.452L238.272 102.41L219.613 91.9328C218.948 91.5526 218.395 91.0033 218.01 90.3407C217.626 89.678 217.423 88.9255 217.422 88.1592V48.7361C217.422 45.5969 222.04 44.0731 223.995 45.198Z" fill="#1FB545"/>
<path opacity="0.2" d="M242.032 105.386C242.032 105.386 242 105.418 241.98 105.438H241.941C241.287 105.863 240.182 106.465 239.933 106.596C239.963 106.591 239.991 106.58 240.016 106.563C240.041 106.546 240.062 106.523 240.077 106.497L241.457 104.261L241.182 104.104L242.399 104.797L242.032 105.386Z" fill="white"/>
<path opacity="0.4" d="M260.442 71.94C260.161 71.3777 259.764 70.8808 259.278 70.4816C259.112 70.3477 258.935 70.2274 258.749 70.1219L219.594 47.4739C219.373 47.3479 219.123 47.2821 218.868 47.2831C218.614 47.2842 218.364 47.352 218.145 47.4798C217.925 47.6076 217.742 47.7909 217.616 48.0114C217.489 48.2319 217.422 48.4818 217.422 48.7361C217.422 45.5969 222.04 44.0731 223.995 45.198L263.15 67.8394C263.827 68.2321 264.387 68.7989 264.772 69.481L260.442 71.94Z" fill="white"/>
<path opacity="0.2" d="M260.946 113.266V73.902C260.947 73.2176 260.778 72.5437 260.456 71.94L264.785 69.481C265.152 70.1317 265.346 70.8659 265.348 71.613V110.984C265.326 111.737 265.106 112.47 264.711 113.112C264.316 113.753 263.76 114.279 263.097 114.638C262.435 114.996 261.69 115.174 260.937 115.154C260.184 115.133 259.45 114.915 258.808 114.522C259.027 114.64 259.273 114.699 259.522 114.694C259.771 114.69 260.015 114.621 260.23 114.495C260.444 114.369 260.623 114.189 260.749 113.974C260.874 113.759 260.942 113.515 260.946 113.266Z" fill="white"/>
<path d="M227.01 63.6473L249.737 76.7666L248.37 92.3448C248.291 93.2931 247.559 93.6528 246.689 93.1296L229.28 83.058C228.931 82.8454 228.627 82.5679 228.384 82.2405L228.416 82.6853C228.521 83.6753 228.845 84.6294 229.366 85.4781C229.886 86.3267 230.59 87.0483 231.425 87.5903L232.19 88.0284C232.477 88.0961 232.753 88.2063 233.008 88.3554C233.307 88.537 233.582 88.7569 233.825 89.0094L241.98 93.7182C242.269 93.7819 242.545 93.8924 242.798 94.0452C243.094 94.2165 243.369 94.4229 243.615 94.66L245.348 95.6606C245.541 95.7897 245.701 95.9624 245.814 96.1646C245.928 96.3668 245.992 96.593 246.002 96.8247C246.002 97.2498 245.695 97.4199 245.348 97.2106L245.211 97.1321C245.407 97.6483 245.509 98.1954 245.512 98.7475C245.512 100.474 244.289 101.174 242.778 100.304C241.988 99.7885 241.331 99.0942 240.859 98.2772C240.388 97.4602 240.115 96.5437 240.064 95.6017C240.051 95.1601 240.159 94.7234 240.378 94.3395L235.395 91.4619C235.586 91.9794 235.688 92.5257 235.695 93.0773C235.695 94.8104 234.466 95.5037 232.962 94.6338C232.17 94.1207 231.51 93.4269 231.039 92.6094C230.567 91.792 230.296 90.8742 230.248 89.9316C230.233 89.4711 230.354 89.0164 230.594 88.6236C228.604 86.9898 227.332 84.6427 227.05 82.0836L225.506 61.1556C225.459 60.7156 225.314 60.2917 225.082 59.9149C224.85 59.5381 224.537 59.2179 224.165 58.9778L221.353 57.3493C221.161 57.2208 221.002 57.0492 220.889 56.8482C220.775 56.6472 220.71 56.4223 220.699 56.1917C220.699 55.7601 221.007 55.59 221.353 55.8059L224.165 57.4278C224.907 57.9105 225.532 58.5525 225.995 59.3071C226.458 60.0616 226.746 60.9098 226.84 61.79L227.01 63.6473ZM238.907 85.8245L238.939 73.3461C238.922 73.0305 238.831 72.7234 238.673 72.4496C238.515 72.1758 238.295 71.943 238.03 71.77C237.527 71.4822 237.121 71.7111 237.115 72.2932L237.082 84.7715C237.103 85.0836 237.196 85.3866 237.353 85.6567C237.511 85.9268 237.729 86.1566 237.991 86.328C238.495 86.6158 238.907 86.3804 238.907 85.8048V85.8245ZM242.831 88.0807L242.863 75.6024C242.846 75.2868 242.755 74.9797 242.597 74.7059C242.439 74.4321 242.219 74.1993 241.954 74.0263C241.451 73.7385 241.039 73.9674 241.039 74.5495V87.0278C241.055 87.3437 241.146 87.6512 241.304 87.9252C241.462 88.1991 241.682 88.4318 241.948 88.604C242.451 88.8917 242.857 88.6563 242.863 88.0807H242.831ZM246.787 90.3567L246.827 77.8784C246.805 77.565 246.71 77.261 246.55 76.9907C246.39 76.7205 246.169 76.4914 245.904 76.3218C245.401 76.0341 244.989 76.263 244.989 76.845L244.956 89.3234C244.976 89.6439 245.072 89.955 245.237 90.2305C245.402 90.506 245.631 90.7377 245.904 90.906C246.401 91.1938 246.813 90.9584 246.813 90.3828L246.787 90.3567ZM234.989 83.5551L235.022 71.0768C235.009 70.7602 234.919 70.4514 234.761 70.1769C234.603 69.9025 234.38 69.6704 234.113 69.5006C233.609 69.2129 233.204 69.4418 233.197 70.0238V82.5021C233.215 82.8176 233.306 83.1246 233.464 83.3983C233.622 83.672 233.842 83.9049 234.106 84.0783C234.61 84.366 235.022 84.1306 235.022 83.5551H234.989ZM231.098 81.2792L231.137 68.8008C231.119 68.4855 231.027 68.1787 230.869 67.9051C230.711 67.6314 230.492 67.3984 230.228 67.2247C229.724 66.9369 229.312 67.1658 229.312 67.7479L229.273 80.2262C229.29 80.5409 229.382 80.8472 229.54 81.1199C229.698 81.3927 229.918 81.6243 230.182 81.7958C230.686 82.0901 231.098 81.8547 231.098 81.2792ZM233.06 90.3371C232.497 90.0101 232.04 90.2717 232.033 90.9191C232.053 91.2728 232.156 91.6168 232.333 91.9235C232.51 92.2302 232.757 92.491 233.053 92.6849C233.622 93.0119 234.074 92.7503 234.08 92.1029C234.062 91.7489 233.96 91.4043 233.782 91.0973C233.605 90.7904 233.357 90.5298 233.06 90.3371ZM242.87 96.0072C242.307 95.6802 241.85 95.9418 241.85 96.5893C241.867 96.9428 241.968 97.2873 242.144 97.5942C242.32 97.9012 242.567 98.162 242.863 98.3551C243.426 98.6821 243.89 98.4205 243.89 97.7665C243.87 97.4137 243.767 97.0706 243.59 96.765C243.413 96.4594 243.166 96.1998 242.87 96.0072Z" fill="white"/>
<path d="M256.244 77.1C256.537 77.2787 256.779 77.5312 256.944 77.8325C257.33 78.4865 257.33 79.2189 256.944 79.4348L251.169 82.7048C251.057 82.7563 250.932 82.7768 250.809 82.7641C250.686 82.7515 250.569 82.7061 250.469 82.6328C250.178 82.4511 249.938 82.1993 249.769 81.9003L246.944 76.9953C246.552 76.3413 246.558 75.6088 246.944 75.3865C247.057 75.3363 247.181 75.3165 247.304 75.3291C247.426 75.3418 247.544 75.3863 247.644 75.4584C247.935 75.6401 248.176 75.892 248.344 76.1909L250.482 79.9187L255.557 77.028C255.668 76.979 255.79 76.9598 255.91 76.9724C256.031 76.985 256.146 77.029 256.244 77.1Z" fill="white"/>
<path d="M251.954 71.0506C255.806 73.2742 258.912 78.6632 258.899 83.0842C258.886 87.5052 255.76 89.2841 251.908 87.0605C248.056 84.8369 244.956 79.461 244.969 75.0335C244.982 70.6059 248.108 68.8335 251.954 71.0506ZM251.136 82.731L256.911 79.461C257.303 79.2452 257.303 78.5258 256.911 77.8587C256.746 77.5575 256.504 77.305 256.211 77.1263C256.111 77.0529 255.994 77.0076 255.871 76.9949C255.748 76.9823 255.624 77.0028 255.511 77.0543L250.482 79.9188L248.35 76.2172C248.182 75.9183 247.941 75.6664 247.65 75.4847C247.55 75.4126 247.433 75.3681 247.31 75.3554C247.187 75.3428 247.063 75.3626 246.95 75.4128C246.565 75.6351 246.558 76.348 246.95 77.0216L249.776 81.9266C249.944 82.2256 250.185 82.4774 250.475 82.6591C250.575 82.7324 250.693 82.7778 250.816 82.7904C250.939 82.8031 251.063 82.7826 251.175 82.731" fill="#1FB545"/>
<path opacity="0.3" d="M251.954 71.0506C255.806 73.2742 258.912 78.6632 258.899 83.0842C258.886 87.5052 255.76 89.2841 251.908 87.0605C248.056 84.8369 244.956 79.461 244.969 75.0335C244.982 70.6059 248.108 68.8335 251.954 71.0506ZM251.136 82.731L256.911 79.461C257.303 79.2452 257.303 78.5258 256.911 77.8587C256.746 77.5575 256.504 77.305 256.211 77.1263C256.111 77.0529 255.994 77.0076 255.871 76.9949C255.748 76.9823 255.624 77.0028 255.511 77.0543L250.482 79.9188L248.35 76.2172C248.182 75.9183 247.941 75.6664 247.65 75.4847C247.55 75.4126 247.433 75.3681 247.31 75.3554C247.187 75.3428 247.063 75.3626 246.95 75.4128C246.565 75.6351 246.558 76.348 246.95 77.0216L249.776 81.9266C249.944 82.2256 250.185 82.4774 250.475 82.6591C250.575 82.7324 250.693 82.7778 250.816 82.7904C250.939 82.8031 251.063 82.7826 251.175 82.731" fill="white"/>
<path d="M126.425 52.0848C125.967 50.4694 122.684 47.3956 119.414 47.461C119.101 47.4708 118.791 47.5327 118.499 47.6441L55.067 83.7122C54.0062 84.3151 53.155 85.2279 52.6276 86.3282C52.2091 87.1538 51.9853 88.0644 51.9736 88.99V226.232C51.9736 229.724 56.0023 233.06 59.7889 231.464C59.8749 231.44 59.9582 231.407 60.0375 231.366L123.475 195.213C124.405 194.682 125.177 193.914 125.715 192.989C126.252 192.063 126.536 191.012 126.536 189.941V52.7453C126.55 52.5195 126.512 52.2935 126.425 52.0848Z" fill="#455A64"/>
<path d="M60.8223 103.508C60.8244 102.976 60.967 102.454 61.2357 101.995C61.5045 101.535 61.8897 101.155 62.3526 100.892L121.285 67.3619C121.515 67.2306 121.775 67.1618 122.04 67.1624C122.305 67.1629 122.565 67.2328 122.794 67.3651C123.024 67.4973 123.215 67.6874 123.348 67.9163C123.481 68.1452 123.552 68.405 123.554 68.6699V179.327C123.549 179.858 123.405 180.379 123.136 180.838C122.868 181.297 122.484 181.678 122.024 181.943L63.1178 215.532C62.8878 215.663 62.6274 215.732 62.3625 215.732C62.0976 215.731 61.8375 215.661 61.608 215.529C61.3785 215.397 61.1877 215.207 61.0544 214.978C60.9211 214.749 60.8501 214.489 60.8484 214.224L60.8223 103.508Z" fill="#1FB545"/>
<path opacity="0.2" d="M60.8223 103.508C60.8244 102.976 60.967 102.454 61.2357 101.995C61.5045 101.535 61.8897 101.155 62.3526 100.892L121.285 67.3619C121.515 67.2306 121.775 67.1618 122.04 67.1624C122.305 67.1629 122.565 67.2328 122.794 67.3651C123.024 67.4973 123.215 67.6874 123.348 67.9163C123.481 68.1452 123.552 68.405 123.554 68.6699V179.327C123.549 179.858 123.405 180.379 123.136 180.838C122.868 181.297 122.484 181.678 122.024 181.943L63.1178 215.532C62.8878 215.663 62.6274 215.732 62.3625 215.732C62.0976 215.731 61.8375 215.661 61.608 215.529C61.3785 215.397 61.1877 215.207 61.0544 214.978C60.9211 214.749 60.8501 214.489 60.8484 214.224L60.8223 103.508Z" fill="black"/>
<path opacity="0.1" d="M60.8223 103.508C60.8244 102.976 60.967 102.454 61.2357 101.995C61.5045 101.535 61.8897 101.155 62.3526 100.892L121.285 67.3619C121.515 67.2306 121.775 67.1618 122.04 67.1624C122.305 67.1629 122.565 67.2328 122.794 67.3651C123.024 67.4973 123.215 67.6874 123.348 67.9163C123.481 68.1452 123.552 68.405 123.554 68.6699V179.327C123.549 179.858 123.405 180.379 123.136 180.838C122.868 181.297 122.484 181.678 122.024 181.943L63.1178 215.532C62.8878 215.663 62.6274 215.732 62.3625 215.732C62.0976 215.731 61.8375 215.661 61.608 215.529C61.3785 215.397 61.1877 215.207 61.0544 214.978C60.9211 214.749 60.8501 214.489 60.8484 214.224L60.8223 103.508Z" fill="white"/>
<path opacity="0.3" d="M52 89.0027V226.232C52 229.724 56.0286 233.059 59.8153 231.464C59.588 231.547 59.344 231.574 59.104 231.542C58.8641 231.511 58.6352 231.422 58.4368 231.284C58.2385 231.145 58.0765 230.961 57.9647 230.746C57.8528 230.531 57.7944 230.293 57.7944 230.051V92.7959C57.8106 91.5989 58.1816 90.4336 58.8605 89.4475L52.6278 86.3279C52.2164 87.1596 52.0016 88.0748 52 89.0027Z" fill="black"/>
<path opacity="0.1" d="M119.42 47.4542C119.107 47.464 118.798 47.5259 118.505 47.6373L55.0669 83.7119C54.006 84.3148 53.1549 85.2276 52.6274 86.3279L58.8601 89.4475C59.3769 88.6402 60.0786 87.9677 60.9071 87.4855L124.345 51.3978C124.525 51.2946 124.723 51.2297 124.929 51.2069C125.135 51.1841 125.343 51.2041 125.541 51.2654C125.738 51.3268 125.921 51.4284 126.078 51.5637C126.234 51.699 126.361 51.8651 126.451 52.0518C125.974 50.4626 122.69 47.3888 119.42 47.4542Z" fill="white"/>
<path d="M100.016 74.0849C100.468 73.8299 100.834 74.0326 100.834 74.5427C100.817 74.8239 100.735 75.0973 100.594 75.3413C100.453 75.5853 100.258 75.7933 100.023 75.9488L87.5969 83.1428C87.1522 83.4044 86.7925 83.1886 86.7925 82.672C86.8075 82.3945 86.8875 82.1244 87.0261 81.8836C87.1647 81.6427 87.358 81.4378 87.5904 81.2855L100.016 74.0849Z" fill="#263238"/>
<path d="M84.3661 83.1167C84.8109 82.8617 85.1706 83.0644 85.1706 83.5811C85.1548 83.8609 85.0738 84.1332 84.9342 84.3762C84.7945 84.6192 84.6 84.8262 84.3661 84.9807C83.9214 85.2357 83.5552 85.0264 83.5552 84.5163C83.5691 84.2353 83.6499 83.9617 83.791 83.7182C83.932 83.4748 84.1292 83.2685 84.3661 83.1167Z" fill="#263238"/>
<path d="M92.3451 73.045C93.2345 72.5284 93.9539 72.9404 93.9539 73.9606C93.9262 74.5196 93.7666 75.064 93.4881 75.5494C93.2096 76.0347 92.8202 76.4473 92.3516 76.7532C91.4622 77.2699 90.7231 76.8513 90.7231 75.8245C90.7561 75.2664 90.9201 74.7239 91.2019 74.2409C91.4837 73.758 91.8753 73.3483 92.3451 73.045Z" fill="#263238"/>
<path d="M92.3448 202.23C94.1629 201.183 95.6148 202.021 95.6148 204.1C95.5569 205.24 95.2305 206.35 94.6623 207.34C94.094 208.33 93.2999 209.172 92.3448 209.797C90.5332 210.843 89.029 209.986 89.0225 207.9C89.0902 206.76 89.4265 205.652 90.0039 204.667C90.5812 203.681 91.3834 202.846 92.3448 202.23Z" fill="#263238"/>
<path d="M123.358 65.6223L144.783 83.4046L136.974 87.9172L115.556 70.1349L123.358 65.6223Z" fill="#1FB545"/>
<path d="M107.747 74.6475L129.165 92.4232L121.356 96.9358L99.9443 79.1601L107.747 74.6475Z" fill="#1FB545"/>
<path d="M99.9445 79.1602L121.356 96.9359L113.548 101.448L92.1357 83.6728L99.9445 79.1602Z" fill="white"/>
<path d="M115.555 70.1348L136.974 87.917L129.165 92.4231L107.747 74.6474L115.555 70.1348Z" fill="white"/>
<path d="M76.5246 92.6914L97.93 110.467L90.1212 114.98L68.7158 97.204L76.5246 92.6914Z" fill="#1FB545"/>
<path d="M92.1359 83.6726L113.548 101.448L105.739 105.954L84.3271 88.1787L92.1359 83.6726Z" fill="#1FB545"/>
<path d="M60.7632 101.801L68.7158 97.2039L90.1212 114.98L82.149 119.584L60.7632 101.801Z" fill="white"/>
<path d="M84.3271 88.1787L105.739 105.954L97.9303 110.467L76.5249 92.6913L84.3271 88.1787Z" fill="white"/>
<path d="M144.783 83.4045L136.974 87.9171C136.974 88.4463 137.112 88.9663 137.376 89.4249C137.641 89.8834 138.021 90.2644 138.479 90.5295C138.937 90.7946 139.456 90.9345 139.985 90.9352C140.515 90.9358 141.035 90.7972 141.493 90.5331C142.489 89.9513 143.315 89.1185 143.889 88.1179C144.463 87.1173 144.764 85.9837 144.763 84.8303L144.783 83.4045Z" fill="#1FB545"/>
<path d="M136.974 87.917L129.165 92.4296C129.164 92.9588 129.303 93.4788 129.567 93.9373C129.831 94.3959 130.212 94.7769 130.67 95.042C131.128 95.3071 131.647 95.447 132.176 95.4476C132.706 95.4483 133.226 95.3096 133.684 95.0456C134.681 94.4647 135.508 93.6322 136.082 92.6313C136.656 91.6305 136.956 90.4964 136.954 89.3427L136.974 87.917Z" fill="#E0E0E0"/>
<path d="M129.165 92.4297L121.356 96.9357C121.356 97.4649 121.495 97.9849 121.759 98.4435C122.023 98.902 122.403 99.283 122.861 99.5481C123.319 99.8133 123.839 99.9531 124.368 99.9538C124.897 99.9544 125.417 99.8158 125.876 99.5517C126.872 98.9709 127.699 98.1383 128.273 97.1375C128.847 96.1366 129.148 95.0026 129.146 93.8489L129.165 92.4297Z" fill="#1FB545"/>
<path d="M121.356 96.9358L113.547 101.448C113.545 101.978 113.682 102.5 113.946 102.959C114.21 103.419 114.59 103.801 115.049 104.066C115.507 104.332 116.028 104.472 116.558 104.471C117.088 104.471 117.608 104.331 118.067 104.064C119.063 103.485 119.889 102.653 120.463 101.653C121.037 100.654 121.338 99.5208 121.337 98.3681L121.356 96.9358Z" fill="#E0E0E0"/>
<path d="M113.548 101.448L105.739 105.948C105.738 106.477 105.877 106.997 106.141 107.455C106.405 107.914 106.785 108.295 107.243 108.56C107.701 108.825 108.221 108.965 108.75 108.966C109.279 108.966 109.799 108.828 110.258 108.564C111.255 107.983 112.081 107.15 112.655 106.15C113.229 105.149 113.53 104.015 113.528 102.861L113.548 101.448Z" fill="#1FB545"/>
<path d="M105.739 105.948L97.9302 110.454C97.9296 110.983 98.0684 111.503 98.3325 111.962C98.5966 112.42 98.9767 112.801 99.4347 113.066C99.8926 113.332 100.412 113.471 100.942 113.472C101.471 113.473 101.991 113.334 102.449 113.07C103.445 112.488 104.271 111.655 104.845 110.655C105.419 109.654 105.72 108.521 105.719 107.367L105.739 105.948Z" fill="#E0E0E0"/>
<path d="M97.9299 110.467L90.1211 114.98C90.1186 115.51 90.2561 116.031 90.5197 116.491C90.7833 116.95 91.1637 117.332 91.6223 117.598C92.081 117.863 92.6016 118.003 93.1316 118.002C93.6615 118.002 94.182 117.862 94.6403 117.596C95.6402 117.018 96.4695 116.187 97.0439 115.185C97.6182 114.183 97.9172 113.047 97.9103 111.893L97.9299 110.467Z" fill="#1FB545"/>
<path opacity="0.2" d="M144.783 83.4045L136.974 87.9171C136.974 88.4463 137.112 88.9663 137.376 89.4249C137.641 89.8834 138.021 90.2644 138.479 90.5295C138.937 90.7946 139.456 90.9345 139.985 90.9352C140.515 90.9358 141.035 90.7972 141.493 90.5331C142.489 89.9513 143.315 89.1185 143.889 88.1179C144.463 87.1173 144.764 85.9837 144.763 84.8303L144.783 83.4045Z" fill="black"/>
<path opacity="0.2" d="M129.165 92.4297L121.356 96.9357C121.356 97.4649 121.495 97.9849 121.759 98.4435C122.023 98.902 122.403 99.283 122.861 99.5481C123.319 99.8133 123.839 99.9531 124.368 99.9538C124.897 99.9544 125.417 99.8158 125.876 99.5517C126.872 98.9709 127.699 98.1383 128.273 97.1375C128.847 96.1366 129.148 95.0026 129.146 93.8489L129.165 92.4297Z" fill="black"/>
<path opacity="0.2" d="M113.548 101.448L105.739 105.948C105.738 106.477 105.877 106.997 106.141 107.455C106.405 107.914 106.785 108.295 107.243 108.56C107.701 108.825 108.221 108.965 108.75 108.966C109.279 108.966 109.799 108.828 110.258 108.564C111.255 107.983 112.081 107.15 112.655 106.15C113.229 105.149 113.53 104.015 113.528 102.861L113.548 101.448Z" fill="black"/>
<path opacity="0.2" d="M97.9299 110.467L90.1211 114.98C90.1186 115.51 90.2561 116.031 90.5197 116.491C90.7833 116.95 91.1637 117.332 91.6223 117.598C92.081 117.863 92.6016 118.003 93.1316 118.002C93.6615 118.002 94.182 117.862 94.6403 117.596C95.6402 117.018 96.4695 116.187 97.0439 115.185C97.6182 114.183 97.9172 113.047 97.9103 111.893L97.9299 110.467Z" fill="black"/>
<path d="M90.1217 114.98L82.1494 119.558C82.1476 120.087 82.2852 120.607 82.5485 121.066C82.8118 121.524 83.1914 121.906 83.649 122.171C84.1067 122.436 84.6262 122.576 85.1552 122.577C85.6842 122.577 86.2039 122.438 86.662 122.174C87.7146 121.566 88.5886 120.692 89.1959 119.639C89.8032 118.586 90.1226 117.392 90.1217 116.177V114.98Z" fill="#E0E0E0"/>
<path d="M99.2249 137.994C96.9086 138.268 94.6615 138.962 92.5934 140.041C87.7719 142.528 84.0877 146.769 82.2994 151.891C81.5237 154.091 81.1537 156.413 81.2072 158.745C81.7213 156.542 82.4643 154.398 83.4243 152.349C85.5716 147.758 88.9578 143.858 93.2016 141.087C95.0972 139.851 97.1157 138.814 99.2249 137.994Z" fill="#1FB545"/>
<path d="M93.1169 172.237C91.8456 172.216 90.5855 171.995 89.3826 171.583C88.0459 171.14 86.8118 170.433 85.7535 169.504C84.6952 168.575 83.8343 167.443 83.2219 166.175C82.6555 165.037 82.2736 163.816 82.0905 162.558C81.9537 163.875 82.1261 165.205 82.594 166.443C83.1209 167.885 84.002 169.172 85.1562 170.184C86.3105 171.197 87.7009 171.903 89.1994 172.237C90.4875 172.542 91.8289 172.542 93.1169 172.237Z" fill="#1FB545"/>
<path d="M103.254 151.205C103.381 152.948 103.355 154.698 103.175 156.437C102.761 160.364 101.474 164.149 99.408 167.515C98.4905 169.011 97.4422 170.423 96.2754 171.734C97.7778 170.729 99.1036 169.483 100.199 168.045C102.736 164.734 104.115 160.68 104.123 156.509C104.127 154.705 103.833 152.913 103.254 151.205Z" fill="#1FB545"/>
<path d="M82.7505 143.985C81.1696 145.505 79.8777 147.3 78.9377 149.282C76.7231 153.881 76.3533 159.153 77.9044 164.017C78.5652 166.11 79.5951 168.068 80.9455 169.798C80.0871 167.847 79.4297 165.813 78.9835 163.729C78.005 159.061 78.3447 154.213 79.9645 149.727C80.6895 147.72 81.6233 145.796 82.7505 143.985Z" fill="#1FB545"/>
<path d="M107.733 144.756C107.566 142.97 106.925 141.261 105.876 139.805C104.685 138.087 103.019 136.752 101.081 135.966C99.144 135.179 97.0192 134.975 94.9673 135.378C93.202 135.697 91.5526 136.478 90.1865 137.641C91.7224 136.888 93.3864 136.431 95.0915 136.293C96.9731 136.121 98.8687 136.401 100.62 137.111C102.371 137.821 103.926 138.94 105.157 140.374C106.283 141.66 107.158 143.146 107.733 144.756Z" fill="#1FB545"/>
<path d="M135.784 124.26C137.855 124.049 139.93 124.629 141.593 125.883C143.255 127.137 144.383 128.972 144.75 131.022L147.785 148.026L166.816 161.335L162.565 166.508L144.462 156.999C143.396 156.44 142.453 155.672 141.688 154.742C140.923 153.812 140.352 152.738 140.008 151.584L134.175 131.905L135.784 124.26Z" fill="#FFA8A7"/>
<path d="M142.847 142.533C144.529 141.637 145.875 140.222 146.686 138.498L144.979 130.702C144.543 128.722 143.395 126.972 141.752 125.784C140.11 124.596 138.088 124.054 136.071 124.26L135.784 124.293L134.175 131.951L136.686 143.226C138.756 143.743 140.943 143.497 142.847 142.533Z" fill="#455A64"/>
<path d="M142.847 142.533C140.943 143.497 138.756 143.743 136.686 143.226L137.34 146.005C139.701 146.535 145.75 146.359 147.327 141.362L146.673 138.484C145.868 140.212 144.526 141.632 142.847 142.533Z" fill="#455A64"/>
<path opacity="0.2" d="M142.847 142.533C144.529 141.637 145.875 140.222 146.686 138.498L144.979 130.702C144.543 128.722 143.395 126.972 141.752 125.784C140.11 124.596 138.088 124.054 136.071 124.26L135.784 124.293L134.175 131.951L136.686 143.226C138.756 143.743 140.943 143.497 142.847 142.533Z" fill="white"/>
<path opacity="0.5" d="M142.847 142.533C140.943 143.497 138.756 143.743 136.686 143.226L137.34 146.005C139.701 146.535 145.75 146.359 147.327 141.362L146.673 138.484C145.868 140.212 144.526 141.632 142.847 142.533Z" fill="white"/>
<path d="M139.995 131.578C139.995 131.578 139.237 125.79 135.784 124.28C135.784 124.28 127.517 126.758 120.663 129.361C117.953 130.35 115.298 131.485 112.711 132.762C111.154 134.109 106.687 138.118 104.588 139.197C103.562 139.71 102.456 140.042 101.318 140.178C99.8796 140.409 98.4988 140.913 97.25 141.663C90.9585 145.299 85.8769 154.089 85.8965 161.329C85.8965 166.07 88.1201 168.941 91.4098 169.34H91.5602C92.0797 169.395 92.6037 169.395 93.1232 169.34C98.8457 169.288 108.021 169.242 111.625 168.209C128.459 163.264 141.696 151.074 139.995 131.578Z" fill="#455A64"/>
<path d="M123.953 129.204L126.418 124.731L136.339 131.415L132.415 136.686C131.592 137.089 130.693 137.317 129.776 137.354C128.86 137.391 127.946 137.237 127.092 136.902C126.248 136.513 125.493 135.954 124.875 135.261C124.256 134.568 123.786 133.755 123.495 132.873C123.321 132.262 123.272 131.622 123.35 130.992C123.429 130.362 123.634 129.754 123.953 129.204Z" fill="#FFA8A7"/>
<path opacity="0.2" d="M127.347 125.352C127.347 130.741 131.631 133.265 134.247 134.22L136.34 131.415L127.347 125.352Z" fill="black"/>
<path d="M122.867 119.976C122.501 117.825 122.128 115.614 122.547 113.469C122.965 111.324 124.352 109.231 126.471 108.603C126.901 107.686 127.517 106.868 128.279 106.201C129.041 105.533 129.933 105.031 130.898 104.725C132.792 104.208 134.75 103.97 136.712 104.019C138.877 103.889 141.05 104.01 143.187 104.378C145.341 104.763 147.298 105.873 148.733 107.524C149.468 108.537 149.99 109.689 150.267 110.91C150.544 112.131 150.569 113.395 150.342 114.627C149.872 117.087 148.962 119.442 147.654 121.579C143.494 121.873 139.256 122.35 135.097 122.645C132.978 122.867 130.843 122.887 128.72 122.703C126.555 122.353 124.528 121.409 122.867 119.976Z" fill="#263238"/>
<path d="M148.334 110.003C149.4 116.403 148.694 122.973 146.293 129.002C145.737 130.395 144.985 131.84 143.71 132.579C142.435 133.318 140.656 133.2 139.132 132.965C136.611 132.678 134.154 131.987 131.853 130.918C129.537 129.825 127.733 127.881 126.817 125.49C125.993 125.656 125.138 125.58 124.355 125.273C123.572 124.966 122.894 124.439 122.403 123.756C121.437 122.34 120.936 120.657 120.97 118.943C120.97 117.851 121.173 116.562 122.154 116.085C123.135 115.608 124.155 116.137 124.947 116.778C126.244 117.833 127.192 119.256 127.667 120.859C128.387 118.197 129.505 115.627 130.224 113.011C130.512 111.965 130.878 110.827 131.774 110.245C132.886 109.532 134.338 109.937 135.627 110.245C139.814 111.247 144.188 111.164 148.334 110.003Z" fill="#FFA8A7"/>
<path d="M140.591 118.066L143.697 123.292L139.996 123.992L140.591 118.066Z" fill="#F28F8F"/>
<path d="M136.425 125.79L139.237 127.157C138.997 127.478 138.659 127.711 138.274 127.821C137.889 127.93 137.478 127.911 137.105 127.765C136.783 127.564 136.54 127.258 136.416 126.898C136.292 126.539 136.295 126.148 136.425 125.79Z" fill="#F28F8F"/>
<path opacity="0.3" d="M136.425 125.79L139.237 127.157C138.997 127.478 138.659 127.711 138.274 127.821C137.889 127.93 137.478 127.911 137.105 127.765C136.783 127.564 136.54 127.258 136.416 126.898C136.292 126.539 136.295 126.148 136.425 125.79Z" fill="black"/>
<path d="M138.079 127.857C137.752 127.923 137.413 127.891 137.105 127.765C136.846 127.621 136.636 127.402 136.502 127.138C136.368 126.873 136.316 126.575 136.353 126.281C136.756 126.282 137.147 126.417 137.464 126.667C137.816 126.969 138.036 127.395 138.079 127.857Z" fill="#F28F8F"/>
<path d="M135.228 118.276C135.207 118.486 135.249 118.697 135.348 118.883C135.447 119.069 135.599 119.222 135.785 119.322C135.971 119.421 136.183 119.463 136.393 119.443C136.602 119.422 136.802 119.34 136.965 119.206C137.128 119.072 137.248 118.893 137.309 118.691C137.37 118.489 137.37 118.274 137.309 118.072C137.247 117.87 137.128 117.691 136.964 117.557C136.801 117.424 136.602 117.341 136.392 117.321C136.111 117.294 135.831 117.379 135.613 117.558C135.394 117.737 135.256 117.995 135.228 118.276Z" fill="#263238"/>
<path d="M144.148 118.825C144.127 119.033 144.169 119.243 144.267 119.428C144.365 119.613 144.516 119.764 144.701 119.864C144.885 119.963 145.095 120.005 145.303 119.985C145.512 119.965 145.709 119.884 145.872 119.752C146.034 119.62 146.154 119.442 146.215 119.242C146.277 119.042 146.278 118.828 146.218 118.628C146.158 118.427 146.04 118.249 145.879 118.115C145.718 117.981 145.521 117.899 145.312 117.877C145.174 117.862 145.033 117.875 144.9 117.915C144.766 117.955 144.642 118.021 144.533 118.109C144.425 118.197 144.336 118.306 144.269 118.429C144.203 118.552 144.162 118.686 144.148 118.825Z" fill="#263238"/>
<path d="M145.6 114.718L147.784 116.575C147.915 116.295 147.957 115.981 147.905 115.676C147.852 115.371 147.708 115.089 147.49 114.868C147.22 114.67 146.901 114.551 146.567 114.524C146.233 114.497 145.898 114.565 145.6 114.718Z" fill="#263238"/>
<path d="M136.902 114.574L134.397 115.961C134.324 115.66 134.344 115.345 134.455 115.056C134.566 114.767 134.763 114.519 135.019 114.345C135.323 114.205 135.66 114.152 135.993 114.192C136.326 114.233 136.64 114.365 136.902 114.574Z" fill="#263238"/>
<path d="M150.322 112.154C141.224 113.611 131.953 113.611 122.854 112.154C123.28 101.036 128.283 97.3936 136.915 97.3936C145.548 97.3936 150.421 102.024 150.322 112.154Z" fill="#455A64"/>
<path d="M150.322 112.154C150.322 107.897 149.498 104.627 147.883 102.253L144.266 101.239C142.564 100.761 140.777 100.667 139.034 100.965L135.588 101.54C134.408 101.73 133.323 102.3 132.497 103.162C131.67 104.025 131.148 105.134 131.01 106.321L130.218 113.031C136.931 113.514 143.677 113.22 150.322 112.154Z" fill="#455A64"/>
<path opacity="0.29" d="M150.322 112.154C150.322 107.897 149.498 104.627 147.883 102.253L144.266 101.239C142.564 100.761 140.777 100.667 139.034 100.965L135.588 101.54C134.408 101.73 133.323 102.3 132.497 103.162C131.67 104.025 131.148 105.134 131.01 106.321L130.218 113.031C136.931 113.514 143.677 113.22 150.322 112.154Z" fill="white"/>
<path d="M151.401 102.796H149.806C149.289 102.796 148.779 102.796 148.269 102.855C143.59 103.195 139.156 105.076 135.66 108.204L130.284 113.031C136.975 113.509 143.699 113.215 150.322 112.154L153.821 107.91C154.193 107.45 154.428 106.895 154.498 106.308C154.568 105.721 154.472 105.127 154.219 104.592C153.966 104.058 153.567 103.606 153.069 103.288C152.571 102.97 151.992 102.799 151.401 102.796Z" fill="#455A64"/>
<path opacity="0.2" d="M151.401 102.796H149.806C149.289 102.796 148.779 102.796 148.269 102.855C143.59 103.195 139.156 105.076 135.66 108.204L130.284 113.031C136.975 113.509 143.699 113.215 150.322 112.154L153.821 107.91C154.193 107.45 154.428 106.895 154.498 106.308C154.568 105.721 154.472 105.127 154.219 104.592C153.966 104.058 153.567 103.606 153.069 103.288C152.571 102.97 151.992 102.799 151.401 102.796Z" fill="black"/>
<path d="M179.046 162.231L154.665 176.397L130.126 162.231L154.501 148.059L179.046 162.231Z" fill="#1FB545"/>
<g opacity="0.3">
<path opacity="0.3" d="M179.046 162.231L154.665 176.397L130.126 162.231L154.501 148.059L179.046 162.231Z" fill="white"/>
</g>
<path d="M179.046 162.231L178.974 187.031L154.593 201.197L154.665 176.397L179.046 162.231Z" fill="#1FB545"/>
<g opacity="0.1">
<path opacity="0.1" d="M179.046 162.231L178.974 187.031L154.593 201.197L154.665 176.397L179.046 162.231Z" fill="white"/>
</g>
<path d="M154.665 176.397L154.593 201.197L130.055 187.031L130.127 162.231L154.665 176.397Z" fill="#1FB545"/>
<path d="M158.909 160.413L167.162 155.371L162.951 152.938L154.665 157.882L158.909 160.413Z" fill="#E0E0E0"/>
<path d="M158.909 160.413L154.664 157.882L146.248 152.859L142.049 155.299L150.413 160.413L154.664 163.009L165.887 169.876L170.387 167.26L158.909 160.413Z" fill="white"/>
<path d="M150.414 160.413L138.89 167.287L143.403 169.896L154.665 163.009L150.414 160.413Z" fill="#E0E0E0"/>
<path d="M170.387 167.26L165.887 169.876L165.926 169.896L165.992 194.571L170.544 191.929L170.478 167.306L170.387 167.26Z" fill="#E0E0E0"/>
<path d="M143.403 169.896L138.89 167.287L138.851 167.306L138.779 192.073L143.331 194.696L143.403 169.896Z" fill="white"/>
<path opacity="0.2" d="M143.403 169.896L138.89 167.287L138.851 167.306L138.779 192.073L143.331 194.696L143.403 169.896Z" fill="black"/>
<path d="M154.651 167.908L149.55 171.027L154.651 173.977L159.74 171.021L154.651 167.908Z" fill="white"/>
<path d="M106.387 167.051C106.387 167.051 108.29 139.354 108.689 137.621C110.213 131.035 119.761 131.506 120.67 138.203C121.043 140.937 116.681 167.483 116.681 167.483L132.481 184.199L135.679 187.136L138.531 186.56L145.031 187.175C145.204 187.192 145.367 187.265 145.494 187.383C145.622 187.501 145.707 187.658 145.738 187.829C145.78 188.031 145.742 188.242 145.632 188.417C145.523 188.593 145.35 188.719 145.149 188.771L140.852 189.817L143.952 191.936C144.387 192.234 144.879 192.436 145.398 192.531L150.257 193.453C150.472 193.493 150.664 193.61 150.798 193.782C150.932 193.955 150.998 194.171 150.983 194.388C150.973 194.561 150.913 194.726 150.811 194.866C150.709 195.005 150.569 195.112 150.407 195.173L147.791 196.148C146.096 196.784 144.284 197.047 142.478 196.918C140.672 196.789 138.915 196.272 137.327 195.402L131.703 192.276C130.878 191.832 130.1 191.306 129.381 190.706L109.218 174.029C108.202 173.194 107.411 172.118 106.917 170.9C106.422 169.681 106.24 168.358 106.387 167.051Z" fill="#FFA8A7"/>
<path d="M120.415 156.437L122.436 141.395C122.561 140.37 122.483 139.33 122.207 138.335C121.93 137.34 121.461 136.409 120.825 135.596C120.188 134.782 119.398 134.102 118.499 133.594C117.6 133.086 116.61 132.76 115.585 132.634C114.56 132.509 113.52 132.587 112.525 132.863C111.53 133.14 110.599 133.609 109.786 134.245C108.972 134.882 108.292 135.672 107.784 136.571C107.276 137.47 106.95 138.46 106.825 139.485L105.137 154.834C107.429 156.158 109.974 156.983 112.607 157.256C115.24 157.529 117.9 157.243 120.415 156.417V156.437Z" fill="#455A64"/>
<path opacity="0.2" d="M120.415 156.437L122.436 141.395C122.561 140.37 122.483 139.33 122.207 138.335C121.93 137.34 121.461 136.409 120.825 135.596C120.188 134.782 119.398 134.102 118.499 133.594C117.6 133.086 116.61 132.76 115.585 132.634C114.56 132.509 113.52 132.587 112.525 132.863C111.53 133.14 110.599 133.609 109.786 134.245C108.972 134.882 108.292 135.672 107.784 136.571C107.276 137.47 106.95 138.46 106.825 139.485L105.137 154.834C107.429 156.158 109.974 156.983 112.607 157.256C115.24 157.529 117.9 157.243 120.415 156.417V156.437Z" fill="white"/>
<path d="M112.299 157.241C109.766 156.93 107.321 156.119 105.105 154.854L104.719 158.392C111.514 163.624 119.846 160.393 119.846 160.393L120.382 156.437C117.776 157.279 115.02 157.553 112.299 157.241Z" fill="#455A64"/>
<path opacity="0.5" d="M112.299 157.241C109.766 156.93 107.321 156.119 105.105 154.854L104.719 158.392C111.514 163.624 119.846 160.393 119.846 160.393L120.382 156.437C117.776 157.279 115.02 157.553 112.299 157.241Z" fill="white"/>
<path d="M289.029 207.822L299.637 208.135L310.245 207.822C310.696 215.016 309.303 222.288 307.374 225.852C306.917 226.767 306.182 227.514 305.274 227.984C302.142 229.796 297.086 229.796 293.973 227.984C293.053 227.504 292.318 226.734 291.88 225.793C289.958 222.21 288.578 214.95 289.029 207.822Z" fill="white"/>
<path d="M292.162 203.479C288.009 205.879 287.983 209.771 292.11 212.171C296.236 214.571 302.953 214.564 307.112 212.171C311.272 209.777 311.291 205.879 307.158 203.479C303.025 201.079 296.315 201.079 292.162 203.479Z" fill="#EBEBEB"/>
<path d="M293.803 204.434C290.533 206.304 290.533 209.339 293.764 211.216C296.995 213.093 302.227 213.086 305.47 211.216C308.714 209.345 308.74 206.304 305.503 204.434C302.266 202.563 297.047 202.563 293.803 204.434Z" fill="#E0E0E0"/>
<g opacity="0.15">
<path opacity="0.15" d="M293.803 204.434C290.533 206.304 290.533 209.339 293.764 211.216C296.995 213.093 302.227 213.086 305.47 211.216C308.714 209.345 308.74 206.304 305.503 204.434C302.266 202.563 297.047 202.563 293.803 204.434Z" fill="black"/>
</g>
<path d="M305.046 186.122C306.772 183.977 308.773 182.054 310.356 179.804C311.435 178.267 312.318 176.384 311.88 174.572C311.629 173.735 311.149 172.985 310.493 172.407C309.838 171.829 309.034 171.446 308.172 171.302C306.43 171.043 304.654 171.439 303.188 172.414C301.736 173.383 300.462 174.596 299.421 175.998C293.446 183.563 290.621 193.143 291.534 202.74C291.556 203.839 291.899 204.908 292.522 205.814C292.903 206.261 293.404 206.589 293.966 206.761C294.528 206.932 295.128 206.94 295.694 206.782C298.584 205.925 298.198 202.021 298.669 199.725C299.319 196.574 300.439 193.538 301.992 190.719C302.871 189.099 303.893 187.561 305.046 186.122Z" fill="#1FB545"/>
<path opacity="0.2" d="M305.046 186.122C306.772 183.977 308.773 182.054 310.356 179.804C311.435 178.267 312.318 176.384 311.88 174.572C311.629 173.735 311.149 172.985 310.493 172.407C309.838 171.829 309.034 171.446 308.172 171.302C306.43 171.043 304.654 171.439 303.188 172.414C301.736 173.383 300.462 174.596 299.421 175.998C293.446 183.563 290.621 193.143 291.534 202.74C291.556 203.839 291.899 204.908 292.522 205.814C292.903 206.261 293.404 206.589 293.966 206.761C294.528 206.932 295.128 206.94 295.694 206.782C298.584 205.925 298.198 202.021 298.669 199.725C299.319 196.574 300.439 193.538 301.992 190.719C302.871 189.099 303.893 187.561 305.046 186.122Z" fill="white"/>
<path d="M295.51 203.852C295.566 203.84 295.617 203.81 295.654 203.766C295.69 203.722 295.711 203.667 295.713 203.61C295.916 198.973 297.427 183.146 308.335 174.18C308.362 174.159 308.384 174.134 308.4 174.105C308.416 174.076 308.426 174.043 308.429 174.01C308.432 173.977 308.428 173.944 308.418 173.912C308.407 173.881 308.39 173.851 308.368 173.827C308.348 173.801 308.322 173.779 308.293 173.763C308.264 173.747 308.233 173.736 308.2 173.733C308.167 173.729 308.134 173.732 308.102 173.741C308.07 173.751 308.04 173.766 308.015 173.787C296.943 182.904 295.412 198.921 295.21 203.61C295.208 203.676 295.232 203.741 295.277 203.79C295.322 203.839 295.385 203.868 295.452 203.871L295.51 203.852Z" fill="#F0F0F0"/>
<path d="M293.921 204.349C294.149 205.364 294.58 206.322 295.188 207.166C295.796 208.01 296.569 208.722 297.459 209.26C299.128 210.055 300.985 210.367 302.822 210.163C304.681 209.943 306.507 209.504 308.263 208.855C309.139 208.561 310.107 208.168 310.225 207.083C310.238 206.799 310.189 206.515 310.082 206.252C309.975 205.989 309.811 205.753 309.604 205.559C309.427 205.384 309.239 205.22 309.041 205.068C308.95 205 308.882 204.906 308.846 204.798C308.81 204.691 308.808 204.574 308.84 204.465C308.872 204.356 308.937 204.26 309.025 204.189C309.114 204.118 309.222 204.075 309.336 204.068C309.856 204.032 310.373 203.967 310.886 203.871C312.088 203.684 313.218 203.175 314.156 202.4C314.836 201.797 315.353 201.032 315.66 200.176C315.921 199.444 316 198.528 315.444 197.985C315.101 197.7 314.683 197.518 314.241 197.462C313.855 197.377 313.462 197.305 313.076 197.246C312.965 197.23 312.862 197.177 312.783 197.097C312.704 197.016 312.654 196.912 312.639 196.8C312.625 196.688 312.648 196.574 312.705 196.477C312.761 196.379 312.848 196.303 312.952 196.259L314.6 195.572C315.074 195.418 315.503 195.151 315.849 194.794C316.063 194.462 316.201 194.088 316.255 193.697C316.31 193.306 316.278 192.908 316.163 192.531C315.961 191.498 315.607 190.504 315.365 189.483C315.073 188.478 315.026 187.417 315.228 186.39C312.144 186.047 309.024 186.255 306.013 187.005C305.107 187.193 304.25 187.567 303.495 188.103C302.469 188.928 302.187 190.157 302.312 191.498C302.316 191.552 302.301 191.606 302.27 191.651C302.238 191.695 302.193 191.728 302.14 191.742C302.088 191.757 302.032 191.753 301.982 191.731C301.932 191.709 301.892 191.671 301.867 191.622L300.84 189.66C300.686 189.38 300.431 189.17 300.127 189.073C299.823 188.976 299.493 188.999 299.205 189.137C298.282 189.599 297.464 190.244 296.798 191.033C296.431 191.451 296.15 191.938 295.974 192.466C295.797 192.994 295.729 193.552 295.772 194.107C295.898 195.632 296.154 197.144 296.537 198.626C296.562 198.711 296.559 198.801 296.53 198.884C296.5 198.966 296.444 199.038 296.371 199.087C296.298 199.136 296.211 199.16 296.123 199.156C296.036 199.152 295.951 199.12 295.883 199.065H295.837C295.554 198.846 295.199 198.743 294.843 198.777C293.914 198.888 293.679 199.83 293.613 200.634C293.567 201.88 293.67 203.127 293.921 204.349Z" fill="#1FB545"/>
<path opacity="0.2" d="M293.921 204.349C294.149 205.364 294.58 206.322 295.188 207.166C295.796 208.01 296.569 208.722 297.459 209.26C299.128 210.055 300.985 210.367 302.822 210.163C304.681 209.943 306.507 209.504 308.263 208.855C309.139 208.561 310.107 208.168 310.225 207.083C310.238 206.799 310.189 206.515 310.082 206.252C309.975 205.989 309.811 205.753 309.604 205.559C309.427 205.384 309.239 205.22 309.041 205.068C308.95 205 308.882 204.906 308.846 204.798C308.81 204.691 308.808 204.574 308.84 204.465C308.872 204.356 308.937 204.26 309.025 204.189C309.114 204.118 309.222 204.075 309.336 204.068C309.856 204.032 310.373 203.967 310.886 203.871C312.088 203.684 313.218 203.175 314.156 202.4C314.836 201.797 315.353 201.032 315.66 200.176C315.921 199.444 316 198.528 315.444 197.985C315.101 197.7 314.683 197.518 314.241 197.462C313.855 197.377 313.462 197.305 313.076 197.246C312.965 197.23 312.862 197.177 312.783 197.097C312.704 197.016 312.654 196.912 312.639 196.8C312.625 196.688 312.648 196.574 312.705 196.477C312.761 196.379 312.848 196.303 312.952 196.259L314.6 195.572C315.074 195.418 315.503 195.151 315.849 194.794C316.063 194.462 316.201 194.088 316.255 193.697C316.31 193.306 316.278 192.908 316.163 192.531C315.961 191.498 315.607 190.504 315.365 189.483C315.073 188.478 315.026 187.417 315.228 186.39C312.144 186.047 309.024 186.255 306.013 187.005C305.107 187.193 304.25 187.567 303.495 188.103C302.469 188.928 302.187 190.157 302.312 191.498C302.316 191.552 302.301 191.606 302.27 191.651C302.238 191.695 302.193 191.728 302.14 191.742C302.088 191.757 302.032 191.753 301.982 191.731C301.932 191.709 301.892 191.671 301.867 191.622L300.84 189.66C300.686 189.38 300.431 189.17 300.127 189.073C299.823 188.976 299.493 188.999 299.205 189.137C298.282 189.599 297.464 190.244 296.798 191.033C296.431 191.451 296.15 191.938 295.974 192.466C295.797 192.994 295.729 193.552 295.772 194.107C295.898 195.632 296.154 197.144 296.537 198.626C296.562 198.711 296.559 198.801 296.53 198.884C296.5 198.966 296.444 199.038 296.371 199.087C296.298 199.136 296.211 199.16 296.123 199.156C296.036 199.152 295.951 199.12 295.883 199.065H295.837C295.554 198.846 295.199 198.743 294.843 198.777C293.914 198.888 293.679 199.83 293.613 200.634C293.567 201.88 293.67 203.127 293.921 204.349Z" fill="black"/>
<path opacity="0.2" d="M293.921 204.349C294.149 205.364 294.58 206.322 295.188 207.166C295.796 208.01 296.569 208.722 297.459 209.26C299.128 210.055 300.985 210.367 302.822 210.163C304.681 209.943 306.507 209.504 308.263 208.855C309.139 208.561 310.107 208.168 310.225 207.083C310.238 206.799 310.189 206.515 310.082 206.252C309.975 205.989 309.811 205.753 309.604 205.559C309.427 205.384 309.239 205.22 309.041 205.068C308.95 205 308.882 204.906 308.846 204.798C308.81 204.691 308.808 204.574 308.84 204.465C308.872 204.356 308.937 204.26 309.025 204.189C309.114 204.118 309.222 204.075 309.336 204.068C309.856 204.032 310.373 203.967 310.886 203.871C312.088 203.684 313.218 203.175 314.156 202.4C314.836 201.797 315.353 201.032 315.66 200.176C315.921 199.444 316 198.528 315.444 197.985C315.101 197.7 314.683 197.518 314.241 197.462C313.855 197.377 313.462 197.305 313.076 197.246C312.965 197.23 312.862 197.177 312.783 197.097C312.704 197.016 312.654 196.912 312.639 196.8C312.625 196.688 312.648 196.574 312.705 196.477C312.761 196.379 312.848 196.303 312.952 196.259L314.6 195.572C315.074 195.418 315.503 195.151 315.849 194.794C316.063 194.462 316.201 194.088 316.255 193.697C316.31 193.306 316.278 192.908 316.163 192.531C315.961 191.498 315.607 190.504 315.365 189.483C315.073 188.478 315.026 187.417 315.228 186.39C312.144 186.047 309.024 186.255 306.013 187.005C305.107 187.193 304.25 187.567 303.495 188.103C302.469 188.928 302.187 190.157 302.312 191.498C302.316 191.552 302.301 191.606 302.27 191.651C302.238 191.695 302.193 191.728 302.14 191.742C302.088 191.757 302.032 191.753 301.982 191.731C301.932 191.709 301.892 191.671 301.867 191.622L300.84 189.66C300.686 189.38 300.431 189.17 300.127 189.073C299.823 188.976 299.493 188.999 299.205 189.137C298.282 189.599 297.464 190.244 296.798 191.033C296.431 191.451 296.15 191.938 295.974 192.466C295.797 192.994 295.729 193.552 295.772 194.107C295.898 195.632 296.154 197.144 296.537 198.626C296.562 198.711 296.559 198.801 296.53 198.884C296.5 198.966 296.444 199.038 296.371 199.087C296.298 199.136 296.211 199.16 296.123 199.156C296.036 199.152 295.951 199.12 295.883 199.065H295.837C295.554 198.846 295.199 198.743 294.843 198.777C293.914 198.888 293.679 199.83 293.613 200.634C293.567 201.88 293.67 203.127 293.921 204.349Z" fill="white"/>
<path d="M298.806 209.012C299.384 206.535 300.215 204.125 301.285 201.818C301.286 201.782 301.294 201.747 301.308 201.715C301.323 201.682 301.344 201.653 301.37 201.628L301.546 201.255C301.244 198.384 300.41 195.594 299.087 193.028C299.056 192.97 299.047 192.901 299.064 192.837C299.081 192.772 299.122 192.717 299.179 192.682C299.238 192.649 299.308 192.641 299.373 192.659C299.438 192.677 299.493 192.721 299.526 192.78C300.765 195.17 301.584 197.756 301.945 200.425C304.045 196.213 307.393 191.269 312.56 187.698C312.615 187.66 312.684 187.646 312.75 187.658C312.816 187.67 312.875 187.708 312.913 187.763C312.932 187.79 312.945 187.821 312.951 187.853C312.958 187.885 312.958 187.918 312.952 187.95C312.946 187.983 312.934 188.013 312.916 188.041C312.898 188.068 312.875 188.092 312.848 188.11C307.517 191.825 304.156 196.965 302.115 201.229C304.865 199.987 307.917 199.574 310.899 200.039C310.965 200.053 311.023 200.093 311.061 200.149C311.098 200.205 311.113 200.273 311.101 200.34C311.091 200.389 311.067 200.435 311.031 200.47C310.994 200.505 310.948 200.528 310.899 200.536H310.801C310.755 200.536 305.935 199.653 301.762 201.981C300.7 204.265 299.876 206.651 299.303 209.103C299.292 209.152 299.266 209.197 299.231 209.231C299.195 209.266 299.149 209.29 299.1 209.3H299.002C298.938 209.287 298.882 209.25 298.845 209.196C298.809 209.142 298.795 209.076 298.806 209.012Z" fill="#F0F0F0"/>
<path d="M57.1141 229.495L45.0413 229.848L32.975 229.495C32.4518 237.644 34.0475 245.95 36.245 250.011C36.7635 251.056 37.6021 251.908 38.6386 252.444C42.1964 254.504 47.9516 254.504 51.4897 252.444C52.54 251.901 53.3798 251.025 53.8768 249.952C56.0546 245.865 57.6308 237.605 57.1141 229.495Z" fill="white"/>
<path d="M53.5497 224.551C58.2781 227.285 58.3043 231.706 53.6085 234.439C48.9128 237.173 41.2676 237.167 36.5391 234.439C31.8107 231.712 31.7846 227.285 36.4803 224.551C41.176 221.817 48.8213 221.824 53.5497 224.551Z" fill="#EBEBEB"/>
<path d="M51.6664 225.63C55.355 227.762 55.3746 231.215 51.7122 233.347C48.0498 235.479 42.0853 235.473 38.3967 233.347C34.7082 231.222 34.6886 227.762 38.351 225.63C42.0134 223.498 47.9909 223.511 51.6664 225.63Z" fill="#E0E0E0"/>
<g opacity="0.15">
<path opacity="0.15" d="M51.6664 225.63C55.355 227.762 55.3746 231.215 51.7122 233.347C48.0498 235.479 42.0853 235.473 38.3967 233.347C34.7082 231.222 34.6886 227.762 38.351 225.63C42.0134 223.498 47.9909 223.511 51.6664 225.63Z" fill="black"/>
</g>
<path d="M64.89 177.993C37.6902 186.9 37.422 205.094 43.5762 218.05C45.1196 220.666 49.8023 222.085 53.8701 205.971L46.7284 206.886L55.0539 202.662L57.2186 196.2L50.2731 196.717L59.089 193.009C60.7104 187.888 62.6478 182.873 64.89 177.993Z" fill="#1FB545"/>
<path opacity="0.2" d="M64.89 177.993C37.6902 186.9 37.422 205.094 43.5762 218.05C45.1196 220.666 49.8023 222.085 53.8701 205.971L46.7284 206.886L55.0539 202.662L57.2186 196.2L50.2731 196.717L59.089 193.009C60.7104 187.888 62.6478 182.873 64.89 177.993Z" fill="black"/>
<path opacity="0.2" d="M64.89 177.993C37.6902 186.9 37.422 205.094 43.5762 218.05C45.1196 220.666 49.8023 222.085 53.8701 205.971L46.7284 206.886L55.0539 202.662L57.2186 196.2L50.2731 196.717L59.089 193.009C60.7104 187.888 62.6478 182.873 64.89 177.993Z" fill="white"/>
<path d="M57.1925 182.544C42.8503 193.427 41.5554 205.912 45.6102 218.94C44.1779 207.468 42.6279 195.866 57.1925 182.544Z" fill="white"/>
<path d="M18.8223 196.475C45.6363 200.248 48.9063 217.154 45.3223 230.241C44.3217 232.942 40.195 235.035 33.7269 220.699L40.5481 220.398L32.0461 217.821L28.9593 212.158L35.4993 211.504L26.6768 209.542C24.3273 205.03 21.7043 200.666 18.8223 196.475Z" fill="#1FB545"/>
<path opacity="0.2" d="M18.8223 196.475C45.6363 200.248 48.9063 217.154 45.3223 230.241C44.3217 232.942 40.195 235.035 33.7269 220.699L40.5481 220.398L32.0461 217.821L28.9593 212.158L35.4993 211.504L26.6768 209.542C24.3273 205.03 21.7043 200.666 18.8223 196.475Z" fill="white"/>
<path opacity="0.1" d="M18.8223 196.475C45.6363 200.248 48.9063 217.154 45.3223 230.241C44.3217 232.942 40.195 235.035 33.7269 220.699L40.5481 220.398L32.0461 217.821L28.9593 212.158L35.4993 211.504L26.6768 209.542C24.3273 205.03 21.7043 200.666 18.8223 196.475Z" fill="black"/>
<path d="M26.7422 199.47C41.9084 207.226 45.185 218.632 43.5761 231.437C43.0072 220.483 42.5101 209.424 26.7422 199.47Z" fill="white"/>
<path d="M72.7318 202.812C48.148 203.211 43.3018 218.083 45.0676 230.28C45.6693 232.824 49.1551 235.172 56.5911 222.975L50.4893 221.915L58.3961 220.562L61.8166 215.82L55.9829 214.479L64.1579 213.675C66.7901 209.881 69.6535 206.253 72.7318 202.812Z" fill="#1FB545"/>
<path d="M65.2629 204.591C50.7245 209.882 46.4931 219.803 46.5128 231.523C48.2459 221.745 49.9201 211.831 65.2629 204.591Z" fill="white"/>
<path opacity="0.2" d="M72.7318 202.812C48.148 203.211 43.3018 218.083 45.0676 230.28C45.6693 232.824 49.1551 235.172 56.5911 222.975L50.4893 221.915L58.3961 220.562L61.8166 215.82L55.9829 214.479L64.1579 213.675C66.7901 209.881 69.6535 206.253 72.7318 202.812Z" fill="white"/>
<path d="M214.512 178.241C208.057 182.728 200.778 185.828 195.395 191.838C185.33 203.061 185.095 221.124 193.002 233.962C200.908 246.8 215.617 254.511 230.594 256.277C246.29 258.134 262.79 253.791 275.118 243.851C287.446 233.91 295.287 218.443 295.281 202.649C295.274 186.855 287.171 171.073 273.921 162.428C261.829 154.58 244.458 152.297 232.327 161.316C226.199 165.894 222.105 172.61 215.977 177.188C215.532 177.542 215.035 177.888 214.512 178.241Z" fill="#1FB545"/>
<path opacity="0.2" d="M214.512 178.241C208.057 182.728 200.778 185.828 195.395 191.838C185.33 203.061 185.095 221.124 193.002 233.962C200.908 246.8 215.617 254.511 230.594 256.277C246.29 258.134 262.79 253.791 275.118 243.851C287.446 233.91 295.287 218.443 295.281 202.649C295.274 186.855 287.171 171.073 273.921 162.428C261.829 154.58 244.458 152.297 232.327 161.316C226.199 165.894 222.105 172.61 215.977 177.188C215.532 177.542 215.035 177.888 214.512 178.241Z" fill="black"/>
<path opacity="0.1" d="M214.512 178.241C208.057 182.728 200.778 185.828 195.395 191.838C185.33 203.061 185.095 221.124 193.002 233.962C200.908 246.8 215.617 254.511 230.594 256.277C246.29 258.134 262.79 253.791 275.118 243.851C287.446 233.91 295.287 218.443 295.281 202.649C295.274 186.855 287.171 171.073 273.921 162.428C261.829 154.58 244.458 152.297 232.327 161.316C226.199 165.894 222.105 172.61 215.977 177.188C215.532 177.542 215.035 177.888 214.512 178.241Z" fill="white"/>
<path opacity="0.1" d="M217.167 244.014C217.167 243.903 217.2 243.798 217.213 243.693C217.752 240.197 219.367 236.957 221.835 234.422C224.303 231.888 227.499 230.186 230.979 229.554C237.219 228.366 243.198 226.078 248.637 222.798C252.49 220.47 256.132 217.612 260.455 216.35C264.663 215.142 269.156 215.403 273.195 217.089C269.559 213.276 263.333 211.595 258.356 213.322C261.796 208.044 264.831 202.367 266.021 196.18C267.211 189.994 266.361 183.198 262.633 178.123C261.046 175.953 258.996 174.163 256.633 172.88C254.27 171.598 251.651 170.856 248.967 170.709C246.282 170.561 243.598 171.011 241.109 172.027C238.619 173.042 236.386 174.597 234.57 176.58C230.875 180.622 228.795 186.311 226.369 191.216C224.623 194.742 222.824 198.352 219.946 201.026C215.617 205.081 209.378 206.54 204.904 210.418C199.81 214.819 197.612 221.85 197.593 228.58C197.671 233.12 198.331 237.633 199.555 242.006C204.822 247.036 211.106 250.879 217.984 253.275C216.987 250.295 216.707 247.122 217.167 244.014Z" fill="black"/>
<path d="M286.877 200.471C286.672 189.548 282.602 179.052 275.39 170.847C268.179 162.641 258.292 157.257 247.486 155.652C245.987 155.801 244.499 156.05 243.032 156.398C254.397 157.001 265.112 161.886 273.019 170.071C280.927 178.255 285.441 189.131 285.654 200.51C285.948 215.231 278.741 230.241 266.387 240.652C256.708 248.814 243.85 254.23 229.71 256.172C230.011 256.218 230.319 256.257 230.62 256.29C231.888 256.44 233.164 256.545 234.445 256.617C247.002 254.177 258.375 249.004 267.145 241.575C279.807 230.921 287.171 215.558 286.877 200.471Z" fill="white"/>
<path d="M211.464 254.838L213.086 258.049C215.368 255.93 215.787 254.223 215.787 254.223C215.048 251.607 214.185 248.945 213.753 247.65C213.537 249.455 212.308 251.005 211.791 252.764C211.601 253.44 211.491 254.136 211.464 254.838Z" fill="#37474F"/>
<path d="M211.543 258.127L213.086 258.049L211.464 254.838C211.418 255.923 211.51 257.022 211.543 258.127Z" fill="#263238"/>
<path d="M212.72 243.863C212.16 243.053 211.518 242.304 210.804 241.627C211.195 243.029 211.184 244.514 210.771 245.91C210.293 247.768 209.424 249.514 208.985 251.384C208.456 253.66 208.58 256.106 207.612 258.238C207.133 259.273 206.42 260.182 205.529 260.892C204.638 261.603 203.593 262.096 202.478 262.332C201.656 262.561 200.777 262.455 200.032 262.038C199.72 261.816 199.49 261.496 199.378 261.129C198.893 262.143 198.304 263.103 197.619 263.994C196.86 264.975 195.912 266.06 196.121 267.264C196.245 267.766 196.514 268.221 196.896 268.57C197.278 268.919 197.755 269.147 198.266 269.226C199.291 269.369 200.334 269.282 201.321 268.97C203.488 268.502 205.558 267.659 207.435 266.479C209.328 265.27 210.711 263.408 211.32 261.247C211.543 260.205 211.622 259.138 211.556 258.075C211.556 256.976 211.431 255.871 211.477 254.805C211.502 254.104 211.61 253.408 211.798 252.732C212.321 250.972 213.55 249.422 213.76 247.617C213.76 247.519 213.792 247.428 213.799 247.33C213.813 246.089 213.436 244.876 212.72 243.863Z" fill="#455A64"/>
<path opacity="0.1" d="M212.72 243.863C212.16 243.053 211.518 242.304 210.804 241.627C211.195 243.029 211.184 244.514 210.771 245.91C210.293 247.768 209.424 249.514 208.985 251.384C208.456 253.66 208.58 256.106 207.612 258.238C207.133 259.273 206.42 260.182 205.529 260.892C204.638 261.603 203.593 262.096 202.478 262.332C201.656 262.561 200.777 262.455 200.032 262.038C199.72 261.816 199.49 261.496 199.378 261.129C198.893 262.143 198.304 263.103 197.619 263.994C196.86 264.975 195.912 266.06 196.121 267.264C196.245 267.766 196.514 268.221 196.896 268.57C197.278 268.919 197.755 269.147 198.266 269.226C199.291 269.369 200.334 269.282 201.321 268.97C203.488 268.502 205.558 267.659 207.435 266.479C209.328 265.27 210.711 263.408 211.32 261.247C211.543 260.205 211.622 259.138 211.556 258.075C211.556 256.976 211.431 255.871 211.477 254.805C211.502 254.104 211.61 253.408 211.798 252.732C212.321 250.972 213.55 249.422 213.76 247.617C213.76 247.519 213.792 247.428 213.799 247.33C213.813 246.089 213.436 244.876 212.72 243.863Z" fill="black"/>
<path d="M202.478 262.332C203.593 262.096 204.638 261.603 205.529 260.892C206.42 260.182 207.134 259.273 207.612 258.238C208.58 256.106 208.456 253.66 208.986 251.384C209.424 249.514 210.294 247.768 210.771 245.911C211.184 244.514 211.195 243.029 210.804 241.627C210.621 241.444 210.437 241.261 210.248 241.084C207.488 242.51 204.362 243.7 201.844 245.518C201.898 248.738 201.692 251.958 201.229 255.145C200.887 257.216 200.26 259.23 199.365 261.129C199.477 261.496 199.707 261.816 200.019 262.038C200.39 262.247 200.797 262.38 201.219 262.43C201.641 262.481 202.069 262.448 202.478 262.332Z" fill="#AB6160"/>
<path d="M193.106 253.844C192.655 256.505 190.614 261.927 190.614 261.927C190.614 261.927 200.169 262.313 200.385 261.875L203.191 257.532L193.106 253.844Z" fill="#C48281"/>
<path d="M221.706 190.484L197.344 204.048C195.134 205.279 193.367 207.173 192.291 209.462C191.215 211.751 190.885 214.321 191.347 216.808L196.075 242.314L192.197 254.642C195.546 259.128 203.23 259.357 203.23 259.357C207.52 250.757 210.666 247.107 213.099 239.9C215.532 232.693 217.16 227.723 217.16 227.723L237.434 222.19C242.065 220.931 246.212 218.312 249.34 214.673C252.468 211.033 254.433 206.54 254.981 201.772C255.328 198.711 255.341 196.625 255.341 196.625L221.706 190.484Z" fill="#455A64"/>
<path opacity="0.2" d="M220.07 198.509C220.074 201.23 221.04 203.861 222.798 205.938L207.435 215.532C204.909 217.112 203.037 219.55 202.164 222.399L196.075 242.314L201.569 220.137C202.201 217.586 203.806 215.383 206.042 214.002L220.09 205.356C218.468 201.301 220.07 198.509 220.07 198.509Z" fill="black"/>
<path d="M195.801 274.287L196.023 277.871C198.96 276.825 200.013 275.419 200.013 275.419C200.359 272.718 200.614 269.932 200.732 268.572C199.816 270.148 198.077 271.089 196.906 272.496C196.464 273.044 196.092 273.646 195.801 274.287Z" fill="#37474F"/>
<path d="M194.578 277.335L196.023 277.872L195.801 274.288C195.33 275.262 194.977 276.315 194.578 277.335Z" fill="#263238"/>
<path d="M201.262 264.68C201.066 263.717 200.772 262.777 200.385 261.875C200.192 263.317 199.599 264.676 198.672 265.799C197.501 267.316 196.01 268.578 194.879 270.121C193.492 272.012 192.642 274.307 190.922 275.883C190.074 276.647 189.06 277.203 187.96 277.508C186.86 277.812 185.705 277.856 184.585 277.636C183.741 277.52 182.977 277.076 182.459 276.4C182.253 276.073 182.161 275.686 182.198 275.301C181.354 276.048 180.436 276.705 179.457 277.263C178.372 277.871 177.07 278.493 176.782 279.703C176.705 280.208 176.778 280.726 176.992 281.191C177.206 281.656 177.551 282.048 177.986 282.319C178.869 282.854 179.862 283.185 180.89 283.286C183.068 283.709 185.304 283.746 187.495 283.398C189.704 283.035 191.702 281.871 193.106 280.128C193.723 279.257 194.218 278.307 194.578 277.302C194.977 276.282 195.33 275.229 195.801 274.255C196.093 273.616 196.464 273.016 196.906 272.469C198.077 271.057 199.816 270.115 200.732 268.545C200.778 268.467 200.837 268.388 200.882 268.297C201.387 267.161 201.52 265.896 201.262 264.68Z" fill="#455A64"/>
<path d="M184.585 277.643C185.704 277.863 186.86 277.819 187.96 277.514C189.06 277.21 190.074 276.654 190.922 275.89C192.642 274.314 193.492 272.018 194.878 270.128C196.01 268.585 197.494 267.323 198.672 265.805C199.599 264.683 200.192 263.324 200.385 261.881L200.091 261.162C196.991 261.391 193.642 261.24 190.614 261.934C189.401 264.916 187.946 267.794 186.265 270.54C185.14 272.314 183.77 273.922 182.197 275.314C182.161 275.7 182.253 276.086 182.459 276.413C182.978 277.087 183.742 277.529 184.585 277.643Z" fill="#C48281"/>
<path d="M246.715 154.468C250.685 145.239 250.919 134.829 247.369 125.431C246.231 122.462 244.622 119.545 241.986 117.733C238.612 115.457 234.249 115.49 230.181 115.608C228.023 115.673 225.819 115.738 223.792 116.484C222.782 116.827 221.87 117.411 221.135 118.184C220.4 118.958 219.864 119.898 219.574 120.925C216.912 120.434 214.23 122.533 213.511 125.143C212.792 127.752 213.733 130.591 215.388 132.736C217.043 134.881 219.312 136.418 221.64 137.824C220.241 138.556 219.207 140.244 218.723 141.748C218.239 143.259 218.354 144.898 219.044 146.326C217.79 146.339 216.571 146.735 215.55 147.463C214.529 148.19 213.756 149.213 213.334 150.394C212.994 151.576 212.942 152.822 213.182 154.028C213.422 155.234 213.948 156.365 214.714 157.326C216.276 159.244 218.428 160.592 220.836 161.159C223.231 161.718 225.706 161.851 228.148 161.551C230.672 163.997 235.296 163.945 238.468 162.427C241.64 160.91 245.308 157.686 246.715 154.468Z" fill="#263238"/>
<path d="M224.119 148.327H223.498C219.345 148.373 214.087 151.205 211.517 158.451L201.537 177.783L212.929 182.832L219.162 164.586L224.119 148.327Z" fill="#C48281"/>
<path d="M216.114 161.159C215.323 163.441 215.27 165.9 215.146 168.353C215.022 170.805 214.74 173.676 213.635 175.828C212.417 174.984 210.959 174.558 209.478 174.612C207.997 174.666 206.574 175.198 205.421 176.129C204.592 176.828 203.957 177.729 203.577 178.745L212.929 182.891L219.161 164.644L222.229 154.586C220.826 155.223 219.563 156.133 218.514 157.261C217.464 158.389 216.649 159.714 216.114 161.159Z" fill="#AB6160"/>
<path d="M213.034 179.353C212.602 178.276 211.902 177.328 211 176.598C210.098 175.869 209.023 175.383 207.88 175.187C205.598 174.814 203.014 176.011 201.536 177.803C200.294 179.301 200.49 181.335 201.275 183.12C201.931 184.506 203.046 185.621 204.432 186.277C205.817 186.933 207.387 187.088 208.874 186.717C211.817 185.886 214.145 182.198 213.034 179.353Z" fill="#C48281"/>
<path d="M225.165 147.974C220.771 148.674 218.043 159.792 216.618 164.017C215.14 168.379 217.147 171.544 219.384 174.18C219.788 174.659 220.088 175.217 220.265 175.818C220.442 176.419 220.492 177.051 220.411 177.672L215.82 194.853C228.442 204.225 249.605 199.686 255.348 196.625C255.414 190.623 254.148 184.682 251.639 179.229C249.949 175.707 248.996 171.877 248.84 167.973L248.624 161.669L250.148 150.786L239.187 148.17L229.528 147.739C228.07 147.734 226.614 147.813 225.165 147.974Z" fill="#1FB545"/>
<path opacity="0.4" d="M225.165 147.974C220.771 148.674 218.043 159.792 216.618 164.017C215.14 168.379 217.147 171.544 219.384 174.18C219.788 174.659 220.088 175.217 220.265 175.818C220.442 176.419 220.492 177.051 220.411 177.672L215.82 194.853C228.442 204.225 249.605 199.686 255.348 196.625C255.414 190.623 254.148 184.682 251.639 179.229C249.949 175.707 248.996 171.877 248.84 167.973L248.624 161.669L250.148 150.786L239.187 148.17L229.528 147.739C228.07 147.734 226.614 147.813 225.165 147.974Z" fill="black"/>
<path d="M225.067 197.613C225.067 197.613 225.067 197.613 225.067 197.573C225.067 197.534 225.067 197.534 225.067 197.495V197.456V197.423V197.384L217.612 183.499V183.46V183.421V183.382L217.579 183.336V183.29C217.546 183.244 217.546 183.244 217.514 183.199L217.474 183.159L217.442 183.113V183.081V183.048V183.015L217.33 182.917H217.291H217.258H217.219H217.173L217.128 182.885H217.075L207.318 177.064H207.265H207.22H207.167H207.121H207.076H207.03H206.991H206.945H206.893H206.847H206.794H206.664C206.615 177.065 206.569 177.084 206.533 177.116L205.513 178.287H205.545C205.46 178.352 205.454 178.49 205.578 178.719L213.034 192.603C213.451 193.246 214.016 193.78 214.682 194.16L223.256 198.986C223.694 199.235 223.962 199.241 224.001 199.058C224.001 199.058 224.001 199.123 224.001 199.136L225.028 197.966C225.032 197.949 225.032 197.931 225.028 197.913C225.031 197.898 225.031 197.883 225.028 197.868L225.067 197.613ZM205.735 178.045C205.735 178.045 205.735 178.045 205.794 178.045H205.827H205.735ZM215.545 183.584C215.623 183.65 215.709 183.715 215.78 183.787C215.728 183.715 215.643 183.65 215.565 183.584H215.545ZM216.081 184.108L216.186 184.219L216.081 184.108ZM224.04 198.816C224.029 198.717 223.997 198.622 223.949 198.535C223.994 198.614 224.024 198.7 224.04 198.79C224.04 198.79 224.034 198.777 224.04 198.816Z" fill="#455A64"/>
<path opacity="0.15" d="M225.067 197.613C225.067 197.613 225.067 197.613 225.067 197.573C225.067 197.534 225.067 197.534 225.067 197.495V197.456V197.423V197.384L217.612 183.499L216.474 184.624L223.936 198.509C223.98 198.588 224.011 198.674 224.027 198.764C224.035 198.79 224.036 198.819 224.031 198.846C224.025 198.874 224.013 198.899 223.995 198.921L225.021 197.75C225.025 197.733 225.025 197.715 225.021 197.698C225.025 197.683 225.025 197.667 225.021 197.652L225.067 197.613Z" fill="white"/>
<path opacity="0.2" d="M217.487 183.414V183.375V183.336L217.455 183.29V183.244C217.422 183.198 217.422 183.198 217.389 183.153L217.35 183.113L217.317 183.068V183.035V183.002V182.97L217.206 182.871H217.167H217.134H217.095H217.049L217.003 182.839H216.951L207.318 177.064H207.265H207.22H207.167H207.122H207.076H207.03H206.991H206.945H206.893H206.847H206.795H206.664C206.615 177.065 206.569 177.084 206.533 177.116L205.513 178.287C205.561 178.235 205.646 178.222 205.768 178.248C205.933 178.291 206.092 178.357 206.239 178.444L214.813 183.27C214.985 183.363 215.149 183.47 215.303 183.591C215.468 183.717 215.625 183.852 215.774 183.996C215.919 184.13 216.055 184.275 216.179 184.428C216.286 184.554 216.38 184.69 216.461 184.833L217.487 183.663V183.414Z" fill="white"/>
<path d="M254.353 154.422C253.137 152.336 251.541 150.734 249.121 150.551C249.121 150.551 245.197 152.591 245.197 161.852L245.459 185.023C244.89 185.252 244.321 185.494 243.759 185.729C238.975 187.786 233.976 189.298 228.854 190.236C226.183 188.114 222.859 186.986 219.449 187.044L220.712 189.398C218.318 190.935 212.903 188.169 212.903 188.169C212.504 191.544 214.695 195.049 217.599 196.821C220.502 198.594 248.193 195.991 254.066 192.191C257.931 189.693 257.015 165.802 257.015 165.802C257.282 161.828 256.355 157.866 254.353 154.422Z" fill="#C48281"/>
<path d="M207.05 181.158C206.865 182.069 206.76 182.995 206.736 183.924C206.95 186.139 207.888 188.221 209.404 189.85C209.718 190.207 210.113 190.485 210.555 190.661C210.772 190.745 211.008 190.771 211.238 190.734C211.468 190.697 211.684 190.599 211.863 190.451C212.188 190.062 212.354 189.565 212.328 189.058C212.401 188.309 212.359 187.552 212.203 186.815C212.05 186.07 211.629 185.407 211.02 184.951C210.549 184.673 210.046 184.453 209.522 184.297C209.019 184.077 208.572 183.746 208.214 183.329L207.05 181.158Z" fill="#C48281"/>
<path d="M229.495 143.442V152.192C228.638 153.003 227.814 153.932 227.735 155.09C227.721 155.644 227.859 156.191 228.134 156.672C228.41 157.153 228.813 157.549 229.298 157.817C230.288 158.34 231.444 158.453 232.516 158.131C233.577 157.804 234.55 157.24 235.361 156.483C236.512 155.419 237.441 154.137 238.092 152.711C238.743 151.285 239.104 149.744 239.154 148.177V139.302L229.495 143.442Z" fill="#C48281"/>
<path d="M238.782 139.302C237.866 144.115 235.989 148.288 229.495 149.766V143.409L238.782 139.302Z" fill="#AB6160"/>
<path d="M236.512 134.24C236.417 135.011 236.417 135.791 236.512 136.562C236.618 137.144 236.91 137.676 237.343 138.079C237.553 138.27 237.808 138.407 238.084 138.477C238.36 138.546 238.649 138.547 238.925 138.478C238.742 137.72 238.859 136.92 239.251 136.245C239.643 135.571 240.281 135.074 241.031 134.858C241.781 134.642 242.585 134.724 243.276 135.086C243.967 135.449 244.491 136.064 244.739 136.804C244.893 137.337 244.928 137.898 244.841 138.446C244.754 138.994 244.547 139.516 244.236 139.976C243.604 140.891 242.769 141.648 241.796 142.186C241.236 142.399 240.618 142.409 240.052 142.213C239.485 142.016 239.005 141.628 238.696 141.114C235.904 144.966 230.888 147.974 226.068 147.765C224.748 147.749 223.461 147.354 222.359 146.627C220.489 145.319 220.267 143.18 219.953 141.088C219.501 138.448 219.41 135.759 219.685 133.096C220.123 129.42 221.601 125.758 224.341 123.286C226.283 131.147 233.7 133.769 236.512 134.24Z" fill="#C48281"/>
<path d="M226.467 133.743L223.341 137.935L226.447 138.864L226.467 133.743Z" fill="#AB6160"/>
<path d="M229.338 140.728L226.807 141.643C226.986 141.937 227.255 142.165 227.575 142.292C227.895 142.419 228.247 142.44 228.579 142.35C228.872 142.207 229.107 141.968 229.245 141.673C229.383 141.378 229.416 141.044 229.338 140.728Z" fill="#AB6160"/>
<path opacity="0.3" d="M229.338 140.728L226.807 141.643C226.986 141.937 227.255 142.165 227.575 142.292C227.895 142.419 228.247 142.44 228.579 142.35C228.872 142.207 229.107 141.968 229.245 141.673C229.383 141.378 229.416 141.044 229.338 140.728Z" fill="black"/>
<path d="M227.736 142.343C228.011 142.425 228.304 142.425 228.58 142.343C228.81 142.24 229.006 142.071 229.143 141.859C229.279 141.647 229.352 141.399 229.351 141.146C228.981 141.1 228.607 141.198 228.306 141.42C228.006 141.641 227.802 141.969 227.736 142.337V142.343Z" fill="#AB6160"/>
<path d="M231.031 134.404C231.031 134.585 230.978 134.762 230.877 134.913C230.776 135.064 230.632 135.181 230.465 135.25C230.297 135.319 230.113 135.337 229.935 135.301C229.757 135.265 229.594 135.177 229.466 135.049C229.338 134.92 229.252 134.756 229.217 134.578C229.182 134.4 229.201 134.216 229.272 134.049C229.342 133.882 229.46 133.739 229.612 133.639C229.763 133.539 229.941 133.487 230.122 133.488C230.242 133.488 230.361 133.512 230.472 133.558C230.582 133.604 230.683 133.672 230.767 133.757C230.852 133.842 230.919 133.943 230.964 134.054C231.009 134.165 231.032 134.284 231.031 134.404Z" fill="#263238"/>
<path d="M223.36 134.07C223.357 134.312 223.258 134.544 223.086 134.714C222.913 134.884 222.68 134.979 222.438 134.979C222.195 134.979 221.962 134.883 221.791 134.711C221.619 134.539 221.522 134.306 221.522 134.064C221.522 133.821 221.619 133.588 221.791 133.416C221.962 133.244 222.195 133.148 222.438 133.148C222.559 133.148 222.679 133.172 222.791 133.218C222.903 133.264 223.004 133.332 223.09 133.418C223.176 133.504 223.244 133.605 223.29 133.717C223.336 133.829 223.36 133.949 223.36 134.07Z" fill="#263238"/>
<path d="M222.484 130.434L220.45 131.827C220.364 131.575 220.357 131.303 220.429 131.047C220.502 130.791 220.651 130.564 220.856 130.395C221.104 130.249 221.388 130.175 221.676 130.182C221.963 130.189 222.243 130.276 222.484 130.434Z" fill="#263238"/>
<path d="M230.312 130.355L232.333 131.768C232.423 131.517 232.434 131.245 232.365 130.988C232.296 130.731 232.151 130.501 231.947 130.329C231.7 130.181 231.415 130.104 231.126 130.109C230.837 130.114 230.556 130.199 230.312 130.355Z" fill="#263238"/>
</svg>
