<svg width="266" height="266" viewBox="0 0 266 266" fill="none" xmlns="http://www.w3.org/2000/svg">
<g clip-path="url(#clip0_30_518)">
<path d="M138.231 64.2509C138.831 64.0352 139.412 63.7665 139.966 63.4479C140.738 62.9649 141.408 62.3304 141.935 61.5815C142.463 60.8325 142.838 59.9843 143.039 59.0864C143.168 58.4703 143.219 57.84 143.191 57.2109C143.126 56.5168 142.991 55.8313 142.789 55.1649C142.415 53.7404 142.009 52.1894 141.57 50.5339L138.611 39.2369L135.033 25.5419C134.714 24.3099 134.388 23.0614 134.052 21.7854C133.786 20.5102 133.17 19.3376 132.275 18.4029C131.35 17.4485 130.164 16.7988 128.871 16.5384C127.527 16.3035 126.146 16.4306 124.866 16.9069L89.3591 26.3999C87.8402 26.8108 86.5159 27.7588 85.6247 29.0729C84.741 30.3668 84.3465 31.9407 84.5136 33.5059C84.6256 34.286 84.7959 35.0564 85.0231 35.8104C85.2237 36.5859 85.4188 37.3559 85.6193 38.1204C86.0168 39.653 86.4088 41.1729 86.7955 42.6799C88.351 48.7299 89.8469 54.5214 91.2778 60.0654C92.0005 62.8374 92.6942 65.536 93.3591 68.1614C93.5836 69.4497 94.1304 70.658 94.9471 71.6704C95.753 72.6304 96.8113 73.3381 97.9986 73.7109C100.373 74.5579 102.73 73.4084 104.98 72.9134L111.484 71.2029L131.055 66.0769L136.383 64.7074L137.771 64.3664C138.085 64.2894 138.248 64.2674 138.248 64.2674C138.248 64.2674 138.096 64.3279 137.787 64.4159L136.41 64.8119L131.104 66.2749L111.592 71.5659L105.088 73.3094L101.641 74.2279C100.375 74.5539 99.0445 74.5145 97.7995 74.1141C96.5545 73.7137 95.4446 72.9683 94.5948 71.9619C93.7279 70.9011 93.1438 69.6323 92.8984 68.2769C92.2155 65.6589 91.5145 62.962 90.7954 60.1864C89.3591 54.6479 87.8469 48.8399 86.286 42.8119C85.8957 41.3049 85.5019 39.785 85.1044 38.2524C84.9021 37.4897 84.7015 36.7197 84.5028 35.9424C84.262 35.1639 84.0808 34.3677 83.9608 33.5609C83.7809 31.8699 84.206 30.1697 85.1586 28.7704C86.1234 27.3325 87.5666 26.2956 89.2236 25.8499L124.735 16.4119C126.088 15.9216 127.543 15.7965 128.958 16.0489C130.339 16.3415 131.603 17.0486 132.584 18.0784C133.53 19.0754 134.181 20.3215 134.464 21.6754C134.79 22.9459 135.115 24.1999 135.429 25.4319C136.692 30.3819 137.868 34.9469 138.941 39.1434C140.014 43.3399 140.979 47.1239 141.83 50.4569C142.253 52.1252 142.647 53.6725 143.012 55.0989C143.215 55.7842 143.353 56.4878 143.424 57.1999C143.447 57.8506 143.385 58.5017 143.239 59.1359C143.025 60.0518 142.629 60.914 142.077 61.6703C141.524 62.4266 140.826 63.0613 140.025 63.5359C139.613 63.7833 139.172 63.9791 138.714 64.1189C138.394 64.2179 138.231 64.2509 138.231 64.2509Z" fill="#E0E0E0"/>
<path d="M123.955 50.1709C123.848 50.2194 123.738 50.2581 123.624 50.2864L122.67 50.5614L119.115 51.5569L107.191 54.8129H107.093L107.05 54.7194L106.226 52.7999L100.454 38.7639L100.541 38.8024L97.3536 39.6274L96.5027 39.8364L96.2046 39.8969C96.297 39.8547 96.3932 39.8216 96.4918 39.7979L97.332 39.5504L100.508 38.6594H100.573V38.7199L106.421 52.7284L107.223 54.6699L107.088 54.5984L119.055 51.4194L122.627 50.4954L123.592 50.2589C123.71 50.2195 123.832 50.1901 123.955 50.1709Z" fill="#E0E0E0"/>
<path d="M105.727 51.2929C105.727 51.2929 105.754 51.2929 105.808 51.2599L106.052 51.1829L107.012 50.9079L110.6 49.9069L123.001 46.5244L122.919 46.6454C122.735 44.4454 122.535 42.0309 122.323 39.5449C122.22 38.2689 122.112 37.0149 122.014 35.8159L122.161 35.9204L107.527 39.8144L103.191 40.9474L102.02 41.2444L101.716 41.3104C101.646 41.3104 101.613 41.3104 101.608 41.3104L101.711 41.2774L102.009 41.1839L103.174 40.8484L107.51 39.6494L122.144 35.6784L122.274 35.6399V35.7774C122.372 36.9764 122.475 38.2304 122.583 39.5064C122.789 41.9924 122.984 44.3904 123.169 46.6124V46.7059H123.077L110.654 50.0059L107.05 50.9409L106.079 51.1829L105.83 51.2434L105.727 51.2929Z" fill="#E0E0E0"/>
<path d="M112.53 58.1954C112.53 58.1954 112.47 58.0524 112.329 57.8159C112.132 57.4872 111.832 57.234 111.478 57.0954C111.222 56.9957 110.946 56.9616 110.673 56.9961C110.401 57.0307 110.142 57.1328 109.917 57.2934C109.749 57.4389 109.612 57.6177 109.514 57.8188C109.416 58.0199 109.36 58.2391 109.349 58.4631C109.337 58.6871 109.371 58.9111 109.447 59.1214C109.524 59.3318 109.642 59.524 109.794 59.6865C109.947 59.849 110.13 59.9782 110.333 60.0663C110.537 60.1545 110.755 60.1996 110.976 60.1991C111.197 60.1985 111.416 60.1522 111.619 60.063C111.822 59.9739 112.004 59.8437 112.156 59.6804C112.395 59.3828 112.53 59.0135 112.541 58.6299C112.541 58.3549 112.508 58.2009 112.541 58.1954C112.61 58.3293 112.646 58.4786 112.644 58.6299C112.665 59.0443 112.543 59.4532 112.297 59.7849C112.11 60.0381 111.863 60.2384 111.578 60.3665C111.293 60.4946 110.981 60.5462 110.671 60.5164C110.292 60.484 109.933 60.3336 109.641 60.0857C109.35 59.8379 109.142 59.5047 109.044 59.1319C108.947 58.7592 108.966 58.3649 109.098 58.0033C109.23 57.6417 109.469 57.3303 109.782 57.1119C110.034 56.9348 110.327 56.8262 110.633 56.7964C110.938 56.7665 111.246 56.8165 111.527 56.9414C111.902 57.1083 112.209 57.4017 112.394 57.7719C112.473 57.8996 112.52 58.0451 112.53 58.1954Z" fill="#E0E0E0"/>
<path d="M123.37 55.2859C123.37 55.2859 123.31 55.1374 123.169 54.9064C122.97 54.5791 122.671 54.3262 122.318 54.1859C122.039 54.0772 121.735 54.049 121.44 54.1045C121.146 54.1599 120.872 54.2968 120.649 54.5C120.427 54.7032 120.264 54.965 120.178 55.2563C120.093 55.5476 120.088 55.8572 120.165 56.1509C120.242 56.4446 120.398 56.711 120.615 56.9208C120.831 57.1306 121.101 57.2755 121.394 57.3396C121.686 57.4038 121.991 57.3846 122.274 57.2842C122.556 57.1839 122.806 57.0063 122.996 56.7709C123.235 56.4712 123.37 56.1002 123.381 55.7149C123.381 55.4454 123.348 55.2914 123.381 55.2859C123.451 55.4175 123.486 55.5653 123.484 55.7149C123.507 56.1295 123.384 56.5389 123.137 56.8699C122.953 57.119 122.71 57.3167 122.43 57.4446C122.151 57.5725 121.844 57.6264 121.538 57.6014C121.16 57.5687 120.801 57.418 120.511 57.1701C120.22 56.9221 120.013 56.5889 119.916 56.2164C119.82 55.8439 119.84 55.4503 119.973 55.0897C120.106 54.7291 120.346 54.4191 120.66 54.2024C120.913 54.0254 121.207 53.9168 121.513 53.8869C121.82 53.8571 122.128 53.907 122.41 54.0319C122.786 54.1972 123.093 54.4911 123.278 54.8624C123.342 54.9939 123.373 55.1393 123.37 55.2859Z" fill="#E0E0E0"/>
<path d="M221.84 261.607C209.672 255.557 204.989 241.466 203.456 228.404C203.201 226.204 202.616 224.004 203.347 221.914C204.079 219.824 206.247 218.179 208.301 218.795C210.003 219.307 210.979 221.072 212.095 222.48C213.596 224.362 215.589 225.777 217.846 226.561C219.315 227.062 221.065 227.238 222.296 226.275C223.987 224.955 223.808 222.337 223.472 220.181L221.569 208.131C221.228 205.975 220.886 203.775 221.239 201.624C221.591 199.474 222.762 197.345 224.697 196.454C226.632 195.563 229.314 196.355 230.057 198.401C230.371 199.248 230.333 200.189 230.529 201.074C230.724 201.96 231.282 202.889 232.155 203.01C233.027 203.131 233.781 202.383 234.323 201.652C236.187 199.133 237.249 196.097 238.22 193.088C239.19 190.08 240.106 187.011 241.737 184.327C243.369 181.643 245.835 179.327 248.854 178.673C251.873 178.018 255.406 179.426 256.637 182.336C257.867 185.245 256.615 188.617 255.076 191.4C252.808 195.493 249.97 199.231 246.648 202.499C246.051 203.087 245.401 203.72 245.266 204.561C245.022 206.068 246.583 207.311 248.051 207.542C249.721 207.834 251.412 207.399 253.103 207.333C254.794 207.267 256.696 207.735 257.564 209.231C258.772 211.299 257.303 213.895 255.742 215.688C252.617 219.271 248.908 222.283 244.778 224.592C243.298 225.412 241.732 226.182 240.637 227.491C239.542 228.8 239.081 230.862 240.095 232.265C241.108 233.667 243.114 233.849 244.707 233.282C246.301 232.716 247.629 231.588 249.097 230.747C251.851 229.168 255.656 228.783 257.916 231.055C259.401 232.551 259.862 234.877 259.542 236.984C259.222 239.09 258.225 241.01 257.124 242.814C253.287 249.122 247.976 254.545 241.558 257.988C235.141 261.431 228.957 263.059 221.846 261.607" fill="#F5F5F5"/>
<path d="M223.911 252.945C224.963 245.532 226.434 238.187 228.317 230.945C228.805 229.016 229.287 227.113 229.764 225.236C230.241 223.366 230.718 221.512 231.293 219.736C232.405 216.309 233.703 212.948 235.179 209.665C236.566 206.525 237.997 203.615 239.352 200.865C240.707 198.115 242.035 195.618 243.336 193.374C245.366 189.822 247.671 186.44 250.23 183.26C251.13 182.16 251.856 181.285 252.36 180.719L252.935 180.075C252.996 179.999 253.065 179.929 253.141 179.866C253.088 179.949 253.03 180.028 252.967 180.103L252.425 180.774C251.948 181.357 251.238 182.22 250.355 183.364C247.849 186.573 245.584 189.969 243.58 193.523C242.301 195.767 241 198.291 239.65 201.019C238.301 203.747 236.892 206.69 235.515 209.819C234.054 213.094 232.77 216.447 231.667 219.862C231.098 221.639 230.631 223.476 230.149 225.362C229.667 227.249 229.195 229.141 228.707 231.066C226.829 238.292 225.348 245.618 224.274 253.011" fill="#E0E0E0"/>
<path d="M231.401 219.703C231.256 219.42 231.14 219.124 231.054 218.817C230.853 218.234 230.588 217.387 230.279 216.337C229.65 214.236 228.886 211.304 228.051 208.087C227.217 204.869 226.425 201.938 225.753 199.837C225.428 198.792 225.157 197.95 224.962 197.367C224.843 197.074 224.756 196.767 224.702 196.454C224.868 196.724 225.004 197.012 225.108 197.312C225.347 197.862 225.65 198.709 226.019 199.743C226.745 201.817 227.596 204.726 228.431 207.966C229.265 211.205 229.981 214.049 230.544 216.26C230.805 217.255 231.027 218.097 231.206 218.768C231.306 219.071 231.371 219.385 231.401 219.703Z" fill="#E0E0E0"/>
<path d="M257.954 210.254C257.602 210.388 257.24 210.489 256.87 210.556C256.182 210.727 255.179 210.974 253.949 211.315C251.488 211.981 248.117 213.02 244.447 214.329C240.778 215.638 237.515 216.986 235.179 218.025C234.008 218.531 233.071 218.971 232.42 219.268C232.091 219.444 231.746 219.59 231.391 219.703C231.693 219.49 232.014 219.306 232.35 219.153C232.984 218.806 233.906 218.328 235.06 217.783C237.374 216.683 240.637 215.292 244.312 213.972C247.448 212.835 250.639 211.862 253.873 211.057C255.114 210.749 256.127 210.545 256.832 210.424C257.2 210.332 257.576 210.275 257.954 210.254Z" fill="#E0E0E0"/>
<path d="M224.182 252.384C224.089 252.293 224.008 252.19 223.944 252.076L223.32 251.146C222.778 250.332 222.047 249.139 221.152 247.654C219.353 244.684 216.99 240.504 214.448 235.845C211.906 231.187 209.57 226.99 207.852 223.982L205.754 220.429C205.532 220.044 205.348 219.725 205.212 219.461C205.138 219.35 205.08 219.23 205.039 219.103C205.129 219.199 205.209 219.304 205.277 219.417C205.445 219.67 205.651 219.967 205.895 220.346C206.437 221.155 207.174 222.348 208.063 223.833C209.862 226.809 212.22 230.983 214.767 235.647C217.315 240.311 219.645 244.502 221.364 247.505L223.429 251.058L223.971 252.032C224.056 252.139 224.127 252.258 224.182 252.384Z" fill="#E0E0E0"/>
<path d="M258.69 234.85C258.589 234.936 258.476 235.007 258.354 235.059L257.352 235.581L253.655 237.468C250.539 239.063 246.251 241.318 241.52 243.804C236.788 246.29 232.479 248.512 229.325 250.041C227.748 250.805 226.468 251.41 225.574 251.812L224.539 252.268C224.422 252.328 224.298 252.372 224.17 252.4C224.273 252.317 224.386 252.247 224.506 252.191L225.509 251.669L229.2 249.782C232.322 248.193 236.609 245.932 241.341 243.446C246.073 240.96 250.382 238.738 253.531 237.209C255.108 236.445 256.392 235.84 257.287 235.438L258.316 234.987C258.434 234.924 258.56 234.878 258.69 234.85Z" fill="#E0E0E0"/>
<path d="M13.5983 62.5293C13.5983 62.5293 7.55497 64.0198 12.3517 77.2968C17.1484 90.5738 20.7635 97.3003 20.7635 97.3003C20.7635 97.3003 21.5332 100.342 19.0671 100.496C16.601 100.65 11.4086 99.1428 9.97771 101.997C8.49263 104.962 10.368 108.163 14.563 111.281C18.7581 114.4 27.7011 121.577 28.5195 122.232C29.338 122.886 30.0046 124.327 28.3461 124.707C26.6876 125.086 14.6064 124.883 14.8557 130.702C15.105 136.521 28.1889 143.269 29.6035 144.034C31.0182 144.798 31.3 145.48 31.0832 146.294C30.8664 147.108 26.8068 146.652 23.3705 146.734C19.9343 146.817 15.9614 147.532 16.3842 150.881C16.8069 154.231 24.1022 162.046 43.5709 166.424L52.7198 167.854L58.6818 160.589C70.4595 144.265 70.8606 133.501 68.9798 130.702C67.0991 127.902 63.6737 130.031 61.0341 132.269C58.3946 134.508 55.6466 137.566 54.9529 137.104C54.2591 136.642 54.0261 135.938 54.5897 134.414C55.1534 132.891 60.6114 119.058 57.0125 114.515C53.4136 109.972 44.4706 118.217 42.9747 119.047C41.4787 119.878 41.056 118.31 41.2348 117.298C41.4137 116.286 43.4679 104.89 44.5953 99.7368C45.7226 94.5833 45.0397 90.9368 41.9991 89.6938C39.0669 88.5003 36.1401 93.1203 34.1889 94.6438C32.2376 96.1673 30.8393 93.3788 30.8393 93.3788C30.8393 93.3788 29.1808 85.9043 24.151 72.7153C19.1213 59.5263 13.479 62.5623 13.479 62.5623" fill="#EBEBEB"/>
<path d="M52.937 170.104C49.2785 160.407 43.0617 143.055 37.6472 128.188C32.2326 113.322 27.3221 99.8744 23.7123 90.1559C21.9075 85.3104 20.4603 81.3559 19.4251 78.6554C18.9265 77.3024 18.5308 76.2519 18.2652 75.5259C18.1352 75.1739 18.0376 74.9044 17.9671 74.7064C17.8967 74.5084 17.875 74.4259 17.875 74.4259C17.875 74.4259 17.9184 74.5139 17.9942 74.6954L18.3194 75.5039L19.5335 78.6114C20.5796 81.3119 22.0755 85.2114 23.902 90.0844C27.5605 99.7809 32.5036 113.223 37.9182 128.089C43.3327 142.956 49.517 160.314 53.1267 170.032" fill="#E0E0E0"/>
<path d="M17.1699 104.406C17.3843 104.473 17.5914 104.561 17.7878 104.67C18.178 104.852 18.7363 105.132 19.4138 105.484C20.7796 106.194 22.6658 107.228 24.6929 108.399L29.9069 111.424L31.4896 112.332C31.6822 112.429 31.8639 112.547 32.0316 112.684C31.8161 112.626 31.6086 112.541 31.4137 112.431C31.0234 112.249 30.4652 111.969 29.7877 111.606C28.4218 110.88 26.5682 109.829 24.5303 108.652L19.3054 105.666L17.7173 104.769C17.5198 104.674 17.3357 104.551 17.1699 104.406Z" fill="#E0E0E0"/>
<path d="M32.769 112.167C32.6985 112.128 34.6226 108.13 37.0616 103.229C39.5006 98.329 41.544 94.391 41.6144 94.4295C41.6849 94.468 39.7608 98.4665 37.3218 103.367C34.8828 108.267 32.8557 112.2 32.769 112.167Z" fill="#E0E0E0"/>
<path d="M40.0693 135.377C40.1924 135.176 40.3399 134.991 40.5084 134.827L41.7766 133.452C42.8606 132.286 44.3186 130.702 45.8742 128.832C47.4297 126.962 48.7955 125.279 49.7657 124.03L50.9202 122.551C51.0522 122.362 51.203 122.187 51.37 122.028C51.2714 122.237 51.1515 122.434 51.0123 122.617C50.763 122.985 50.3999 123.513 49.9283 124.157C48.9961 125.438 47.6628 127.176 46.0964 129.024C44.53 130.872 43.0341 132.467 41.923 133.595C41.381 134.145 40.9149 134.607 40.5897 134.909C40.4318 135.082 40.2575 135.239 40.0693 135.377Z" fill="#E0E0E0"/>
<path d="M24.4331 131.51C24.6456 131.512 24.8569 131.541 25.0618 131.598L26.7474 131.945C28.1621 132.247 30.1187 132.687 32.2758 133.193C34.433 133.699 36.3842 134.167 37.788 134.524L39.4519 134.959C39.6591 135.002 39.8609 135.068 40.0535 135.157C39.8429 135.155 39.6333 135.126 39.4302 135.069L37.7338 134.75C36.3137 134.447 34.3571 134.007 32.2 133.501C30.0428 132.995 28.097 132.528 26.6878 132.17L25.0239 131.736C24.8187 131.685 24.6203 131.609 24.4331 131.51Z" fill="#E0E0E0"/>
<path d="M28.3135 152.828C28.5818 152.847 28.8482 152.888 29.1102 152.949L31.2782 153.384C33.0993 153.763 35.6142 154.308 38.3784 154.929C41.1426 155.551 43.6575 156.123 45.4624 156.552L47.6304 157.102C47.8967 157.155 48.1579 157.233 48.4108 157.333C48.14 157.321 47.8712 157.281 47.6087 157.212L45.4407 156.777C43.6196 156.398 41.1047 155.853 38.3405 155.232C35.5763 154.61 33.0397 154 31.2294 153.587L29.0614 153.037C28.8057 152.994 28.555 152.924 28.3135 152.828Z" fill="#E0E0E0"/>
<path d="M47.9287 157.069C48.0875 156.823 48.269 156.593 48.4707 156.381L50.0154 154.577C51.3216 153.048 53.1102 150.936 55.0289 148.527C56.9476 146.118 58.6278 143.929 59.831 142.323L61.2619 140.42C61.4231 140.179 61.6044 139.953 61.8039 139.744C61.6737 140.004 61.5214 140.253 61.3486 140.486C61.0343 140.959 60.5736 141.63 59.9882 142.45C58.8229 144.1 57.1644 146.3 55.2457 148.714C53.327 151.129 51.5059 153.202 50.1618 154.698C49.4897 155.441 48.9368 156.04 48.5358 156.442C48.349 156.666 48.1461 156.875 47.9287 157.069Z" fill="#E0E0E0"/>
<path d="M248.106 262.614C248.106 262.696 195.895 262.757 131.505 262.757C67.1157 262.757 14.894 262.696 14.894 262.614C14.894 262.531 67.0941 262.471 131.505 262.471C195.917 262.471 248.106 262.537 248.106 262.614Z" fill="#263238"/>
<path d="M222.881 36.069H207.163C206.132 36.0964 205.153 36.538 204.441 37.2969C203.73 38.0558 203.345 39.07 203.369 40.117V43.01C203.394 44.057 203.008 45.0713 202.297 45.8302C201.586 46.5891 200.607 47.0306 199.575 47.058H168.925C167.89 47.032 166.906 46.5911 166.19 45.8315C165.474 45.0719 165.084 44.0555 165.104 43.0045V40.084C165.125 39.0382 164.738 38.0265 164.027 37.2685C163.317 36.5106 162.34 36.0677 161.31 36.036H155.782H142.02C138.738 36.036 135.589 37.3586 133.267 39.7131C130.945 42.0675 129.638 45.2613 129.636 48.5925L129.598 249.986C129.598 253.315 130.901 256.508 133.22 258.863C135.539 261.217 138.685 262.541 141.966 262.542L222.908 262.592C224.534 262.593 226.143 262.27 227.645 261.64C229.147 261.01 230.512 260.085 231.661 258.92C232.811 257.754 233.723 256.37 234.345 254.847C234.967 253.323 235.288 251.69 235.288 250.041L235.326 48.642C235.328 46.9856 235.007 45.3452 234.382 43.8152C233.756 42.2852 232.839 40.8958 231.682 39.7272C230.526 38.5585 229.152 37.6336 227.642 37.0058C226.132 36.3779 224.514 36.0596 222.881 36.069Z" fill="white"/>
<path d="M222.881 36.0691C222.881 36.0691 223.022 36.0691 223.304 36.0691C223.723 36.0683 224.142 36.0996 224.556 36.1626C226.202 36.373 227.785 36.9354 229.201 37.8126C230.25 38.4374 231.201 39.2199 232.019 40.1336C233.021 41.23 233.819 42.5007 234.377 43.8846C235.02 45.5037 235.335 47.2376 235.304 48.983C235.304 50.8365 235.304 52.833 235.304 54.9011C235.304 71.632 235.331 95.8375 235.347 125.741C235.363 155.645 235.347 191.268 235.347 230.791V249.612C235.376 250.912 235.218 252.209 234.876 253.462C234.53 254.718 233.997 255.913 233.293 257.004C232.576 258.09 231.709 259.067 230.718 259.903C228.683 261.575 226.184 262.56 223.57 262.719C220.979 262.796 218.399 262.719 215.797 262.752H200.058H167.716H142.822C139.956 262.9 137.121 262.09 134.752 260.447C132.408 258.78 130.689 256.357 129.874 253.572C129.488 252.192 129.314 250.76 129.359 249.326V245.091C129.359 239.459 129.359 233.862 129.359 228.3C129.359 217.19 129.359 206.248 129.359 195.476C129.359 173.954 129.359 153.197 129.359 133.419C129.359 113.641 129.359 94.853 129.359 77.264C129.359 68.464 129.359 59.9831 129.359 51.8211C129.359 50.7981 129.359 49.7806 129.359 48.7741C129.359 48.2681 129.402 47.7566 129.43 47.2506C129.457 46.7446 129.554 46.2441 129.679 45.7546C130.126 43.7975 131.019 41.974 132.286 40.4306C133.516 38.9459 135.065 37.7659 136.813 36.9805C138.561 36.1951 140.462 35.8251 142.372 35.8985H153.158H160.887C161.752 35.8517 162.609 36.0932 163.326 36.586C164.024 37.084 164.552 37.7892 164.838 38.6046C165.076 39.4078 165.161 40.2497 165.088 41.085V42.3501C165.076 42.7501 165.088 43.1506 165.126 43.5491C165.242 44.3344 165.587 45.0663 166.118 45.6501C166.611 46.2365 167.272 46.6519 168.009 46.8381C168.373 46.9265 168.746 46.9653 169.12 46.9536H174.73H191.044H198.236C198.806 46.9536 199.385 46.9536 199.922 46.9536C200.46 46.8853 200.976 46.6975 201.434 46.4036C201.875 46.1202 202.255 45.7504 202.553 45.316C202.851 44.8816 203.06 44.3912 203.169 43.8735C203.258 43.3692 203.291 42.8563 203.266 42.3445C203.266 41.8385 203.266 41.3381 203.266 40.8431C203.244 40.3544 203.266 39.8647 203.331 39.38C203.409 38.9088 203.567 38.4548 203.797 38.0381C204.235 37.2493 204.926 36.6361 205.754 36.3001C206.549 36.0459 207.385 35.9561 208.215 36.036H216.242H221.174H222.859H221.174H216.242H208.215C207.423 36.036 206.589 35.9536 205.797 36.3056C204.982 36.6374 204.306 37.2458 203.884 38.0271C203.665 38.4355 203.513 38.8777 203.434 39.336C203.376 39.8139 203.356 40.2959 203.375 40.7771C203.375 41.272 203.375 41.7726 203.375 42.2786C203.396 42.7994 203.363 43.3211 203.277 43.835C203.166 44.371 202.95 44.8792 202.643 45.3296C202.336 45.7801 201.943 46.1639 201.488 46.4586C201.009 46.7583 200.471 46.9462 199.911 47.0086C199.337 47.0581 198.784 47.0086 198.209 47.0086H169.12C168.728 47.0242 168.336 46.9853 167.955 46.8931C167.176 46.6994 166.478 46.2604 165.96 45.6391C165.428 45.0191 165.087 44.2541 164.979 43.4391C164.945 43.0771 164.933 42.7135 164.941 42.3501V41.107C165.009 40.2975 164.926 39.4822 164.697 38.7036C164.428 37.9317 163.928 37.2645 163.267 36.7951C162.585 36.3302 161.773 36.1024 160.952 36.1461H142.438C140.563 36.0744 138.698 36.4386 136.983 37.2107C135.269 37.9828 133.751 39.1425 132.546 40.601C131.309 42.1134 130.438 43.8992 130.004 45.8151C129.879 46.2936 129.841 46.7886 129.755 47.2781C129.668 47.7676 129.695 48.2681 129.69 48.7741V51.8211C129.69 59.9831 129.69 68.464 129.69 77.264C129.69 94.864 129.69 113.647 129.69 133.419V195.476C129.69 206.234 129.69 217.175 129.69 228.3V249.326C129.643 250.726 129.811 252.125 130.188 253.473C130.99 256.183 132.671 258.538 134.958 260.156C137.268 261.745 140.03 262.519 142.817 262.356H151.175H167.711H200.052H215.813C218.41 262.356 221.011 262.4 223.57 262.323C226.114 262.166 228.546 261.204 230.523 259.573C231.49 258.76 232.335 257.809 233.033 256.751C233.717 255.69 234.236 254.529 234.572 253.308C234.904 252.091 235.059 250.831 235.033 249.568C235.033 248.292 235.033 247.027 235.033 245.757C235.033 240.697 235.033 235.693 235.033 230.747C235.033 191.208 235.071 155.59 235.087 125.697C235.103 95.8045 235.141 71.5881 235.157 54.857C235.157 52.767 235.157 50.7926 235.157 48.9391C235.193 47.2079 234.885 45.4872 234.252 43.879C233.703 42.505 232.916 41.242 231.927 40.1501C229.993 37.9879 227.373 36.5826 224.523 36.179C224.111 36.1141 223.694 36.0756 223.277 36.0636C223.022 36.0856 222.881 36.0691 222.881 36.0691Z" fill="#263238"/>
<path d="M149.597 56.4081C149.597 56.4576 147.548 56.5236 145.028 56.5401C142.508 56.5566 140.459 56.5401 140.459 56.4851C140.459 56.4301 142.502 56.3696 145.028 56.3476C147.554 56.3256 149.597 56.3531 149.597 56.4081Z" fill="#263238"/>
<path d="M149.614 58.7785C149.614 58.8335 147.57 58.894 145.05 58.916C142.53 58.938 140.481 58.916 140.481 58.8555C140.481 58.795 142.524 58.74 145.045 58.718C147.565 58.696 149.614 58.7235 149.614 58.7785Z" fill="#263238"/>
<path d="M149.635 61.1489C149.635 61.2039 147.592 61.2644 145.066 61.2864C142.54 61.3084 140.497 61.2864 140.497 61.2259C140.497 61.1654 142.54 61.1104 145.066 61.0884C147.592 61.0664 149.635 61.0939 149.635 61.1489Z" fill="#263238"/>
<path d="M179.597 211.695H138.92V252.972H179.597V211.695Z" fill="#F5F5F5"/>
<path d="M174.795 235.312C171.484 230.621 164.454 227.409 158.741 228.272C154.112 228.971 150.015 231.154 147.771 235.818C147.621 236.122 147.545 236.459 147.55 236.8C147.555 237.14 147.641 237.474 147.801 237.774C147.96 238.074 148.189 238.33 148.467 238.521C148.745 238.711 149.064 238.831 149.397 238.871C157.109 239.805 164.905 239.779 172.611 238.794C173.798 238.64 175.213 238.304 175.294 236.814C175.301 236.27 175.125 235.74 174.795 235.312Z" fill="#1FB545"/>
<g opacity="0.5">
<path opacity="0.5" d="M174.795 235.312C171.484 230.621 164.454 227.409 158.741 228.272C154.112 228.971 150.015 231.154 147.771 235.818" fill="white"/>
</g>
<path d="M156.508 235.075C156.481 235.075 156.242 234.861 155.928 234.421C155.508 233.839 155.209 233.177 155.05 232.474C154.914 231.775 154.856 231.063 154.876 230.351C154.852 230.057 154.876 229.762 154.947 229.476C155.037 229.757 155.081 230.05 155.077 230.345C155.113 231.038 155.195 231.727 155.321 232.408C155.482 233.078 155.741 233.719 156.09 234.311C156.261 234.547 156.401 234.804 156.508 235.075Z" fill="#F5F5F5"/>
<path d="M161.413 234.85C161.331 234.85 161.451 233.519 161.277 231.902C161.104 230.285 160.735 229.015 160.806 228.987C161.602 230.83 161.815 232.879 161.413 234.85Z" fill="#F5F5F5"/>
<path d="M166.486 234.086C166.405 234.053 166.79 233.167 166.882 232.001C166.974 230.835 166.763 229.895 166.844 229.873C167.117 230.554 167.226 231.291 167.164 232.023C167.102 232.755 166.87 233.462 166.486 234.086Z" fill="#F5F5F5"/>
<g opacity="0.3">
<path opacity="0.3" d="M160.513 228.492L160.557 228.575L160.513 228.492Z" fill="black"/>
</g>
<path d="M180.069 78.2595H138.92V140.855H180.069V78.2595Z" fill="#F5F5F5"/>
<path d="M180.069 145.574H138.92V208.169H180.069V145.574Z" fill="#F5F5F5"/>
<path d="M225.136 133.755H183.987V192.198H225.136V133.755Z" fill="#F5F5F5"/>
<path d="M224.8 196.306H183.651V252.967H224.8V196.306Z" fill="#F5F5F5"/>
<path d="M225.136 78.2595H183.987V129.96H225.136V78.2595Z" fill="#F5F5F5"/>
<path d="M165.96 96.976V114.328C165.96 115.087 165.359 115.874 164.253 116.468C162.771 117.174 161.147 117.517 159.511 117.469H159.483C155.446 117.469 153.034 115.852 153.034 114.328V96.943C153.034 95.249 154.264 93.4835 155.5 91.7345C156.329 90.5685 156.53 88.891 156.584 87.8845C156.584 87.769 156.584 87.6645 156.584 87.5655H156.47C156.233 87.5837 155.998 87.506 155.818 87.3494C155.637 87.1928 155.525 86.9699 155.505 86.7295V85.998C155.523 85.7561 155.635 85.5314 155.816 85.3727C155.996 85.214 156.232 85.1343 156.47 85.151H162.535C162.715 85.1458 162.893 85.1907 163.05 85.2808C163.206 85.371 163.336 85.503 163.424 85.6625C163.474 85.7671 163.5 85.8818 163.5 85.998V86.7295C163.479 86.9693 163.366 87.1913 163.186 87.3477C163.005 87.504 162.772 87.5823 162.535 87.5655H162.394C162.394 87.6645 162.394 87.769 162.394 87.8845C162.432 88.8745 162.633 90.552 163.478 91.7345C164.714 93.4835 165.939 95.249 165.944 96.943L165.96 96.976Z" fill="#FAFAFA"/>
<path d="M165.96 96.9759V96.7999C165.946 96.6265 165.922 96.4539 165.89 96.2829C165.745 95.6268 165.504 94.9965 165.175 94.4129C164.646 93.4846 164.061 92.59 163.424 91.7344C162.678 90.4842 162.302 89.0429 162.34 87.5819V87.4829H162.394C162.608 87.5157 162.826 87.467 163.006 87.3461C163.186 87.2252 163.316 87.0407 163.37 86.8284C163.37 86.6084 163.37 86.3389 163.37 86.0914C163.383 85.9779 163.367 85.8629 163.324 85.7571C163.282 85.6513 163.213 85.5581 163.126 85.4864C162.941 85.3354 162.707 85.2591 162.47 85.2719H160.026H156.535C156.399 85.2597 156.262 85.277 156.133 85.3225C156.004 85.368 155.886 85.4407 155.787 85.5359C155.697 85.6317 155.637 85.7522 155.614 85.8824C155.605 86.0326 155.605 86.1832 155.614 86.3334C155.614 86.4874 155.614 86.6689 155.614 86.7954C155.631 86.9297 155.69 87.0549 155.782 87.1529C155.883 87.2562 156.005 87.335 156.14 87.3836C156.275 87.4322 156.42 87.4492 156.562 87.4334H156.687V87.5709C156.68 88.2809 156.604 88.9884 156.459 89.6829C156.318 90.412 156.041 91.1066 155.641 91.7289C154.729 92.9055 153.976 94.2002 153.402 95.5789C153.28 95.9347 153.2 96.304 153.164 96.6789C153.164 97.0474 153.164 97.4544 153.164 97.8449V100.232C153.164 101.845 153.164 103.481 153.164 105.138C153.164 108.053 153.164 110.902 153.164 113.652C153.147 113.983 153.162 114.314 153.207 114.642C153.286 114.95 153.441 115.232 153.657 115.461C154.098 115.937 154.634 116.312 155.229 116.561C156.4 117.038 157.647 117.297 158.909 117.326C160.111 117.389 161.315 117.28 162.486 117.001C163.592 116.78 164.607 116.228 165.402 115.417C165.572 115.218 165.701 114.986 165.782 114.735C165.842 114.48 165.864 114.217 165.847 113.954V112.359C165.847 111.314 165.847 110.313 165.847 109.356C165.847 105.545 165.879 102.459 165.89 100.303C165.89 99.2474 165.89 98.4224 165.89 97.8394C165.89 97.2564 165.917 96.9814 165.917 96.9814C165.945 97.2665 165.956 97.553 165.95 97.8394C165.95 98.4224 165.95 99.2474 165.977 100.303C165.977 102.459 165.977 105.545 166.02 109.356C166.02 110.313 166.02 111.314 166.02 112.359V113.954C166.041 114.238 166.019 114.524 165.955 114.801C165.867 115.084 165.723 115.346 165.532 115.571C164.708 116.42 163.65 116.996 162.497 117.221C161.304 117.513 160.075 117.629 158.849 117.568C157.549 117.542 156.263 117.278 155.055 116.787C154.424 116.53 153.855 116.138 153.386 115.637C153.14 115.372 152.963 115.049 152.871 114.697C152.819 114.348 152.8 113.994 152.817 113.641C152.817 110.891 152.817 108.042 152.817 105.127C152.817 103.466 152.817 101.831 152.817 100.221V97.8339C152.817 97.4324 152.817 97.0584 152.817 96.6459C152.852 96.2483 152.936 95.8567 153.066 95.4799C153.65 94.078 154.417 92.7626 155.348 91.5694C156.046 90.3565 156.395 88.9695 156.356 87.5654L156.486 87.6974C156.309 87.7128 156.13 87.6876 155.963 87.6239C155.796 87.5601 155.645 87.4594 155.521 87.3289C155.395 87.1923 155.314 87.0194 155.288 86.8339C155.288 86.6414 155.288 86.5039 155.288 86.3389C155.278 86.1759 155.278 86.0124 155.288 85.8494C155.32 85.6687 155.405 85.5019 155.532 85.3709C155.653 85.251 155.798 85.1586 155.957 85.0999C156.116 85.0411 156.285 85.0172 156.454 85.0299H159.944H162.389C162.674 85.0214 162.953 85.117 163.175 85.2994C163.283 85.3927 163.367 85.5106 163.422 85.6434C163.477 85.7763 163.5 85.9204 163.489 86.0639C163.489 86.3224 163.489 86.5534 163.489 86.8284C163.429 87.0869 163.277 87.3135 163.061 87.464C162.846 87.6145 162.583 87.6782 162.324 87.6424L162.416 87.5489C162.364 88.9767 162.718 90.3894 163.435 91.6189C164.064 92.4876 164.64 93.395 165.158 94.3359C165.482 94.9311 165.709 95.5756 165.83 96.2444C165.858 96.4173 165.874 96.5919 165.879 96.7669C165.919 96.8307 165.947 96.9016 165.96 96.9759Z" fill="#263238"/>
<path d="M162.074 87.5435C160.272 87.7357 158.456 87.7357 156.654 87.5435C158.456 87.3512 160.272 87.3512 162.074 87.5435Z" fill="#263238"/>
<path d="M165.418 99.2915C165.128 99.1475 164.806 99.0797 164.483 99.0941C164.161 99.1085 163.846 99.2047 163.57 99.374C163.016 99.7158 162.417 99.9769 161.792 100.149C161.029 100.221 160.264 100.027 159.624 99.5995C158.985 99.1765 158.312 98.8086 157.613 98.4995C156.919 98.2598 156.172 98.223 155.458 98.3932C154.744 98.5634 154.092 98.9337 153.575 99.462V114.312C153.575 114.312 154.383 116.847 160.052 116.451C165.721 116.055 165.272 113.514 165.272 113.514L165.418 99.2915Z" fill="#1FB545"/>
<path d="M209.229 217.388V234.597C209.229 235.356 208.632 236.132 207.527 236.726C206.056 237.43 204.442 237.771 202.817 237.721C198.8 237.721 196.405 236.11 196.405 234.597V217.41C196.405 217.41 196.405 217.41 196.405 217.371C196.405 215.688 197.63 213.934 198.855 212.201C199.684 211.041 199.879 209.369 199.939 208.39C199.939 208.274 199.939 208.17 199.939 208.076H199.792C199.556 208.093 199.323 208.014 199.143 207.858C198.964 207.701 198.852 207.479 198.833 207.24V206.514C198.851 206.274 198.962 206.051 199.142 205.894C199.322 205.738 199.556 205.66 199.792 205.678H205.819C205.998 205.672 206.175 205.716 206.331 205.805C206.487 205.895 206.615 206.026 206.703 206.184C206.75 206.287 206.774 206.4 206.773 206.514V207.24C206.755 207.479 206.645 207.701 206.466 207.858C206.287 208.014 206.055 208.093 205.819 208.076H205.706C205.706 208.17 205.706 208.274 205.706 208.39C205.743 209.369 205.939 211.041 206.762 212.201C207.993 213.934 209.207 215.688 209.218 217.371C209.234 217.366 209.229 217.377 209.229 217.388Z" fill="#FAFAFA"/>
<path d="M209.228 217.387C209.232 217.329 209.232 217.27 209.228 217.211C209.217 217.038 209.195 216.865 209.163 216.694C209.018 216.044 208.779 215.42 208.453 214.841C207.928 213.917 207.346 213.027 206.708 212.179C205.965 210.938 205.589 209.506 205.624 208.054V207.949H205.716C205.928 207.982 206.145 207.933 206.323 207.812C206.502 207.691 206.629 207.506 206.681 207.295C206.681 207.08 206.681 206.811 206.681 206.563C206.691 206.451 206.674 206.338 206.632 206.233C206.589 206.129 206.523 206.036 206.437 205.964C206.253 205.816 206.022 205.739 205.787 205.749H203.359H199.89C199.755 205.737 199.618 205.755 199.49 205.8C199.362 205.846 199.245 205.918 199.147 206.013C199.056 206.108 198.996 206.229 198.974 206.36C198.965 206.508 198.965 206.657 198.974 206.805C198.974 206.954 198.974 207.135 198.974 207.262C198.991 207.396 199.05 207.521 199.142 207.619C199.242 207.721 199.363 207.798 199.496 207.846C199.629 207.893 199.771 207.91 199.911 207.894H200.041V208.032C200.035 208.736 199.959 209.438 199.814 210.127C199.675 210.851 199.399 211.54 199.001 212.157C198.093 213.333 197.345 214.628 196.779 216.007C196.655 216.362 196.577 216.732 196.546 217.107C196.546 217.47 196.546 217.877 196.546 218.262C196.546 219.043 196.546 219.835 196.546 220.638V225.5C196.546 228.398 196.546 231.231 196.546 233.964C196.529 234.291 196.544 234.619 196.589 234.943C196.669 235.251 196.824 235.532 197.039 235.763C197.477 236.237 198.009 236.611 198.6 236.863C199.758 237.325 200.987 237.574 202.231 237.6C203.426 237.663 204.623 237.554 205.787 237.275C206.885 237.059 207.894 236.51 208.681 235.702C208.851 235.505 208.98 235.275 209.06 235.026C209.119 234.772 209.139 234.511 209.12 234.25C209.12 233.7 209.12 233.183 209.12 232.666C209.12 231.627 209.12 230.637 209.12 229.685C209.12 225.896 209.153 222.827 209.163 220.687C209.163 219.637 209.163 218.817 209.19 218.245C209.218 217.673 209.19 217.393 209.19 217.393C209.223 217.676 209.234 217.961 209.223 218.245C209.223 218.795 209.223 219.637 209.223 220.687C209.223 222.827 209.25 225.896 209.272 229.685C209.272 230.637 209.272 231.627 209.272 232.666C209.272 233.183 209.272 233.711 209.272 234.25C209.293 234.533 209.269 234.817 209.201 235.092C209.114 235.373 208.972 235.632 208.784 235.856C207.967 236.703 206.916 237.278 205.77 237.506C204.584 237.797 203.363 237.914 202.144 237.853C200.858 237.826 199.588 237.563 198.394 237.077C197.795 236.816 197.257 236.432 196.811 235.95C196.568 235.685 196.393 235.364 196.302 235.015C196.249 234.669 196.231 234.319 196.247 233.97V218.251C196.247 217.855 196.247 217.481 196.247 217.074C196.283 216.676 196.367 216.285 196.497 215.908C197.076 214.518 197.838 213.213 198.762 212.03C199.453 210.825 199.8 209.448 199.765 208.054L199.89 208.18C199.714 208.195 199.538 208.17 199.373 208.108C199.208 208.045 199.059 207.946 198.936 207.817C198.809 207.682 198.729 207.508 198.708 207.322C198.708 207.135 198.708 206.998 198.708 206.833C198.698 206.67 198.698 206.506 198.708 206.343C198.742 206.165 198.827 206.001 198.952 205.87C199.072 205.751 199.216 205.659 199.374 205.601C199.532 205.542 199.7 205.518 199.868 205.529H203.337H205.765C206.049 205.52 206.326 205.616 206.545 205.799C206.653 205.891 206.738 206.008 206.792 206.14C206.847 206.272 206.87 206.415 206.86 206.558C206.86 206.816 206.86 207.047 206.86 207.317C206.794 207.571 206.641 207.792 206.428 207.941C206.215 208.091 205.957 208.158 205.7 208.131L205.792 208.037C205.742 209.453 206.092 210.854 206.8 212.074C207.43 212.935 208.002 213.837 208.513 214.775C208.836 215.367 209.063 216.007 209.185 216.672C209.214 216.843 209.229 217.016 209.228 217.189C209.245 217.327 209.239 217.387 209.228 217.387Z" fill="#263238"/>
<path d="M205.369 208.01C203.586 208.201 201.787 208.201 200.003 208.01C201.787 207.819 203.586 207.819 205.369 208.01Z" fill="#263238"/>
<path d="M208.692 219.687C208.404 219.542 208.084 219.473 207.763 219.486C207.442 219.5 207.13 219.595 206.854 219.764C206.306 220.104 205.713 220.365 205.093 220.539C204.33 220.609 203.566 220.415 202.925 219.989C202.29 219.565 201.621 219.197 200.925 218.889C200.235 218.652 199.494 218.617 198.786 218.787C198.078 218.957 197.431 219.326 196.919 219.852V234.625C196.919 234.625 197.716 237.149 203.348 236.753C208.979 236.357 208.54 233.833 208.54 233.833L208.692 219.687Z" fill="#1FB545"/>
<g opacity="0.5">
<path opacity="0.5" d="M208.692 219.687C208.404 219.542 208.084 219.473 207.763 219.486C207.442 219.5 207.13 219.595 206.854 219.764C206.306 220.104 205.713 220.365 205.093 220.539C204.33 220.609 203.566 220.415 202.925 219.989C202.29 219.565 201.621 219.197 200.925 218.889C200.235 218.652 199.494 218.617 198.786 218.787C198.078 218.957 197.431 219.326 196.919 219.852V234.625C196.919 234.625 197.716 237.149 203.348 236.753C208.979 236.357 208.54 233.833 208.54 233.833L208.692 219.687Z" fill="white"/>
</g>
<path d="M218.052 154.847C217.867 154.77 217.665 154.742 217.466 154.765C217.267 154.788 217.077 154.862 216.914 154.979C216.833 155.034 216.746 155.1 216.665 155.166C213.913 157.231 210.569 158.319 207.147 158.263C200.486 158.263 194.968 154.473 193.982 149.523V148.588C193.99 148.495 193.979 148.4 193.95 148.311C193.92 148.222 193.873 148.14 193.81 148.071C193.748 148.002 193.672 147.946 193.587 147.908C193.502 147.87 193.411 147.851 193.318 147.851C193.225 147.851 193.134 147.87 193.049 147.908C192.964 147.946 192.888 148.002 192.826 148.071C192.763 148.14 192.716 148.222 192.686 148.311C192.657 148.4 192.646 148.495 192.654 148.588V151.206C192.658 151.268 192.671 151.329 192.692 151.388C192.234 152.415 191.992 153.527 191.982 154.655C191.982 160.369 197.944 165.011 205.321 165.011C211.505 165.011 216.703 161.75 218.22 157.311C218.239 157.292 218.25 157.266 218.253 157.24C218.428 156.886 218.526 156.497 218.54 156.101C218.58 155.867 218.556 155.626 218.47 155.404C218.384 155.183 218.239 154.99 218.052 154.847Z" fill="#1FB545"/>
<g opacity="0.3">
<path opacity="0.3" d="M193.483 152.075C193.483 152.075 199.765 166.738 216.789 156.475C216.789 156.475 212.404 161.095 206.686 162.217C201.505 163.223 193.83 160.259 193.483 152.075Z" fill="black"/>
</g>
<path d="M218.518 155.584C218.415 155.837 218.009 155.909 217.613 155.738C217.217 155.568 216.979 155.221 217.071 154.968C217.163 154.715 217.58 154.649 217.976 154.819C218.372 154.99 218.627 155.331 218.518 155.584Z" fill="#263238"/>
<path d="M224.865 61.0499C224.82 61.0579 224.774 61.0579 224.729 61.0499H224.344H222.919L218.133 61.0939H218.095V61.0554C218.057 60.7969 218.019 60.5054 217.976 60.2524C217.645 57.8984 217.353 55.7974 217.158 54.4224H217.185H215.559C215.521 54.4271 215.483 54.4271 215.445 54.4224H215.559H215.9H217.174H217.201V54.4499C217.401 55.8194 217.71 57.9204 218.057 60.2689C218.095 60.5439 218.133 60.8189 218.171 61.0719L218.128 61.0334H222.914H224.859L224.865 61.0499Z" fill="#263238"/>
<path d="M217.927 59.6751C217.927 59.6751 217.927 59.6751 217.965 59.6751H218.063H218.448H219.889L224.854 59.6256L224.811 59.6641C224.952 58.8116 225.109 57.8931 225.266 56.9471C225.347 56.4576 225.429 55.9736 225.51 55.5171L225.553 55.5721H219.7H217.374C217.347 55.5721 217.336 55.5721 217.336 55.5721H217.499H217.965H219.7L225.553 55.5226H225.607V55.5776L225.369 57.0021C225.206 57.9536 225.049 58.8721 224.908 59.7521V59.7851H224.87H219.906H217.943L217.927 59.6751Z" fill="#263238"/>
<path d="M219.846 62.931C219.846 62.931 219.846 62.8705 219.808 62.766C219.767 62.6234 219.679 62.4992 219.559 62.414C219.473 62.3521 219.373 62.3122 219.268 62.2979C219.163 62.2835 219.057 62.295 218.957 62.3315C218.837 62.3776 218.733 62.46 218.659 62.5676C218.586 62.6752 218.547 62.8029 218.547 62.9338C218.547 63.0646 218.586 63.1924 218.659 63.3C218.733 63.4076 218.837 63.4899 218.957 63.536C219.057 63.5747 219.164 63.5869 219.269 63.5715C219.375 63.5561 219.474 63.5136 219.559 63.448C219.676 63.361 219.762 63.2373 219.803 63.096C219.835 62.9915 219.835 62.931 219.841 62.931C219.855 62.987 219.855 63.0456 219.841 63.1015C219.807 63.2597 219.721 63.4013 219.597 63.503C219.504 63.5766 219.394 63.6256 219.278 63.6457C219.162 63.6659 219.042 63.6565 218.93 63.6185C218.79 63.57 218.668 63.4782 218.582 63.3559C218.496 63.2336 218.449 63.0869 218.449 62.9365C218.449 62.7861 218.496 62.6395 218.582 62.5172C218.668 62.3949 218.79 62.303 218.93 62.2545C219.042 62.2143 219.163 62.2032 219.28 62.2224C219.398 62.2417 219.508 62.2905 219.602 62.3645C219.727 62.4633 219.813 62.6035 219.846 62.7605C219.862 62.8163 219.862 62.8753 219.846 62.931Z" fill="#263238"/>
<path d="M224.182 62.9035C224.182 62.9035 224.182 62.843 224.144 62.744C224.104 62.6007 224.016 62.4762 223.895 62.392C223.809 62.3287 223.709 62.2881 223.604 62.2737C223.499 62.2593 223.392 62.2716 223.293 62.3095C223.203 62.3384 223.121 62.3873 223.052 62.4525C222.984 62.5176 222.93 62.5975 222.896 62.6863C222.861 62.7751 222.846 62.8706 222.853 62.9659C222.859 63.0611 222.886 63.1538 222.932 63.2371C222.978 63.3204 223.042 63.3923 223.118 63.4475C223.195 63.5028 223.283 63.54 223.376 63.5565C223.468 63.573 223.564 63.5684 223.654 63.5429C223.745 63.5175 223.829 63.4719 223.9 63.4095C224.018 63.3195 224.105 63.1945 224.149 63.052C224.177 62.9475 224.177 62.887 224.182 62.887C224.196 62.9429 224.196 63.0015 224.182 63.0575C224.151 63.2154 224.067 63.3573 223.943 63.459C223.84 63.5418 223.715 63.5937 223.584 63.6088C223.453 63.6239 223.321 63.6016 223.201 63.5445C223.082 63.4874 222.981 63.3977 222.909 63.2854C222.837 63.1732 222.797 63.0428 222.794 62.909C222.794 62.7592 222.839 62.6129 222.924 62.49C223.008 62.367 223.127 62.2733 223.266 62.2215C223.377 62.1812 223.497 62.1701 223.613 62.1894C223.73 62.2086 223.84 62.2575 223.933 62.3315C224.06 62.4278 224.147 62.5691 224.177 62.7275C224.195 62.7844 224.197 62.8455 224.182 62.9035Z" fill="#263238"/>
<path d="M225.585 56.6915C226.621 56.4646 227.279 55.4286 227.056 54.3775C226.832 53.3264 225.811 52.6582 224.775 52.8851C223.74 53.112 223.081 54.148 223.305 55.1991C223.528 56.2502 224.549 56.9183 225.585 56.6915Z" fill="#1FB545"/>
<path d="M225.418 54.0485V55.528H225.076V54.3235H224.784V54.0485H225.418Z" fill="white"/>
<path d="M210.372 234.075H154.345C150.19 234.075 146.822 237.492 146.822 241.709V245.372C146.822 249.588 150.19 253.006 154.345 253.006H210.372C214.527 253.006 217.895 249.588 217.895 245.372V241.709C217.895 237.492 214.527 234.075 210.372 234.075Z" fill="#1FB545"/>
<g opacity="0.3">
<path opacity="0.3" d="M210.372 234.075H154.345C150.19 234.075 146.822 237.492 146.822 241.709V245.372C146.822 249.588 150.19 253.006 154.345 253.006H210.372C214.527 253.006 217.895 249.588 217.895 245.372V241.709C217.895 237.492 214.527 234.075 210.372 234.075Z" fill="black"/>
</g>
<path d="M207.613 234.075H151.586C147.432 234.075 144.063 237.492 144.063 241.709V245.372C144.063 249.588 147.432 253.006 151.586 253.006H207.613C211.768 253.006 215.136 249.588 215.136 245.372V241.709C215.136 237.492 211.768 234.075 207.613 234.075Z" fill="#1FB545"/>
<path d="M177.461 242.5C177.461 243.468 176.767 244.057 175.624 244.057H174.54V245.415H173.911V240.938H175.635C176.767 240.938 177.461 241.527 177.461 242.5ZM176.833 242.5C176.833 241.857 176.41 241.494 175.602 241.494H174.518V243.501H175.602C176.41 243.501 176.833 243.138 176.833 242.5Z" fill="white"/>
<path d="M180.979 244.294H178.654L178.172 245.394H177.521L179.521 240.917H180.145L182.145 245.394H181.483L180.979 244.294ZM180.757 243.782L179.809 241.582L178.855 243.782H180.757Z" fill="white"/>
<path d="M184.205 243.864V245.415H183.581V243.853L181.831 240.938H182.503L183.912 243.298L185.332 240.938H185.955L184.205 243.864Z" fill="white"/>
<path d="M160.865 166.875C161.026 165.821 160.98 164.744 160.729 163.708C160.478 162.672 160.027 161.696 159.403 160.837C158.779 159.978 157.993 159.253 157.092 158.704C156.19 158.154 155.19 157.791 154.15 157.635C154.035 157.59 153.91 157.58 153.789 157.608C153.669 157.635 153.56 157.699 153.475 157.79C153.391 157.881 153.335 157.995 153.315 158.119C153.295 158.242 153.312 158.369 153.364 158.482C153.554 160.539 154.381 162.482 155.727 164.031C157.073 165.581 158.868 166.657 160.855 167.106" fill="#455A64"/>
<path d="M149.695 181.808C151.706 186.016 154.573 188.848 158.177 188.986C158.893 188.986 159.435 188.535 160.118 188.491C160.517 188.583 160.902 188.731 161.261 188.931C161.452 189.013 161.656 189.059 161.863 189.068C165.559 188.865 168.714 186.225 170.838 181.808C173.792 175.621 172.882 168.977 168.8 166.958C168.263 166.686 167.703 166.465 167.126 166.298C166.466 166.111 165.783 166.03 165.099 166.056C163.507 166.159 161.941 166.517 160.459 167.118L160.259 167.195C156.942 165.704 154.297 165.699 151.722 166.958C147.641 168.977 146.736 175.621 149.695 181.808Z" fill="#1FB545"/>
<path d="M149.765 175.543C149.574 175.156 149.46 174.733 149.429 174.3C149.308 173.254 149.433 172.193 149.792 171.205C150.152 170.217 150.737 169.329 151.5 168.613C151.797 168.302 152.155 168.056 152.551 167.893C152.578 167.931 152.172 168.201 151.635 168.756C150.944 169.483 150.408 170.346 150.062 171.293C149.716 172.239 149.567 173.248 149.624 174.256C149.679 175.054 149.814 175.527 149.765 175.543Z" fill="#FAFAFA"/>
<path d="M150.514 178.481C150.438 178.481 150.308 178.206 150.221 177.832C150.134 177.458 150.129 177.133 150.221 177.111C150.313 177.089 150.427 177.386 150.514 177.766C150.6 178.145 150.589 178.464 150.514 178.481Z" fill="#FAFAFA"/>
<path d="M169.305 156.75C169.305 156.805 168.535 157.102 167.386 157.801C166.716 158.213 166.076 158.674 165.473 159.181C164.751 159.815 164.083 160.511 163.478 161.26C162.868 162.017 162.324 162.827 161.852 163.68C161.481 164.379 161.162 165.105 160.898 165.852C160.448 167.139 160.318 167.976 160.264 167.965C160.26 167.764 160.282 167.565 160.329 167.37C160.358 167.138 160.404 166.909 160.465 166.683C160.531 166.382 160.612 166.085 160.709 165.792C160.947 165.02 161.254 164.27 161.625 163.553C162.537 161.793 163.79 160.238 165.31 158.983C165.925 158.476 166.581 158.024 167.272 157.63C167.537 157.475 167.81 157.336 168.091 157.212C168.297 157.108 168.508 157.016 168.725 156.937C168.91 156.852 169.105 156.789 169.305 156.75Z" fill="#263238"/>
<path d="M219.499 99.1926C216.188 94.5066 209.158 91.2946 203.445 92.1581C198.817 92.8566 194.719 95.0401 192.475 99.7041C192.326 100.009 192.251 100.345 192.257 100.685C192.263 101.025 192.349 101.359 192.508 101.658C192.668 101.957 192.896 102.213 193.173 102.404C193.45 102.595 193.768 102.716 194.101 102.757C201.813 103.691 209.609 103.665 217.315 102.68C218.508 102.526 219.917 102.19 219.998 100.7C220.005 100.154 219.83 99.6227 219.499 99.1926Z" fill="#1FB545"/>
<path d="M201.212 98.9615C201.185 98.9615 200.946 98.7471 200.632 98.3071C200.213 97.7246 199.914 97.0624 199.754 96.3601C199.618 95.6611 199.56 94.9491 199.58 94.2371C199.56 93.9418 199.584 93.6451 199.651 93.3571C199.743 93.6371 199.787 93.931 199.781 94.2261C199.82 94.9202 199.903 95.611 200.03 96.2941C200.186 96.9656 200.446 97.6078 200.8 98.197C200.969 98.4329 201.107 98.6899 201.212 98.9615Z" fill="#263238"/>
<path d="M206.123 98.7305C206.036 98.7305 206.155 97.3995 205.987 95.7825C205.819 94.1655 205.445 92.8951 205.516 92.8676C205.954 93.7672 206.208 94.7475 206.264 95.7495C206.412 96.7429 206.364 97.7562 206.123 98.7305Z" fill="#263238"/>
<path d="M211.174 97.9714C211.098 97.9384 211.478 97.0474 211.57 95.8814C211.662 94.7154 211.45 93.7749 211.532 93.7584C211.804 94.4394 211.914 95.1762 211.852 95.9085C211.79 96.6408 211.557 97.3478 211.174 97.9714Z" fill="#263238"/>
<g opacity="0.3">
<path opacity="0.3" d="M205.212 92.3999L205.256 92.4829L205.212 92.3999Z" fill="black"/>
</g>
<g opacity="0.3">
<path opacity="0.3" d="M205.261 92.4606C204.755 93.4017 204.561 94.4831 204.707 95.5449C204.854 96.6068 205.333 97.5926 206.074 98.3566C206.554 96.3579 206.263 94.2489 205.261 92.4606Z" fill="black"/>
</g>
<g opacity="0.3">
<path opacity="0.3" d="M200.545 98.1365C200.02 97.1689 199.706 96.0978 199.624 94.996C199.63 94.5096 199.56 94.0252 199.418 93.5605C198.848 94.2801 198.567 95.1917 198.632 96.1125C198.709 97.08 199.157 97.9783 199.879 98.6151C199.987 98.7174 200.117 98.7927 200.258 98.835C200.33 98.8527 200.405 98.848 200.473 98.8215C200.542 98.795 200.601 98.7479 200.643 98.6865C200.741 98.516 200.643 98.307 200.545 98.1365Z" fill="black"/>
</g>
<g opacity="0.3">
<path opacity="0.3" d="M211.635 94.1931C211.616 94.0008 211.561 93.8141 211.472 93.6431C211.426 93.5599 211.358 93.4918 211.276 93.4469C211.193 93.4021 211.099 93.3823 211.006 93.3901C210.751 93.4341 210.626 93.7256 210.551 93.9786C210.124 95.0638 209.995 96.2459 210.177 97.3996C210.236 97.6581 210.404 97.9496 210.67 97.9496C210.935 97.9496 211.006 97.7296 211.098 97.5481C211.618 96.5141 211.806 95.3408 211.635 94.1931Z" fill="black"/>
</g>
<path d="M148.562 129.41V129.927H148.188V129.415C147.788 129.405 147.4 129.27 147.077 129.03L147.278 128.568C147.544 128.766 147.859 128.886 148.188 128.915V127.996C147.684 127.87 147.142 127.705 147.142 127.061C147.142 126.594 147.478 126.181 148.188 126.115V125.565H148.562V126.077C148.887 126.093 149.204 126.189 149.484 126.357L149.294 126.825C149.07 126.691 148.821 126.607 148.562 126.577V127.507C149.066 127.628 149.614 127.793 149.614 128.431C149.614 128.931 149.272 129.333 148.562 129.41ZM148.188 127.435V126.616C147.868 126.665 147.728 126.836 147.728 127.034C147.728 127.232 147.923 127.358 148.188 127.435ZM149.034 128.502C149.034 128.277 148.833 128.167 148.562 128.09V128.904C148.893 128.854 149.034 128.7 149.034 128.502Z" fill="#263238"/>
<path d="M152.329 126.148V129.371H151.738V126.648H151.066V126.148H152.329Z" fill="#263238"/>
<path d="M153.684 129.019C153.676 129.158 153.641 129.295 153.581 129.42L153.348 130.069H152.979L153.163 129.36C153.097 129.332 153.042 129.285 153.004 129.224C152.966 129.163 152.948 129.091 152.952 129.019C152.946 128.966 152.95 128.913 152.966 128.862C152.981 128.812 153.007 128.765 153.042 128.726C153.076 128.686 153.119 128.654 153.166 128.633C153.214 128.611 153.266 128.6 153.318 128.6C153.37 128.6 153.422 128.611 153.469 128.633C153.517 128.654 153.559 128.686 153.594 128.726C153.628 128.765 153.654 128.812 153.67 128.862C153.685 128.913 153.69 128.966 153.684 129.019Z" fill="#263238"/>
<path d="M156.378 128.381C156.378 128.931 155.977 129.42 155.121 129.42C154.694 129.427 154.277 129.296 153.928 129.046L154.178 128.579C154.446 128.789 154.776 128.901 155.115 128.898C155.533 128.898 155.787 128.711 155.787 128.403C155.787 128.095 155.587 127.902 154.931 127.902H154.167L154.329 126.148H156.194V126.648H154.806L154.736 127.396H155.039C156.004 127.396 156.378 127.809 156.378 128.381Z" fill="#263238"/>
<path d="M156.719 127.759C156.719 126.698 157.294 126.109 158.047 126.109C158.801 126.109 159.375 126.709 159.375 127.759C159.375 128.81 158.806 129.41 158.047 129.41C157.288 129.41 156.719 128.821 156.719 127.759ZM158.784 127.759C158.784 126.978 158.481 126.621 158.047 126.621C157.614 126.621 157.315 126.978 157.315 127.759C157.315 128.54 157.614 128.898 158.047 128.898C158.481 128.898 158.784 128.535 158.784 127.759Z" fill="#263238"/>
<path d="M172.514 133.479C172.514 133.562 166.687 133.622 159.506 133.622C152.324 133.622 146.498 133.562 146.498 133.479C146.498 133.397 152.324 133.336 159.506 133.336C166.687 133.336 172.514 133.402 172.514 133.479Z" fill="#263238"/>
<path d="M158.6 135.63C158.6 135.713 155.89 135.773 152.557 135.773C149.223 135.773 146.508 135.713 146.508 135.63C146.508 135.548 149.218 135.487 152.557 135.487C155.895 135.487 158.6 135.553 158.6 135.63Z" fill="#263238"/>
<path d="M194.182 116.22V116.737H193.83V116.226C193.44 116.209 193.063 116.077 192.746 115.846L192.947 115.379C193.211 115.582 193.527 115.705 193.857 115.731V114.807C193.353 114.686 192.811 114.515 192.811 113.877C192.811 113.41 193.147 112.997 193.857 112.926V112.409H194.231V112.92C194.557 112.932 194.874 113.029 195.153 113.201L194.963 113.663C194.739 113.529 194.489 113.445 194.231 113.415V114.345C194.735 114.471 195.283 114.631 195.283 115.274C195.234 115.742 194.914 116.149 194.182 116.22ZM193.808 114.251V113.432C193.483 113.481 193.348 113.646 193.348 113.85C193.348 114.053 193.543 114.174 193.83 114.251H193.808ZM194.654 115.313C194.654 115.087 194.453 114.983 194.182 114.906V115.72C194.513 115.67 194.654 115.5 194.654 115.313Z" fill="#263238"/>
<path d="M199.153 115.682V116.188H196.806V115.786L198.069 114.571C198.378 114.268 198.432 114.081 198.432 113.9C198.432 113.608 198.231 113.438 197.841 113.438C197.7 113.43 197.559 113.456 197.43 113.515C197.301 113.573 197.187 113.662 197.098 113.773L196.687 113.449C196.831 113.268 197.015 113.124 197.224 113.028C197.433 112.933 197.661 112.888 197.89 112.899C198.584 112.899 199.028 113.251 199.028 113.823C199.022 114.023 198.969 114.22 198.875 114.396C198.781 114.573 198.648 114.725 198.486 114.84L197.635 115.665L199.153 115.682Z" fill="#263238"/>
<path d="M200.263 115.835C200.255 115.973 200.22 116.108 200.16 116.231L199.927 116.88H199.559L199.743 116.176C199.677 116.149 199.62 116.102 199.581 116.041C199.542 115.98 199.523 115.908 199.526 115.835C199.526 115.736 199.565 115.641 199.634 115.571C199.703 115.501 199.797 115.461 199.895 115.461C199.992 115.461 200.086 115.501 200.155 115.571C200.224 115.641 200.263 115.736 200.263 115.835Z" fill="#263238"/>
<path d="M202.995 115.682V116.188H200.648V115.786L201.911 114.571C202.22 114.268 202.274 114.081 202.274 113.9C202.274 113.608 202.074 113.438 201.683 113.438C201.542 113.43 201.401 113.456 201.272 113.515C201.143 113.573 201.03 113.662 200.941 113.773L200.529 113.449C200.673 113.267 200.858 113.122 201.068 113.027C201.278 112.931 201.508 112.887 201.737 112.899C202.426 112.899 202.87 113.251 202.87 113.823C202.864 114.023 202.812 114.22 202.718 114.396C202.624 114.573 202.49 114.725 202.328 114.84L201.477 115.665L202.995 115.682Z" fill="#263238"/>
<path d="M205.646 115.198C205.646 115.748 205.245 116.232 204.388 116.232C203.961 116.241 203.543 116.11 203.196 115.858L203.445 115.396C203.713 115.603 204.041 115.713 204.377 115.709C204.8 115.709 205.049 115.522 205.049 115.22C205.049 114.917 204.854 114.714 204.199 114.714H203.429L203.597 112.959H205.461V113.465H204.096L204.025 114.208H204.329C205.272 114.208 205.646 114.626 205.646 115.198Z" fill="#263238"/>
<path d="M218.133 120.296C218.133 120.373 212.307 120.439 205.125 120.439C197.944 120.439 192.117 120.373 192.117 120.296C192.117 120.219 197.949 120.153 205.125 120.153C212.301 120.153 218.133 120.219 218.133 120.296Z" fill="#263238"/>
<path d="M204.231 122.447C204.231 122.524 201.521 122.59 198.182 122.59C194.843 122.59 192.139 122.524 192.139 122.447C192.139 122.37 194.849 122.304 198.182 122.304C201.515 122.304 204.231 122.37 204.231 122.447Z" fill="#263238"/>
<path d="M147.522 196.35V196.867H147.148V196.35C146.747 196.339 146.36 196.204 146.037 195.965L146.243 195.503C146.506 195.704 146.82 195.824 147.148 195.849V194.931C146.644 194.804 146.107 194.639 146.107 194.001C146.107 193.528 146.443 193.121 147.148 193.05V192.527H147.522V193.05C147.847 193.066 148.163 193.162 148.443 193.33L148.259 193.798C148.032 193.665 147.782 193.581 147.522 193.55V194.48C148.026 194.606 148.573 194.766 148.573 195.404C148.573 195.866 148.237 196.273 147.522 196.35ZM147.148 194.375V193.556C146.828 193.611 146.692 193.776 146.692 193.979C146.692 194.183 146.888 194.293 147.148 194.37V194.375ZM147.993 195.442C147.993 195.217 147.793 195.112 147.522 195.03V195.849C147.852 195.8 147.993 195.635 147.993 195.437V195.442Z" fill="#263238"/>
<path d="M150.188 194.7C150.188 193.639 150.762 193.05 151.516 193.05C152.269 193.05 152.844 193.644 152.844 194.7C152.844 195.756 152.275 196.35 151.516 196.35C150.757 196.35 150.188 195.756 150.188 194.7ZM152.253 194.7C152.253 193.925 151.949 193.562 151.516 193.562C151.082 193.562 150.784 193.925 150.784 194.7C150.784 195.476 151.082 195.839 151.516 195.839C151.949 195.839 152.253 195.476 152.253 194.7Z" fill="#263238"/>
<path d="M153.917 195.96C153.909 196.097 153.874 196.232 153.815 196.356L153.581 197.005H153.218L153.397 196.301C153.332 196.272 153.277 196.224 153.24 196.163C153.202 196.102 153.183 196.031 153.186 195.96C153.18 195.907 153.184 195.854 153.2 195.803C153.215 195.753 153.241 195.706 153.276 195.666C153.31 195.627 153.353 195.595 153.4 195.573C153.448 195.552 153.499 195.54 153.552 195.54C153.604 195.54 153.655 195.552 153.703 195.573C153.751 195.595 153.793 195.627 153.828 195.666C153.862 195.706 153.888 195.753 153.904 195.803C153.919 195.854 153.924 195.907 153.917 195.96Z" fill="#263238"/>
<path d="M156.611 195.316C156.611 195.866 156.21 196.356 155.354 196.356C154.927 196.365 154.508 196.233 154.161 195.982L154.41 195.514C154.677 195.723 155.006 195.836 155.343 195.833C155.765 195.833 156.015 195.646 156.015 195.338C156.015 195.03 155.82 194.838 155.164 194.838H154.394L154.562 193.083H156.432V193.6H155.066L154.996 194.348H155.299C156.237 194.332 156.611 194.744 156.611 195.316Z" fill="#263238"/>
<path d="M156.974 194.7C156.974 193.639 157.548 193.05 158.302 193.05C159.055 193.05 159.629 193.644 159.629 194.7C159.629 195.756 159.06 196.35 158.302 196.35C157.543 196.35 156.974 195.756 156.974 194.7ZM159.039 194.7C159.039 193.925 158.735 193.562 158.302 193.562C157.868 193.562 157.57 193.925 157.57 194.7C157.57 195.476 157.868 195.839 158.302 195.839C158.735 195.839 159.017 195.476 159.017 194.7H159.039Z" fill="#263238"/>
<path d="M171.478 200.42C171.478 200.497 165.646 200.563 158.47 200.563C151.294 200.563 145.462 200.497 145.462 200.42C145.462 200.343 151.288 200.277 158.47 200.277C165.651 200.277 171.478 200.338 171.478 200.42Z" fill="#263238"/>
<path d="M157.57 202.57C157.57 202.647 154.86 202.714 151.527 202.714C148.193 202.714 145.483 202.647 145.483 202.57C145.483 202.493 148.193 202.427 151.527 202.427C154.86 202.427 157.57 202.488 157.57 202.57Z" fill="#263238"/>
<path d="M192.069 178.893V179.41H191.7V178.899C191.298 178.888 190.909 178.754 190.583 178.514L190.789 178.052C191.054 178.253 191.37 178.373 191.7 178.398V177.48C191.196 177.353 190.654 177.188 190.654 176.55C190.654 176.077 190.99 175.67 191.7 175.599V175.076H192.069V175.588C192.394 175.604 192.71 175.7 192.99 175.868L192.806 176.336C192.58 176.202 192.329 176.117 192.069 176.088V177.018C192.573 177.144 193.12 177.304 193.12 177.942C193.12 178.415 192.784 178.822 192.069 178.893ZM191.7 176.919V176.099C191.375 176.154 191.239 176.319 191.239 176.523C191.239 176.726 191.434 176.842 191.7 176.919ZM192.54 177.986C192.54 177.76 192.34 177.656 192.069 177.573V178.393C192.399 178.338 192.54 178.2 192.54 177.986Z" fill="#263238"/>
<path d="M195.835 175.632V178.855H195.244V176.132H194.572V175.632H195.835Z" fill="#263238"/>
<path d="M197.196 178.508C197.188 178.646 197.153 178.78 197.093 178.904L196.86 179.553H196.492L196.671 178.849C196.606 178.82 196.551 178.773 196.513 178.712C196.475 178.651 196.457 178.58 196.459 178.508C196.459 178.409 196.498 178.314 196.567 178.244C196.636 178.174 196.73 178.134 196.828 178.134C196.926 178.134 197.019 178.174 197.088 178.244C197.157 178.314 197.196 178.409 197.196 178.508Z" fill="#263238"/>
<path d="M197.521 177.243C197.521 176.182 198.096 175.593 198.849 175.593C199.602 175.593 200.177 176.187 200.177 177.243C200.177 178.299 199.635 178.893 198.849 178.893C198.063 178.893 197.521 178.305 197.521 177.243ZM199.586 177.243C199.586 176.468 199.282 176.105 198.849 176.105C198.415 176.105 198.117 176.468 198.117 177.243C198.117 178.019 198.415 178.382 198.849 178.382C199.282 178.382 199.586 178.024 199.586 177.243Z" fill="#263238"/>
<path d="M200.578 177.243C200.578 176.182 201.153 175.593 201.906 175.593C202.659 175.593 203.234 176.187 203.234 177.243C203.234 178.299 202.665 178.893 201.906 178.893C201.147 178.893 200.578 178.305 200.578 177.243ZM202.643 177.243C202.643 176.468 202.34 176.105 201.906 176.105C201.472 176.105 201.174 176.468 201.174 177.243C201.174 178.019 201.472 178.382 201.906 178.382C202.34 178.382 202.643 178.024 202.643 177.243Z" fill="#263238"/>
<path d="M216.052 182.968C216.052 183.045 210.22 183.111 203.044 183.111C195.868 183.111 190.036 183.045 190.036 182.968C190.036 182.891 195.863 182.82 203.044 182.82C210.226 182.82 216.052 182.886 216.052 182.968Z" fill="#263238"/>
<path d="M202.117 185.119C202.117 185.196 199.407 185.262 196.074 185.262C192.741 185.262 190.031 185.196 190.031 185.119C190.031 185.042 192.741 184.971 196.074 184.971C199.407 184.971 202.117 185.037 202.117 185.119Z" fill="#263238"/>
<path d="M196.41 59.6915C196.41 59.7685 190.128 59.8345 182.383 59.8345C174.638 59.8345 168.351 59.7685 168.351 59.6915C168.351 59.6145 174.632 59.5485 182.383 59.5485C190.134 59.5485 196.41 59.609 196.41 59.6915Z" fill="#1FB545"/>
<path d="M13.6691 230.478C12.8306 230.512 12.0278 230.831 11.3891 231.384C10.7504 231.936 10.3128 232.69 10.1461 233.525C9.7939 234.866 9.51703 236.227 9.31685 237.6C9.31685 237.6 6.13531 240.504 9.31685 241.28C12.4984 242.055 13.6528 237.705 13.6528 237.705L14.1407 230.456L13.6691 230.478Z" fill="#FFBE9D"/>
<path d="M45.5278 174.9C45.5278 174.9 55.4681 141.025 56.4817 139.568C58.151 137.153 74.243 129.893 74.243 129.893L78.579 120.961L105.305 116.6L111.934 125.257L130.562 139.15L129.261 187.066L128.568 220.522L132.096 262.289L47.4899 262.13L51.3164 253.33L55.3326 177.364L45.5278 174.9Z" fill="#1FB545"/>
<path d="M56.9912 170.33C56.9666 170.24 56.9556 170.147 56.9587 170.055C56.9587 169.84 56.9587 169.582 56.9154 169.268C56.9154 168.586 56.8557 167.618 56.8341 166.381C56.7907 163.939 56.7907 160.567 56.8937 156.844C56.9967 153.12 57.1918 149.754 57.3761 147.318C57.4628 146.102 57.5495 145.118 57.62 144.441L57.7012 143.66C57.7095 143.569 57.7258 143.479 57.75 143.391C57.7654 143.482 57.7654 143.574 57.75 143.666C57.75 143.875 57.75 144.133 57.7175 144.447C57.6796 145.173 57.6254 146.146 57.5603 147.334C57.4303 149.771 57.2677 153.131 57.1647 156.855C57.0617 160.578 57.0292 163.939 57.0238 166.381C57.0238 167.569 57.0238 168.542 57.0238 169.268C57.0238 169.582 57.0238 169.818 57.0238 170.055C57.0259 170.147 57.0149 170.24 56.9912 170.33Z" fill="#263238"/>
<g opacity="0.3">
<path opacity="0.3" d="M76.1563 160.6C76.1358 160.221 76.2449 159.846 76.4652 159.539C76.8364 159.077 77.3451 158.75 77.9149 158.608C78.4848 158.465 79.0849 158.514 79.6251 158.747C81.0397 159.434 81.7443 161.084 82.0316 162.652C82.3405 164.368 82.2971 166.139 82.6169 167.855C82.9367 169.571 83.7009 171.32 85.1914 172.205C87.0288 173.305 89.4407 172.81 91.3702 173.734C94.2428 175.104 94.9095 178.893 95.0558 182.116C95.3268 188.216 95.0558 194.321 94.8065 200.42L93.148 239.371L91.6358 258.913L83.8527 262.268L73.5547 193.6L76.1563 160.6Z" fill="black"/>
</g>
<path d="M78.3841 155.034C78.3257 155.085 78.2573 155.122 78.1836 155.144C77.9719 155.221 77.7447 155.243 77.5223 155.21C77.115 155.137 76.7352 154.952 76.4238 154.676C76.1124 154.399 75.8813 154.042 75.7554 153.642C75.5882 153.095 75.5347 152.518 75.5982 151.948C75.67 151.311 75.7749 150.677 75.9126 150.051C76.1727 148.72 76.4546 147.268 76.7581 145.744C77.3651 142.692 77.9288 139.931 78.3516 137.934L78.8936 135.575C78.946 135.284 79.0203 134.997 79.1158 134.717C79.1047 135.013 79.0666 135.308 79.002 135.597C78.8881 136.207 78.7472 137.01 78.5738 137.978C78.1998 139.98 77.6632 142.747 77.0562 145.799C76.7472 147.323 76.4546 148.775 76.189 150.1C75.9234 151.426 75.647 152.625 75.9668 153.582C76.0761 153.955 76.2812 154.293 76.5612 154.56C76.8412 154.826 77.186 155.013 77.5602 155.1C77.8363 155.14 78.1177 155.117 78.3841 155.034Z" fill="#263238"/>
<path d="M81.1264 142.29C81.1264 142.318 80.9042 142.318 80.5357 142.433C80.0186 142.607 79.5639 142.932 79.2294 143.369C78.9779 143.678 78.8089 144.048 78.7387 144.443C78.6685 144.838 78.6994 145.244 78.8284 145.623C78.9701 146.094 79.2479 146.511 79.6259 146.819C80.0039 147.127 80.4645 147.313 80.9479 147.352C81.4312 147.391 81.915 147.282 82.3364 147.038C82.7578 146.795 83.0972 146.428 83.3107 145.986C83.4973 145.633 83.5914 145.237 83.5838 144.837C83.5762 144.436 83.4672 144.044 83.2673 143.698C83.007 143.213 82.6085 142.818 82.1237 142.565C81.7768 142.389 81.5817 142.356 81.5817 142.329C81.5817 142.301 81.6359 142.329 81.7389 142.329C81.8921 142.35 82.0417 142.393 82.1833 142.456C82.7175 142.683 83.1645 143.081 83.457 143.588C83.6643 143.939 83.792 144.331 83.831 144.738C83.8736 145.21 83.7794 145.684 83.56 146.102C83.3276 146.596 82.9528 147.007 82.4853 147.281C82.0178 147.554 81.4795 147.677 80.9416 147.634C80.4036 147.59 79.8914 147.382 79.4724 147.037C79.0535 146.692 78.7477 146.226 78.5953 145.7C78.4429 145.252 78.4241 144.768 78.5411 144.309C78.6663 143.829 78.9158 143.392 79.2637 143.043C79.6115 142.694 80.0451 142.445 80.5194 142.323C80.6696 142.283 80.8247 142.264 80.9801 142.269C81.0298 142.267 81.0793 142.274 81.1264 142.29Z" fill="#263238"/>
<path d="M90.2264 177.309L41.3597 168.333L18.5469 173.415L69.5924 182.738L90.2264 177.309Z" fill="#1FB545"/>
<g opacity="0.6">
<path opacity="0.6" d="M90.2264 177.309L41.3597 168.333L18.5469 173.415L69.5924 182.738L90.2264 177.309Z" fill="black"/>
</g>
<path d="M58.9805 198.935C59.6417 189.794 62.1132 166.578 63.9669 157.608C64.5089 154.924 65.1593 152.179 66.6769 149.908C68.1945 147.636 70.872 145.975 73.5386 146.393C75.9234 146.767 77.8421 148.731 78.8068 150.975C79.7494 153.245 80.1702 155.704 80.0372 158.163C79.5765 169.251 78.6334 181.67 78.6442 191.95" fill="#455A64"/>
<path d="M75.5279 177.166C74.9348 177.392 74.3305 177.586 73.7176 177.749C70.8006 178.664 68.009 179.948 65.4087 181.571C64.8845 181.934 64.3417 182.268 63.7827 182.572C63.7827 182.572 63.9074 182.435 64.1675 182.226C64.4277 182.017 64.8125 181.736 65.3003 181.401C66.5811 180.538 67.9277 179.78 69.3274 179.135C70.7276 178.489 72.1778 177.961 73.6634 177.556C74.2325 177.402 74.6986 177.292 75.0184 177.232C75.1847 177.188 75.3559 177.165 75.5279 177.166Z" fill="#263238"/>
<path d="M76.341 166.617C76.341 166.661 75.6093 166.826 74.4386 167.195C71.3827 168.148 68.5283 169.669 66.0213 171.683C65.062 172.453 64.5037 172.981 64.4712 172.948C64.5724 172.797 64.6907 172.658 64.8235 172.535C65.062 172.282 65.4251 171.936 65.9075 171.529C67.1341 170.464 68.4739 169.542 69.902 168.779C71.3306 168.017 72.8374 167.418 74.3952 166.991C74.8644 166.858 75.3403 166.749 75.8207 166.667C75.9906 166.623 76.1661 166.606 76.341 166.617Z" fill="#263238"/>
<path d="M75.2457 158.125C75.2457 158.174 74.6657 158.202 73.7498 158.372C72.5588 158.597 71.4042 158.987 70.3189 159.533C69.2363 160.085 68.2333 160.784 67.3379 161.612C66.6496 162.25 66.2539 162.712 66.2539 162.673C66.2539 162.635 66.3189 162.536 66.4761 162.321C66.699 162.018 66.9436 161.731 67.2078 161.463C68.9619 159.671 71.2466 158.512 73.7118 158.163C74.0818 158.111 74.4549 158.086 74.8283 158.086C75.0993 158.092 75.2403 158.103 75.2457 158.125Z" fill="#263238"/>
<path d="M69.1697 184.569C69.1673 184.585 69.1673 184.602 69.1697 184.619V216.354C69.1697 217.745 68.0857 219.181 66.0316 220.27C63.9774 221.359 61.0451 222.101 57.3595 222.107H57.3108C49.9125 222.107 45.4897 219.142 45.4897 216.354V184.619C45.4911 184.602 45.4911 184.585 45.4897 184.569C45.4897 184.569 45.4897 184.531 45.4897 184.509C45.4897 181.407 47.7499 178.167 50.0154 174.966C51.533 172.832 51.8962 169.752 51.9666 167.948C51.9666 167.728 51.9666 167.536 51.9666 167.36H51.7607C51.5453 167.378 51.3284 167.353 51.1227 167.286C50.9169 167.219 50.7265 167.11 50.5625 166.968C50.3985 166.825 50.2642 166.65 50.1674 166.454C50.0707 166.258 50.0135 166.044 49.9992 165.825V164.483C50.0121 164.263 50.0683 164.048 50.1644 163.851C50.2606 163.653 50.3946 163.477 50.5588 163.333C50.723 163.189 50.9139 163.08 51.1203 163.012C51.3267 162.944 51.5445 162.919 51.7607 162.938H62.8717C63.2019 162.927 63.5286 163.009 63.8156 163.175C64.1026 163.341 64.3387 163.584 64.4977 163.878C64.5864 164.067 64.6327 164.274 64.6332 164.483V165.825C64.6189 166.044 64.5615 166.259 64.4644 166.455C64.3674 166.652 64.2326 166.827 64.068 166.97C63.9034 167.113 63.7123 167.221 63.5059 167.288C63.2995 167.355 63.0821 167.379 62.8663 167.36H62.6657C62.6657 167.536 62.6657 167.728 62.6657 167.948C62.7362 169.752 63.0993 172.832 64.6223 174.966C66.8825 178.167 69.1318 181.407 69.1481 184.509C69.1697 184.531 69.1697 184.558 69.1697 184.569Z" fill="#FAFAFA"/>
<path d="M69.1705 184.569C69.1778 184.461 69.1778 184.352 69.1705 184.244C69.1507 183.927 69.1127 183.611 69.0567 183.298C68.7965 182.092 68.3599 180.931 67.7613 179.855C66.7992 178.148 65.7311 176.503 64.5635 174.933C63.8734 173.896 63.3807 172.738 63.111 171.517C62.7896 170.157 62.6223 168.764 62.6123 167.365V167.266H62.7099C63.1207 167.294 63.5304 167.196 63.886 166.985C64.0648 166.88 64.2186 166.737 64.3366 166.565C64.4547 166.393 64.534 166.196 64.5689 165.99C64.5689 165.566 64.5689 165.088 64.5689 164.631C64.5877 164.411 64.5536 164.19 64.4696 163.986C64.3856 163.781 64.2542 163.601 64.0866 163.46C63.7324 163.168 63.2847 163.02 62.8291 163.042H58.3305H51.9295C51.6667 163.018 51.402 163.052 51.1533 163.142C50.9046 163.231 50.6776 163.373 50.4878 163.559C50.3068 163.75 50.186 163.991 50.1409 164.252C50.1268 164.532 50.1268 164.813 50.1409 165.093C50.1409 165.374 50.1409 165.693 50.1409 165.951C50.1791 166.219 50.2963 166.468 50.4769 166.666C50.6705 166.866 50.906 167.02 51.1659 167.115C51.4258 167.21 51.7034 167.245 51.9783 167.216H52.1084V167.354C52.0994 168.648 51.9614 169.938 51.6964 171.204C51.4335 172.521 50.9258 173.775 50.2005 174.9C49.4363 176 48.6504 177.1 47.9241 178.266C47.1725 179.424 46.5542 180.666 46.0813 181.967C45.8514 182.628 45.7039 183.315 45.6423 184.013C45.6043 184.701 45.6423 185.438 45.6423 186.153V199.518C45.6423 204.858 45.6423 210.078 45.6423 215.116C45.6129 215.731 45.6419 216.348 45.729 216.958C45.8814 217.539 46.1738 218.072 46.58 218.509C47.3971 219.391 48.3891 220.086 49.4905 220.55C50.5718 221.009 51.6983 221.35 52.8509 221.567C53.9797 221.784 55.1229 221.915 56.2709 221.958C58.4816 222.072 60.6971 221.867 62.8508 221.347C63.8795 221.093 64.8774 220.724 65.8264 220.247C66.7452 219.803 67.5671 219.177 68.2437 218.405C68.5599 218.026 68.801 217.589 68.9537 217.118C69.0675 216.641 69.1077 216.15 69.073 215.66V212.734C69.073 210.826 69.073 208.989 69.073 207.234C69.073 200.238 69.1055 194.584 69.1163 190.646C69.1272 186.708 69.1651 184.563 69.1651 184.563C69.1815 184.697 69.1815 184.832 69.1651 184.965C69.1651 185.24 69.1651 185.63 69.1651 186.136C69.1651 187.176 69.1651 188.694 69.1651 190.646C69.1651 194.573 69.1651 200.238 69.2085 207.234C69.2085 208.983 69.2085 210.82 69.2085 212.734V216.408C69.2015 216.671 69.1614 216.932 69.0892 217.184C68.9295 217.686 68.6735 218.152 68.3358 218.553C67.6427 219.354 66.7963 220.003 65.8481 220.462C64.8841 220.939 63.8718 221.307 62.8291 221.562C60.6795 222.084 58.4684 222.299 56.2601 222.2C55.0993 222.159 53.9433 222.028 52.8021 221.809C51.6294 221.588 50.483 221.241 49.3821 220.775C48.2413 220.309 47.2133 219.598 46.3686 218.691C45.9315 218.228 45.6165 217.66 45.4526 217.041C45.3559 216.41 45.3232 215.77 45.355 215.132V186.164C45.355 185.438 45.355 184.734 45.355 184.002C45.4207 183.282 45.5736 182.573 45.8103 181.89C46.2905 180.567 46.9197 179.305 47.6856 178.128C48.4119 176.957 49.2087 175.851 49.9729 174.757C50.6738 173.657 51.1647 172.433 51.42 171.149C51.6813 169.905 51.8211 168.637 51.8374 167.365L51.962 167.491C51.6524 167.519 51.3406 167.477 51.0491 167.368C50.7575 167.258 50.4936 167.084 50.2764 166.859C50.06 166.624 49.9216 166.326 49.8807 166.006C49.8807 165.682 49.8807 165.412 49.8807 165.115C49.8648 164.82 49.8648 164.525 49.8807 164.23C49.937 163.921 50.0822 163.636 50.2981 163.41C50.5122 163.2 50.7678 163.038 51.0482 162.936C51.3285 162.834 51.627 162.793 51.9241 162.816H58.3251H62.7966C63.3004 162.797 63.7938 162.966 64.1841 163.289C64.3731 163.451 64.521 163.656 64.6153 163.888C64.7096 164.119 64.7476 164.371 64.7261 164.62C64.7261 165.093 64.7261 165.528 64.7261 166.006C64.6882 166.241 64.5995 166.465 64.4665 166.66C64.3334 166.856 64.1592 167.02 63.9565 167.139C63.5694 167.367 63.1235 167.471 62.6774 167.436L62.7641 167.348C62.8129 170.247 63.3657 172.931 64.6557 174.834C65.8155 176.412 66.8728 178.066 67.8209 179.784C68.4164 180.871 68.8407 182.045 69.0784 183.265C69.1306 183.591 69.1614 183.92 69.1705 184.25C69.1893 184.355 69.1893 184.463 69.1705 184.569Z" fill="#263238"/>
<path d="M62.0595 167.282C60.4159 167.427 58.7655 167.475 57.1164 167.425C55.4656 167.475 53.8133 167.427 52.168 167.282C53.8135 167.141 55.4656 167.093 57.1164 167.139C58.7655 167.093 60.4157 167.141 62.0595 167.282Z" fill="#263238"/>
<path d="M68.1835 188.81C67.1862 188.15 65.8692 188.441 64.796 188.958C63.7229 189.475 62.7093 190.195 61.544 190.382C60.1728 190.608 58.7907 190.052 57.5712 189.354C56.3517 188.655 55.1972 187.792 53.8856 187.314C52.6134 186.877 51.2462 186.812 49.9393 187.125C48.6324 187.438 47.4382 188.117 46.4927 189.085V216.331C46.4927 216.331 47.9669 220.979 58.3516 220.253C68.7364 219.527 67.9179 214.869 67.9179 214.869L68.1835 188.81Z" fill="#1FB545"/>
<path d="M40.6716 170.264C40.8252 169.258 40.7808 168.231 40.541 167.243C40.3012 166.255 39.8708 165.325 39.2745 164.506C38.6783 163.688 37.9281 162.998 37.0673 162.476C36.2066 161.953 35.2523 161.609 34.2597 161.464C34.0778 161.416 33.8851 161.437 33.7177 161.524C33.4955 161.678 33.4901 162.003 33.5118 162.272C33.6933 164.238 34.4833 166.094 35.7685 167.576C37.0537 169.058 38.7681 170.089 40.6662 170.522" fill="#455A64"/>
<path d="M30.0108 184.514C31.9295 188.529 34.6883 191.235 38.1083 191.367C38.7912 191.367 39.3061 190.932 39.9565 190.894C40.3347 190.983 40.6993 191.124 41.0405 191.312C41.2119 191.389 41.3955 191.433 41.5825 191.444C45.1164 191.251 48.1245 188.732 50.1516 184.514C52.9754 178.612 52.1028 172.271 48.2058 170.34C47.6943 170.082 47.161 169.87 46.6123 169.708C45.9818 169.536 45.33 169.458 44.6774 169.477C43.1707 169.586 41.6898 169.931 40.2872 170.5L40.0975 170.571C36.9268 169.152 34.401 169.141 31.9675 170.346C28.0488 172.271 27.1816 178.612 30.0108 184.514Z" fill="#1FB545"/>
<path d="M30.0759 178.535C29.8909 178.165 29.7804 177.761 29.7507 177.347C29.6354 176.348 29.7545 175.336 30.0983 174.392C30.4421 173.449 31.0009 172.601 31.729 171.919C32.0162 171.623 32.3591 171.39 32.7371 171.231C32.7371 171.275 32.3794 171.528 31.8645 172.062C31.2065 172.76 30.6956 173.587 30.3631 174.493C30.0332 175.4 29.8929 176.366 29.9512 177.331C29.9946 178.068 30.1463 178.519 30.0759 178.535Z" fill="#FAFAFA"/>
<path d="M30.7966 181.34C30.7207 181.34 30.5906 181.082 30.5093 180.719C30.428 180.356 30.4226 180.053 30.5093 180.037C30.596 180.02 30.7099 180.295 30.7966 180.658C30.8833 181.021 30.8725 181.324 30.7966 181.34Z" fill="#FAFAFA"/>
<path d="M48.7258 160.6C48.7258 160.65 47.9995 160.936 46.8992 161.607C46.2591 161.998 45.6502 162.439 45.0781 162.927C44.3821 163.53 43.7384 164.192 43.154 164.907C42.5813 165.632 42.07 166.404 41.6256 167.217C41.2693 167.883 40.9649 168.576 40.715 169.29C40.2868 170.511 40.173 171.314 40.1025 171.303C40.1027 171.118 40.1227 170.934 40.1622 170.753C40.1887 170.532 40.2322 170.313 40.2922 170.099C40.3548 169.809 40.4326 169.522 40.5253 169.241C40.7533 168.504 41.0453 167.79 41.3979 167.107C42.2642 165.424 43.4614 163.94 44.9155 162.745C45.5058 162.257 46.139 161.824 46.8071 161.453C47.0835 161.282 47.3491 161.167 47.5876 161.051C47.784 160.951 47.9868 160.865 48.1946 160.793C48.3635 160.707 48.5418 160.643 48.7258 160.6Z" fill="#263238"/>
<path d="M18.5471 173.415L12.4062 252.021L69.6415 266.062C69.6415 266.062 89.6087 259.193 89.8797 258.725C90.1507 258.258 90.2266 177.325 90.2266 177.325L69.5927 182.754L18.5471 173.415Z" fill="#1FB545"/>
<g opacity="0.4">
<path opacity="0.4" d="M18.5471 173.415L12.4062 252.021L69.6415 266.062C69.6415 266.062 89.6087 259.193 89.8797 258.725C90.1507 258.258 90.2266 177.325 90.2266 177.325L69.5927 182.754L18.5471 173.415Z" fill="black"/>
</g>
<path d="M108.319 81.851L105.127 127.726C104.876 131.336 103.285 134.715 100.676 137.182C98.0672 139.649 94.6334 141.021 91.0673 141.02C89.1365 141.024 87.2255 140.626 85.4529 139.849C83.6802 139.073 82.0836 137.935 80.7623 136.507C79.4409 135.078 78.4229 133.389 77.7715 131.545C77.12 129.701 76.849 127.74 76.9753 125.785C77.2571 121.418 77.5173 117.837 77.5173 117.837C77.5173 117.837 66.5743 116.11 66.4388 105.006C66.3629 98.593 67.4523 84.04 68.3846 72.8915C68.6906 69.2501 70.3345 65.8585 72.9902 63.3898C75.6458 60.9212 79.119 59.5559 82.7205 59.565H89.3275C92.0295 59.7261 94.6722 60.435 97.0996 61.65C99.527 62.865 101.69 64.5614 103.46 66.6389C105.231 68.7165 106.573 71.133 107.407 73.7458C108.242 76.3586 108.552 79.1146 108.319 81.851Z" fill="#FFBE9D"/>
<path d="M77.5389 117.838C77.5389 117.838 84.4385 118.25 91.7881 113.564C91.7881 113.564 88.2651 121.644 77.3438 120.643L77.5389 117.838Z" fill="#EB996E"/>
<path d="M70.4601 84.3425C70.6552 84.5515 71.8368 83.6604 73.5224 83.6659C75.208 83.6714 76.433 84.5239 76.6172 84.3149C76.704 84.2214 76.5088 83.8529 75.9723 83.4514C75.2439 82.9427 74.3796 82.6721 73.4953 82.6759C72.6202 82.6771 71.7674 82.956 71.0563 83.4734C70.5414 83.8804 70.368 84.2545 70.4601 84.3425Z" fill="#263238"/>
<path d="M88.6821 86.3058C88.6804 86.7186 88.8364 87.116 89.1174 87.4145C89.3984 87.7129 89.7825 87.8892 90.1889 87.9063C90.3887 87.9236 90.59 87.9 90.7807 87.837C90.9714 87.774 91.1478 87.6729 91.2993 87.5396C91.4509 87.4063 91.5746 87.2435 91.6632 87.0609C91.7517 86.8783 91.8033 86.6795 91.8149 86.4763C91.8194 86.0627 91.6643 85.6638 91.3827 85.3647C91.1012 85.0656 90.7155 84.8902 90.3081 84.8758C90.1081 84.8578 89.9066 84.8808 89.7156 84.9435C89.5245 85.0062 89.3479 85.1073 89.1961 85.2407C89.0444 85.3742 88.9207 85.5372 88.8324 85.7202C88.7441 85.9032 88.693 86.1024 88.6821 86.3058Z" fill="#263238"/>
<path d="M71.9776 86.3061C71.9745 86.7193 72.13 87.1174 72.4113 87.4162C72.6926 87.715 73.0775 87.8909 73.4844 87.9066C73.6843 87.9246 73.8859 87.9016 74.0769 87.8389C74.268 87.7762 74.4446 87.6751 74.5963 87.5417C74.7481 87.4082 74.8718 87.2452 74.9601 87.0622C75.0484 86.8792 75.0995 86.68 75.1103 86.4766C75.1163 86.0635 74.9624 85.6645 74.6817 85.3653C74.401 85.0661 74.0159 84.8904 73.609 84.8761C73.4084 84.8565 73.206 84.8784 73.014 84.9404C72.822 85.0025 72.6444 85.1034 72.4919 85.237C72.3394 85.3707 72.2152 85.5343 72.1268 85.7181C72.0384 85.9018 71.9876 86.1019 71.9776 86.3061Z" fill="#263238"/>
<path d="M86.8229 84.3479C87.018 84.5514 88.205 83.6604 89.8852 83.6659C91.5654 83.6714 92.7957 84.5239 92.98 84.3149C93.0667 84.2214 92.8716 83.8529 92.335 83.4514C91.6066 82.9427 90.7424 82.6721 89.8581 82.6759C88.983 82.6771 88.1302 82.956 87.4191 83.4734C86.9042 83.8804 86.7308 84.2544 86.8229 84.3479Z" fill="#263238"/>
<path d="M80.7201 96.998C80.7201 96.9045 79.6849 96.723 78.0101 96.503C77.5819 96.4535 77.1754 96.371 77.105 96.074C77.0659 95.624 77.1643 95.1728 77.3868 94.7815L78.6605 91.4815C80.422 86.757 81.7011 82.874 81.5114 82.8025C81.3217 82.731 79.7391 86.504 77.9776 91.2285C77.5259 92.3762 77.1194 93.4817 76.7581 94.545C76.4919 95.0721 76.4134 95.6764 76.5359 96.2555C76.5988 96.4095 76.6955 96.547 76.8185 96.6575C76.9415 96.768 77.0876 96.8487 77.2459 96.8935C77.4827 96.9592 77.7267 96.9943 77.9722 96.998C79.6578 97.0915 80.7147 97.097 80.7201 96.998Z" fill="#263238"/>
<path d="M85.6685 98.1805C85.3975 98.1805 85.3921 100.017 83.8311 101.332C82.2702 102.646 80.3244 102.432 80.3081 102.701C80.3081 102.817 80.7417 103.059 81.5655 103.086C82.6346 103.1 83.6744 102.732 84.5032 102.047C85.2968 101.385 85.8075 100.437 85.9287 99.4015C85.9991 98.6315 85.7932 98.1695 85.6685 98.1805Z" fill="#263238"/>
<path d="M86.3895 78.7985C86.5575 79.2605 88.2323 79.0405 90.1835 79.2825C92.1347 79.5245 93.7553 80.069 94.0154 79.6565C94.1347 79.4585 93.8528 79.0185 93.2133 78.5565C92.3582 77.9981 91.3849 77.6532 90.3732 77.55C89.3639 77.4255 88.3399 77.5481 87.3868 77.9075C86.6822 78.2155 86.319 78.5785 86.3895 78.7985Z" fill="#263238"/>
<path d="M70.6933 79.4586C70.9914 79.8491 72.1513 79.4586 73.5443 79.4256C74.9372 79.3926 76.1134 79.6896 76.3898 79.2826C76.5036 79.0846 76.3193 78.6941 75.8044 78.3311C75.1128 77.8895 74.307 77.6672 73.4902 77.6926C72.6735 77.7181 71.8827 77.9902 71.2191 78.4741C70.7259 78.8701 70.5633 79.2716 70.6933 79.4586Z" fill="#263238"/>
<path d="M104.628 90.1999C104.818 90.1174 112.151 87.9449 111.912 95.5349C111.674 103.125 104.211 101.315 104.205 101.101C104.2 100.886 104.628 90.1999 104.628 90.1999Z" fill="#FFBE9D"/>
<path d="M106.568 98.2795C106.6 98.2795 106.698 98.3785 106.915 98.4885C107.22 98.6321 107.567 98.6498 107.885 98.538C108.687 98.2685 109.392 97.02 109.468 95.6505C109.511 95.001 109.407 94.3501 109.164 93.7475C109.101 93.5076 108.982 93.2867 108.817 93.1038C108.652 92.9208 108.446 92.7812 108.216 92.697C108.067 92.6517 107.907 92.6611 107.764 92.7234C107.621 92.7858 107.505 92.8972 107.435 93.038C107.327 93.247 107.37 93.401 107.332 93.412C107.294 93.423 107.175 93.28 107.245 92.9665C107.295 92.7805 107.404 92.6163 107.554 92.499C107.765 92.3479 108.026 92.2867 108.281 92.3285C108.586 92.401 108.868 92.5512 109.1 92.7648C109.332 92.9784 109.507 93.2484 109.608 93.5495C109.904 94.219 110.036 94.9511 109.993 95.6835C109.896 97.2125 109.077 98.615 107.988 98.901C107.785 98.9531 107.573 98.9584 107.367 98.9165C107.162 98.8746 106.968 98.7866 106.801 98.659C106.568 98.45 106.568 98.296 106.568 98.2795Z" fill="#EB996E"/>
<path d="M108.79 89.9251C107.652 89.6446 105.679 90.7171 105.191 91.8006C104.703 92.8841 104.595 94.1106 104.107 95.1941C103.619 96.2776 102.525 97.2621 101.397 96.9871C101.01 96.8633 100.663 96.6379 100.389 96.3336C100.116 96.0293 99.9272 95.657 99.8417 95.2546C99.6844 94.4466 99.6844 93.6151 99.8417 92.8071C100.281 89.2596 101.012 85.7451 101.153 82.1756C101.294 78.6061 100.796 74.8936 98.9474 71.8521C97.0992 68.8106 93.7062 66.5721 90.1941 66.8581C87.8689 67.0506 85.7388 68.2826 83.4299 68.6071C82.0559 68.7917 80.6586 68.6563 79.3439 68.2113C78.0291 67.7663 76.8315 67.0232 75.8419 66.0386C75.5872 65.7856 74.4219 64.9991 74.4219 64.9991C74.4219 64.8176 74.5899 63.2336 75.2078 62.6561C79.7877 58.3551 88.0478 57.1561 94.1019 58.7016C100.156 60.2471 105.831 64.5811 108.432 70.3396C111.034 76.0981 110.264 84.0896 108.828 89.9251" fill="#263238"/>
<path d="M67.2081 70.8894C68.1891 73.1939 70.6931 74.5359 73.1701 74.7889C75.647 75.0419 78.0914 74.3929 80.4708 73.6889C82.8502 72.9849 89.2404 71.9289 91.7173 72.0059C92.0859 72.0059 92.5303 72.0059 92.7309 71.6924C92.991 71.2689 92.5737 70.7574 92.1889 70.4549C88.9369 67.8589 81.0399 66.2694 76.899 66.0934C72.7582 65.9174 68.4167 67.7434 66.1729 71.2579" fill="#263238"/>
<path d="M68.2866 71.1755C68.2866 71.1755 97.0126 61.8255 109.414 87.01C109.414 87.01 111.267 80.7015 111.267 77.319C111.267 75.064 109.939 61.611 96.3026 57.3815C96.3026 57.3815 75.7554 49.4285 68.2866 71.1755Z" fill="#1FB545"/>
<g opacity="0.4">
<path opacity="0.4" d="M68.2866 71.1755C70.6747 68.6236 73.9487 67.1163 77.4139 66.9735C85.8854 66.5885 101.733 71.423 109.392 87.01C109.392 87.01 111.246 80.7015 111.246 77.319C111.246 75.064 109.918 61.611 96.2809 57.3815C96.3026 57.3815 75.7554 49.4285 68.2866 71.1755Z" fill="black"/>
</g>
<path d="M108.194 84.0564C103.84 77.4776 98.1337 71.9332 91.468 67.8039C84.8881 63.6184 73.9776 59.4824 66.4601 57.4529C64.2054 56.8479 61.8531 56.3144 59.5496 56.7214C57.2461 57.1284 54.9914 58.6794 54.4223 60.9784C53.7068 63.8549 58.7583 68.2934 61.1051 70.0369C63.4219 71.6039 65.8211 73.0415 68.292 74.3434C68.292 74.3434 68.227 69.0084 76.6443 67.9084C88.0859 66.4124 108.194 84.0564 108.194 84.0564Z" fill="#1FB545"/>
<path d="M84.671 62.2876C84.671 62.2876 80.5301 59.9666 76.3784 59.4276C77.0697 58.8745 77.8274 58.4125 78.6331 58.0526C80.8885 58.4318 83.0695 59.1746 85.0938 60.2526L84.671 62.2876Z" fill="#FAFAFA"/>
<path d="M120.736 137.962C120.736 137.962 112.888 147.065 113.755 159.731C113.874 161.486 113.961 163.933 114.172 165.682C115.495 176.55 117.543 186.637 117.543 186.637H118.291L145.657 179.779C145.657 179.779 141.532 155.672 140.584 152.471C137.554 142.225 127.164 136.587 127.164 136.587L120.736 137.962Z" fill="#1FB545"/>
<path d="M89.8797 258.725C89.8797 258.725 89.8797 258.588 89.8797 258.318C89.8797 258.049 89.8797 257.636 89.8797 257.108C89.8797 256.041 89.8797 254.479 89.8797 252.461C89.8797 248.407 89.8797 242.561 89.9122 235.235C89.961 220.61 90.0314 200.26 90.1127 177.309L90.2862 177.446L79.8798 180.196L69.6577 182.886L69.7606 182.748C69.9016 194.254 69.8636 205.111 69.8094 214.923C69.7552 224.735 69.701 233.497 69.6577 240.823C69.6143 248.149 69.6577 254.023 69.6577 258.093C69.6577 260.117 69.6577 261.684 69.6577 262.757V263.967C69.6577 264.236 69.6577 264.374 69.6577 264.374C69.6577 264.374 69.6577 264.236 69.6577 263.967C69.6577 263.697 69.6577 263.285 69.6577 262.757C69.6577 261.657 69.6197 260.117 69.5872 258.093C69.5384 254.039 69.5059 248.149 69.5113 240.823C69.5168 233.497 69.571 224.73 69.6035 214.923C69.636 205.117 69.6685 194.254 69.5222 182.754V182.638L69.6306 182.611L79.8473 179.921L90.2591 177.171L90.438 177.122V177.309C90.3187 200.26 90.2157 220.616 90.1453 235.235C90.0965 242.539 90.0531 248.407 90.026 252.461C90.026 254.479 89.9935 256.041 89.9827 257.108C89.9827 257.658 89.9827 258.038 89.9827 258.318C89.9827 258.599 89.8797 258.725 89.8797 258.725Z" fill="#263238"/>
<path d="M77.2077 121.594C77.2077 121.594 76.1237 132.16 79.625 133.804C83.5762 135.652 87.5165 133.843 89.923 132.275C96.3782 128.095 105.972 116.485 105.972 116.485L112.476 125.054C112.476 125.054 96.0964 145.03 92.8064 144.898C90.6384 144.815 87.3051 142.698 85.2184 141.207C84.0765 140.398 83.0591 139.421 82.1995 138.309L79.3648 134.651C75.8256 136.422 72.9638 138.694 70.9855 141.603C70.9855 141.603 70.0424 134.206 71.7389 130.851C73.4354 127.496 76.8174 121.704 76.8174 121.704L77.2077 121.594Z" fill="#1FB545"/>
<path d="M71.5385 131.136C71.5253 131.2 71.5034 131.261 71.4734 131.318C71.4246 131.45 71.3542 131.62 71.262 131.835C71.037 132.519 70.8755 133.222 70.7797 133.936C70.465 136.566 70.465 139.226 70.7797 141.856L70.5845 141.817C71.4963 140.255 72.6874 138.878 74.0967 137.758C75.6921 136.442 77.4349 135.322 79.2891 134.42L79.3758 134.376L79.4408 134.453C80.5844 135.8 81.7931 137.203 83.0668 138.627C84.3407 140.12 85.7751 141.463 87.3432 142.631C88.0923 143.17 88.9066 143.608 89.7659 143.935C90.1888 144.091 90.6239 144.211 91.0667 144.292C91.5002 144.364 91.9408 144.38 92.3784 144.342C94.1399 144.177 95.6304 143.154 96.8661 142.076L108.08 129.943L111.332 126.461L112.205 125.543L112.432 125.306L112.519 125.235L112.454 125.323L112.237 125.576L111.397 126.522L108.199 130.058L97.0667 142.257C96.4246 142.838 95.7232 143.347 94.9745 143.775C94.1909 144.227 93.3234 144.508 92.4271 144.6C91.9643 144.639 91.4986 144.622 91.0396 144.551C90.5799 144.469 90.1283 144.346 89.69 144.182C88.8047 143.846 87.9651 143.397 87.1914 142.846C85.6008 141.666 84.1462 140.308 82.8554 138.798C81.5763 137.368 80.3676 135.96 79.2294 134.607L79.3866 134.64C77.5504 135.534 75.8226 136.642 74.2376 137.94C72.8624 139.036 71.696 140.378 70.7959 141.9L70.6333 142.186L70.6008 141.861C70.298 139.214 70.3271 136.538 70.6875 133.897C70.7987 133.182 70.9802 132.48 71.2295 131.802C71.3271 131.571 71.4138 131.406 71.468 131.29C71.4882 131.238 71.5117 131.186 71.5385 131.136Z" fill="#263238"/>
<g opacity="0.3">
<path opacity="0.3" d="M71.9398 140.041C71.8303 140.318 71.8102 140.623 71.8823 140.913C71.9543 141.202 72.1149 141.461 72.3409 141.652C72.5666 141.74 72.8118 141.764 73.0497 141.72C73.2877 141.676 73.5093 141.567 73.6904 141.405C74.0455 141.075 74.3522 140.695 74.601 140.277C75.2492 139.329 76.0287 138.481 76.9153 137.758C77.788 137.043 78.9858 136.438 79.9885 136.944C80.6155 137.365 81.0911 137.981 81.3435 138.699C82.7039 141.52 84.3353 144.391 86.9965 146.003C89.6578 147.614 93.0778 147.686 96.01 146.635C98.925 145.484 101.49 143.574 103.446 141.097C105.387 138.628 107.109 135.988 108.59 133.21C109.815 131.059 111.056 128.843 111.435 126.39C111.099 126.582 110.308 127.82 109.972 128.012C109.972 128.012 97.3379 142.131 96.1509 142.862C94.9639 143.594 91.6903 148.467 82.4166 137.912L79.3489 134.535C79.3489 134.535 73.5062 137.412 71.9398 140.041Z" fill="black"/>
</g>
<path d="M105.778 170.501L91.8862 168.339L91.2428 172.596L105.134 174.758L105.778 170.501Z" fill="white"/>
<path d="M143.359 180.312L121.679 185.63L124.183 206.382L82.6657 238.023C81.0072 238.26 79.3053 238.529 78.3622 238.771C76.0912 239.321 72.0804 245.124 70.9476 245.701L62.8556 252.037C62.8556 252.037 62.1456 254.919 65.8366 254.342C69.5276 253.764 73.6414 250.888 74.0696 250.888C74.4977 250.888 75.7877 251.762 75.1536 253.638C74.6116 255.288 72.3894 260.964 72.3894 260.964L69.6414 266.079C69.6414 266.079 81.5221 266.475 84.8174 262.003C87.0721 258.967 94.0314 250.36 94.0314 250.36C94.0314 250.36 142.904 225.962 145.836 220.852C149.83 213.9 143.359 180.312 143.359 180.312Z" fill="#FFBE9D"/>
<path d="M133.365 215.325C133.394 214.568 133.361 213.81 133.267 213.059C133.005 211.245 132.128 209.58 130.788 208.349C129.448 207.119 127.728 206.4 125.923 206.316C125.176 206.295 124.43 206.338 123.69 206.443C123.875 206.353 124.072 206.292 124.275 206.261C124.82 206.144 125.377 206.094 125.934 206.113C127.802 206.144 129.595 206.863 130.98 208.136C132.365 209.408 133.247 211.148 133.462 213.032C133.529 213.592 133.529 214.159 133.462 214.72C133.459 214.925 133.426 215.129 133.365 215.325Z" fill="#EB996E"/>
<path d="M79.4031 258.33C79.3605 258.801 79.266 259.266 79.1212 259.716C78.8436 260.828 78.4398 261.904 77.918 262.922C77.3981 263.963 76.607 264.84 75.6307 265.458C75.3325 265.638 75.0091 265.772 74.6714 265.854C74.5497 265.897 74.4197 265.91 74.292 265.892C74.7196 265.725 75.1329 265.523 75.5278 265.287C76.4408 264.645 77.1851 263.786 77.6958 262.785C78.1956 261.78 78.6073 260.733 78.9261 259.655C79.0469 259.2 79.2065 258.757 79.4031 258.33Z" fill="#EB996E"/>
<path d="M85.1595 256.41C85.0775 256.872 84.9373 257.321 84.7422 257.746C84.3342 258.799 83.8599 259.824 83.3221 260.815C82.7825 261.806 82.1815 262.762 81.5227 263.675C81.2726 264.078 80.974 264.448 80.6338 264.775C80.8428 264.358 81.0857 263.959 81.3601 263.582C81.8262 262.861 82.4441 261.849 83.0728 260.7C83.7015 259.55 84.2056 258.5 84.5579 257.691C84.7213 257.247 84.9226 256.819 85.1595 256.41Z" fill="#EB996E"/>
<path d="M85.0017 220.495C85.0606 220.725 85.0933 220.961 85.0992 221.199C85.148 221.65 85.1859 222.299 85.2076 223.118C85.3095 227.363 84.7048 231.595 83.419 235.636C83.1697 236.406 82.9529 237.028 82.7794 237.446C82.7054 237.67 82.6092 237.885 82.4922 238.089C82.5284 237.856 82.5902 237.627 82.6765 237.407C82.8174 236.978 83.0071 236.351 83.2185 235.576C83.8006 233.555 84.2425 231.494 84.541 229.41C84.8341 227.326 84.9862 225.224 84.9962 223.118C84.9962 222.31 84.9962 221.655 84.9962 221.204C84.9761 220.968 84.9779 220.731 85.0017 220.495Z" fill="#263238"/>
<path d="M73.2563 227.1C73.52 227.663 73.7481 228.241 73.9393 228.833C74.3404 229.933 74.8986 231.396 75.5653 233.018C76.2319 234.641 76.8498 236.098 77.3105 237.149C77.5819 237.707 77.819 238.282 78.0205 238.87C77.6711 238.352 77.3733 237.799 77.1317 237.22C76.6222 236.186 75.9664 234.74 75.3051 233.112C74.6439 231.484 74.1181 229.982 73.7658 228.882C73.5423 228.306 73.3717 227.709 73.2563 227.1Z" fill="#263238"/>
<path d="M70.1073 241.34C69.998 241.387 69.8833 241.421 69.7658 241.439L68.774 241.681C68.3404 241.785 67.8146 241.906 67.1913 242.011C66.568 242.115 65.8688 242.269 65.0775 242.368C64.2862 242.467 63.4515 242.605 62.503 242.687C61.5545 242.77 60.5735 242.841 59.5274 242.902C54.9712 243.107 50.4072 242.754 45.9341 241.851C44.9097 241.626 43.9287 241.428 43.029 241.175C42.1292 240.922 41.2891 240.702 40.5303 240.465C39.7715 240.229 39.0886 239.992 38.4924 239.789C37.8962 239.585 37.4084 239.387 36.9802 239.239L36.0317 238.854C35.9199 238.811 35.8112 238.759 35.7065 238.7C35.826 238.717 35.9427 238.75 36.0534 238.799L37.0182 239.134C37.4301 239.288 37.945 239.475 38.5412 239.684C39.1374 239.893 39.8203 240.113 40.5845 240.317C41.3488 240.52 42.178 240.779 43.0832 240.988C43.9883 241.197 44.9585 241.422 45.9829 241.637C48.2115 242.059 50.4602 242.364 52.7199 242.55C54.9816 242.715 57.2503 242.759 59.5166 242.682C60.5627 242.627 61.5545 242.588 62.4813 242.495C63.4082 242.401 64.2645 242.313 65.0504 242.214C65.8363 242.115 66.5409 241.994 67.1642 241.895C67.7875 241.796 68.3187 241.703 68.7523 241.615L69.755 241.428C69.8687 241.385 69.9869 241.355 70.1073 241.34Z" fill="#263238"/>
<path d="M68.0428 231.776C67.1459 231.443 66.2836 231.021 65.4683 230.516C64.61 230.093 63.7933 229.589 63.0293 229.009C63.9279 229.338 64.7906 229.76 65.6038 230.269C66.4643 230.687 67.2813 231.192 68.0428 231.776Z" fill="#263238"/>
<path d="M145.657 179.779L145.522 179.823L145.121 179.933L143.571 180.334L137.739 181.797L117.576 186.747L117.43 186.78V186.632C116.861 182.853 116.081 178.778 115.327 174.532C114.834 171.699 114.406 168.922 114.113 166.227C113.82 163.532 113.69 160.908 113.652 158.411C113.593 156.048 113.729 153.684 114.059 151.344C114.352 149.296 114.952 147.306 115.837 145.442C116.594 143.915 117.606 142.532 118.828 141.356C119.748 140.466 120.805 139.734 121.956 139.189C122.688 138.857 123.455 138.611 124.243 138.457L124.861 138.38C124.931 138.373 125.002 138.373 125.072 138.38C125.004 138.403 124.933 138.418 124.861 138.424L124.254 138.534C123.478 138.704 122.723 138.962 122.005 139.304C120.874 139.868 119.838 140.611 118.937 141.504C117.743 142.679 116.755 144.051 116.015 145.563C115.155 147.413 114.574 149.384 114.292 151.41C113.974 153.74 113.847 156.093 113.913 158.444C113.956 160.93 114.097 163.537 114.389 166.227C114.682 168.916 115.116 171.688 115.609 174.515C116.357 178.756 117.132 182.837 117.701 186.615L117.533 186.5L137.723 181.632L143.571 180.246L145.132 179.889L145.538 179.801C145.577 179.789 145.617 179.782 145.657 179.779Z" fill="#263238"/>
</g>
<defs>
<clipPath id="clip0_30_518">
<rect width="266" height="266" fill="white"/>
</clipPath>
</defs>
</svg>
