<svg width="327" height="190" viewBox="0 0 327 190" fill="none" xmlns="http://www.w3.org/2000/svg">
<g clip-path="url(#clip0_11_91)">
<g opacity="0.1">
<path opacity="0.1" d="M240.421 187.198C243.911 187.198 246.74 183.492 246.74 178.922C246.74 174.351 243.911 170.646 240.421 170.646C236.93 170.646 234.101 174.351 234.101 178.922C234.101 183.492 236.93 187.198 240.421 187.198Z" fill="#3F3D56"/>
<path opacity="0.1" d="M245.421 143.517C246.307 141.98 246.766 140.233 246.752 138.459C246.752 133.879 243.922 130.183 240.432 130.183C236.942 130.183 234.115 133.887 234.115 138.459C234.097 140.232 234.553 141.978 235.434 143.517C234.569 145.062 234.115 146.803 234.115 148.574C234.115 150.345 234.569 152.086 235.434 153.631C234.569 155.176 234.115 156.918 234.115 158.689C234.115 160.46 234.569 162.202 235.434 163.747C234.553 165.286 234.097 167.032 234.115 168.805C234.115 173.386 236.945 177.081 240.432 177.081C243.92 177.081 246.752 173.377 246.752 168.805C246.77 167.032 246.314 165.286 245.433 163.747C246.298 162.202 246.752 160.46 246.752 158.689C246.752 156.918 246.298 155.176 245.433 153.631C246.298 152.086 246.752 150.345 246.752 148.574C246.752 146.803 246.298 145.062 245.433 143.517H245.421Z" fill="#3F3D56"/>
<path opacity="0.1" d="M240.421 136.621C243.911 136.621 246.74 132.916 246.74 128.345C246.74 123.775 243.911 120.07 240.421 120.07C236.93 120.07 234.101 123.775 234.101 128.345C234.101 132.916 236.93 136.621 240.421 136.621Z" fill="#3F3D56"/>
<path opacity="0.1" d="M240.421 126.505C243.911 126.505 246.74 122.799 246.74 118.229C246.74 113.658 243.911 109.953 240.421 109.953C236.93 109.953 234.101 113.658 234.101 118.229C234.101 122.799 236.93 126.505 240.421 126.505Z" fill="#3F3D56"/>
<path opacity="0.1" d="M264.075 49.0051C264.937 47.9049 265.723 46.7467 266.427 45.5385L249.833 42.8104L267.791 42.945C269.512 39.1946 270.451 35.1324 270.549 31.0068C270.647 26.8812 269.904 22.7788 268.363 18.9506L244.269 31.4487L266.492 15.1147C264.41 11.5184 261.61 8.38948 258.266 5.92277C254.923 3.45607 251.108 1.70436 247.059 0.776677C243.009 -0.151005 238.813 -0.234797 234.73 0.530516C230.647 1.29583 226.765 2.89387 223.326 5.22515C219.887 7.55644 216.964 10.5711 214.74 14.0814C212.516 17.5917 211.037 21.5226 210.397 25.6293C209.756 29.7361 209.967 33.9308 211.017 37.9524C212.067 41.9739 213.933 45.7362 216.498 49.0051C215.153 50.7166 213.997 52.5679 213.048 54.5271L234.599 65.7314L211.62 58.0023C210.004 62.7731 209.601 67.8721 210.451 72.8376C211.3 77.8031 213.374 82.4781 216.484 86.4395C212.972 90.9064 210.788 96.2719 210.181 101.922C209.573 107.573 210.567 113.281 213.048 118.393C215.53 123.505 219.399 127.815 224.213 130.831C229.027 133.846 234.592 135.445 240.272 135.445C245.952 135.445 251.517 133.846 256.331 130.831C261.146 127.815 265.015 123.505 267.496 118.393C269.978 113.281 270.972 107.573 270.364 101.922C269.756 96.2719 267.572 90.9064 264.061 86.4395C268.257 81.1018 270.538 74.5077 270.538 67.7166C270.538 60.9254 268.257 54.3314 264.061 48.9937L264.075 49.0051Z" fill="#1FB545"/>
<path opacity="0.1" d="M210.021 67.7294C210.011 74.5218 212.293 81.1187 216.498 86.4509C212.987 90.9178 210.802 96.2833 210.195 101.934C209.587 107.584 210.581 113.292 213.062 118.404C215.544 123.516 219.413 127.826 224.227 130.842C229.041 133.858 234.607 135.457 240.286 135.457C245.966 135.457 251.531 133.858 256.346 130.842C261.16 127.826 265.029 123.516 267.51 118.404C269.992 113.292 270.986 107.584 270.378 101.934C269.771 96.2833 267.586 90.9178 264.075 86.4509C268.131 81.2982 210.021 64.3286 210.021 67.7294Z" fill="black"/>
</g>
<g opacity="0.1">
<path opacity="0.1" d="M63.1707 178.346C65.2943 178.346 67.0158 176.091 67.0158 173.308C67.0158 170.526 65.2943 168.27 63.1707 168.27C61.0472 168.27 59.3257 170.526 59.3257 173.308C59.3257 176.091 61.0472 178.346 63.1707 178.346Z" fill="#3F3D56"/>
<path opacity="0.1" d="M66.2297 151.756C66.7665 150.819 67.0439 149.755 67.0336 148.675C67.0336 145.893 65.3171 143.637 63.1857 143.637C61.0544 143.637 59.3407 145.893 59.3407 148.675C59.3295 149.755 59.606 150.818 60.1417 151.756C59.6166 152.697 59.3409 153.757 59.3409 154.834C59.3409 155.912 59.6166 156.972 60.1417 157.913C59.6166 158.854 59.3409 159.914 59.3409 160.992C59.3409 162.07 59.6166 163.129 60.1417 164.071C59.6056 165.007 59.329 166.069 59.3407 167.148C59.3407 169.933 61.0572 172.189 63.1857 172.189C65.3142 172.189 67.0336 169.933 67.0336 167.148C67.0444 166.069 66.7669 165.006 66.2297 164.071C66.7565 163.13 67.0331 162.07 67.0331 160.992C67.0331 159.914 66.7565 158.854 66.2297 157.913C66.7565 156.973 67.0331 155.912 67.0331 154.834C67.0331 153.756 66.7565 152.696 66.2297 151.756Z" fill="#3F3D56"/>
<path opacity="0.1" d="M63.1707 147.556C65.2943 147.556 67.0158 145.3 67.0158 142.518C67.0158 139.735 65.2943 137.48 63.1707 137.48C61.0472 137.48 59.3257 139.735 59.3257 142.518C59.3257 145.3 61.0472 147.556 63.1707 147.556Z" fill="#3F3D56"/>
<path opacity="0.1" d="M63.1707 141.399C65.2943 141.399 67.0158 139.143 67.0158 136.36C67.0158 133.578 65.2943 131.322 63.1707 131.322C61.0472 131.322 59.3257 133.578 59.3257 136.36C59.3257 139.143 61.0472 141.399 63.1707 141.399Z" fill="#3F3D56"/>
<path opacity="0.1" d="M48.7784 94.2168C48.2533 93.5476 47.7753 92.8427 47.348 92.1071L57.4555 90.4468L46.524 90.5298C45.4775 88.2478 44.9066 85.7764 44.8461 83.2664C44.7856 80.7564 45.2368 78.2603 46.1721 75.9305L60.8285 83.5479L47.305 73.586C48.5735 71.3982 50.2782 69.4949 52.3133 67.9946C54.3484 66.4943 56.6703 65.4291 59.1345 64.8652C61.5987 64.3013 64.1524 64.2509 66.637 64.717C69.1215 65.183 71.4836 66.1557 73.5763 67.5745C75.669 68.9932 77.4475 70.8276 78.8012 72.9637C80.155 75.0997 81.0549 77.4917 81.4451 79.9907C81.8354 82.4897 81.7075 85.0423 81.0694 87.4897C80.4314 89.9371 79.2968 92.227 77.7364 94.2168C78.5549 95.2573 79.259 96.3831 79.8363 97.5747L66.7162 104.399L80.706 99.7016C81.6885 102.607 81.9315 105.712 81.413 108.735C80.8944 111.757 79.6308 114.603 77.7364 117.015C79.8738 119.734 81.2033 123 81.573 126.44C81.9427 129.88 81.3377 133.354 79.827 136.466C78.3164 139.578 75.9611 142.202 73.0304 144.037C70.0998 145.873 66.712 146.846 63.2545 146.846C59.797 146.846 56.4093 145.873 53.4786 144.037C50.548 142.202 48.1927 139.578 46.682 136.466C45.1714 133.354 44.5663 129.88 44.936 126.44C45.3057 123 46.6353 119.734 48.7727 117.015C46.2186 113.765 44.8301 109.75 44.8301 105.616C44.8301 101.481 46.2186 97.4668 48.7727 94.2168H48.7784Z" fill="#1FB545"/>
<path opacity="0.1" d="M81.6779 105.616C81.684 109.751 80.2949 113.768 77.7356 117.015C79.873 119.734 81.2026 123 81.5723 126.44C81.942 129.88 81.3369 133.354 79.8262 136.466C78.3156 139.578 75.9603 142.202 73.0296 144.037C70.099 145.873 66.7112 146.847 63.2537 146.847C59.7962 146.847 56.4085 145.873 53.4779 144.037C50.5472 142.202 48.1919 139.578 46.6813 136.466C45.1706 133.354 44.5655 129.88 44.9352 126.44C45.3049 123 46.6345 119.734 48.7719 117.015C46.303 113.892 81.6779 103.546 81.6779 105.616Z" fill="black"/>
</g>
<g opacity="0.1">
<path opacity="0.1" d="M149.856 182.732C152.699 182.732 155.003 179.714 155.003 175.99C155.003 172.267 152.699 169.249 149.856 169.249C147.014 169.249 144.709 172.267 144.709 175.99C144.709 179.714 147.014 182.732 149.856 182.732Z" fill="#3F3D56"/>
<path opacity="0.1" d="M153.93 147.147C154.647 145.892 155.018 144.47 155.003 143.025C155.003 139.303 152.714 136.283 149.853 136.283C146.992 136.283 144.704 139.303 144.704 143.025C144.688 144.47 145.06 145.893 145.779 147.147C145.074 148.405 144.704 149.824 144.704 151.267C144.704 152.71 145.074 154.129 145.779 155.388C145.074 156.646 144.704 158.065 144.704 159.507C144.704 160.95 145.074 162.368 145.779 163.627C145.06 164.88 144.688 166.303 144.704 167.749C144.704 171.47 147.009 174.49 149.853 174.49C152.697 174.49 155.003 171.47 155.003 167.749C155.018 166.304 154.647 164.881 153.93 163.627C154.634 162.368 155.003 160.95 155.003 159.507C155.003 158.065 154.634 156.647 153.93 155.388C154.634 154.129 155.003 152.71 155.003 151.267C155.003 149.825 154.634 148.406 153.93 147.147Z" fill="#3F3D56"/>
<path opacity="0.1" d="M149.856 141.527C152.699 141.527 155.003 138.509 155.003 134.786C155.003 131.063 152.699 128.045 149.856 128.045C147.014 128.045 144.709 131.063 144.709 134.786C144.709 138.509 147.014 141.527 149.856 141.527Z" fill="#3F3D56"/>
<path opacity="0.1" d="M149.856 133.286C152.699 133.286 155.003 130.268 155.003 126.545C155.003 122.821 152.699 119.803 149.856 119.803C147.014 119.803 144.709 122.821 144.709 126.545C144.709 130.268 147.014 133.286 149.856 133.286Z" fill="#3F3D56"/>
<path opacity="0.1" d="M130.6 70.151C129.896 69.2557 129.256 68.3126 128.683 67.3285L142.207 65.1071L127.582 65.2159C126.178 62.1608 125.413 58.8515 125.332 55.4902C125.25 52.1289 125.855 48.7864 127.11 45.6671L146.735 55.8523L128.635 42.5411C130.326 39.6005 132.605 37.0405 135.329 35.0211C138.054 33.0016 141.165 31.566 144.469 30.8041C147.773 30.0422 151.199 29.9704 154.532 30.593C157.865 31.2156 161.034 32.5194 163.841 34.4228C166.647 36.3262 169.032 38.7884 170.845 41.6554C172.657 44.5225 173.86 47.7328 174.377 51.0859C174.893 54.4389 174.714 57.8626 173.848 61.1429C172.983 64.4233 171.451 67.4899 169.348 70.151C170.443 71.5458 171.385 73.0545 172.157 74.651L154.603 83.777L173.322 77.4793C174.637 81.367 174.962 85.5214 174.268 89.5666C173.574 93.6117 171.883 97.4199 169.348 100.646C172.208 104.285 173.987 108.656 174.482 113.259C174.977 117.862 174.167 122.512 172.145 126.676C170.124 130.84 166.972 134.351 163.05 136.808C159.128 139.264 154.595 140.567 149.968 140.567C145.341 140.567 140.808 139.264 136.886 136.808C132.964 134.351 129.813 130.84 127.791 126.676C125.769 122.512 124.96 117.862 125.454 113.259C125.949 108.656 127.728 104.285 130.588 100.646C127.171 96.2973 125.313 90.9254 125.313 85.393C125.313 79.8606 127.171 74.4886 130.588 70.1396L130.6 70.151Z" fill="#1FB545"/>
<path opacity="0.1" d="M174.623 85.4058C174.631 90.9393 172.773 96.3135 169.347 100.658C172.208 104.297 173.987 108.668 174.482 113.271C174.976 117.874 174.167 122.523 172.145 126.688C170.123 130.852 166.972 134.363 163.05 136.819C159.128 139.276 154.595 140.579 149.968 140.579C145.341 140.579 140.807 139.276 136.886 136.819C132.964 134.363 129.812 130.852 127.79 126.688C125.769 122.523 124.959 117.874 125.454 113.271C125.949 108.668 127.728 104.297 130.588 100.658C127.284 96.4612 174.623 82.6348 174.623 85.4058Z" fill="black"/>
</g>
<path d="M327 182.125C327 184.092 312.632 185.889 288.878 187.278C284.558 187.527 279.93 187.764 275.02 187.988C270.778 188.179 266.333 188.359 261.683 188.529C257.178 188.689 252.5 188.838 247.65 188.975C232.333 189.413 215.399 189.728 197.41 189.886C193.044 189.926 188.62 189.956 184.138 189.977C179.469 189.998 174.747 190.008 169.971 190.006C83.246 190.006 12.9453 186.482 12.9453 182.134C12.9453 177.785 83.246 174.261 169.971 174.261C207.309 174.261 241.596 174.917 268.546 176.005L271.493 176.125H271.51C305.457 177.565 327 179.732 327 182.125Z" fill="#3F3D56"/>
<path opacity="0.15" d="M327 182.125C327 184.092 312.632 185.889 288.878 187.278C284.558 187.527 279.93 187.764 275.02 187.988C270.778 188.179 266.333 188.359 261.683 188.529C257.178 188.689 252.5 188.838 247.65 188.975C232.333 189.413 215.399 189.728 197.41 189.886C193.044 189.926 188.62 189.956 184.138 189.977C179.469 189.998 174.747 190.008 169.971 190.006C83.246 190.006 12.9453 186.482 12.9453 182.134C12.9453 177.785 83.246 174.261 169.971 174.261C207.309 174.261 241.596 174.917 268.546 176.005L271.493 176.125H271.51C305.457 177.565 327 179.732 327 182.125Z" fill="black"/>
<path d="M314.054 180.74C314.054 182.383 299.687 183.888 275.933 185.033C271.616 185.242 266.984 185.44 262.078 185.626C257.834 185.786 253.388 185.937 248.74 186.078C244.235 186.212 239.558 186.337 234.708 186.453C219.388 186.82 202.454 187.083 184.465 187.215C180.103 187.247 175.679 187.272 171.193 187.289C166.524 187.306 161.803 187.315 157.029 187.315C70.3036 187.315 0 184.369 0 180.731C0 177.093 70.3036 174.147 157.029 174.147C194.363 174.147 228.651 174.694 255.601 175.604L258.547 175.704H258.567C292.526 176.927 314.054 178.727 314.054 180.74Z" fill="#3F3D56"/>
<path d="M40.5561 120.931L36.6138 108.854L131.023 107.82L134.891 119.777L40.5561 120.931Z" fill="#3F3D56"/>
<path opacity="0.15" d="M40.5561 120.931L36.6138 108.854L131.023 107.82L134.891 119.777L40.5561 120.931Z" fill="black"/>
<path d="M34.2621 120.931L30.3198 108.854L124.729 107.82L128.597 119.777L34.2621 120.931Z" fill="#3F3D56"/>
<path d="M195.431 102.373C185.669 102.373 177.976 98.4958 172.352 90.7419C166.727 82.988 163.915 73.5949 163.915 62.5624C163.915 51.4554 166.635 42.0813 172.074 34.4401C177.514 26.7988 185.187 22.982 195.093 22.9896C205.598 22.9896 213.513 27.0154 218.838 35.067C224.164 43.1186 226.827 52.4373 226.829 63.0232C226.829 73.5328 224.073 82.7199 218.561 90.5844C213.049 98.449 205.339 102.378 195.431 102.373ZM195.717 93.6503C202.138 93.6503 206.938 90.8497 210.116 85.2485C213.293 79.6474 214.882 72.5863 214.882 64.0652C214.882 54.5804 213.256 46.8142 210.004 40.7664C206.752 34.7187 201.765 31.6939 195.042 31.692C182.263 31.692 175.874 41.8485 175.874 62.1616C175.874 83.156 182.486 93.6522 195.711 93.6503H195.717ZM198.932 177.178H184.814L277.244 24.544H291.096L198.932 177.178ZM280.702 178.744C270.794 178.744 263.07 174.832 257.529 167.008C251.989 159.183 249.207 149.789 249.184 138.825C249.184 127.793 251.885 118.456 257.286 110.815C262.687 103.173 270.379 99.3564 280.362 99.3641C290.793 99.3641 298.653 103.39 303.941 111.441C309.23 119.493 311.876 128.811 311.878 139.395C311.878 149.836 309.14 159.006 303.664 166.904C298.188 174.803 290.532 178.75 280.697 178.744H280.702ZM280.868 169.799C287.26 169.799 292.033 167.046 295.19 161.54C298.346 156.034 299.925 149.002 299.925 140.443C299.925 131.282 298.327 123.6 295.133 117.396C291.938 111.191 286.961 108.085 280.202 108.075C267.349 108.075 260.922 118.232 260.922 138.545C260.918 159.383 267.565 169.8 280.863 169.799H280.868Z" fill="#3F3D56"/>
<path d="M195.431 102.373C185.669 102.373 177.976 98.4958 172.352 90.7419C166.727 82.988 163.915 73.5949 163.915 62.5624C163.915 51.4554 166.635 42.0813 172.074 34.4401C177.514 26.7988 185.187 22.982 195.093 22.9896C205.598 22.9896 213.513 27.0154 218.838 35.067C224.164 43.1186 226.827 52.4373 226.829 63.0232C226.829 73.5328 224.073 82.7199 218.561 90.5844C213.049 98.449 205.339 102.378 195.431 102.373ZM195.717 93.6503C202.138 93.6503 206.938 90.8497 210.116 85.2485C213.293 79.6474 214.882 72.5863 214.882 64.0652C214.882 54.5804 213.256 46.8142 210.004 40.7664C206.752 34.7187 201.765 31.6939 195.042 31.692C182.263 31.692 175.874 41.8485 175.874 62.1616C175.874 83.156 182.486 93.6522 195.711 93.6503H195.717ZM198.932 177.178H184.814L277.244 24.544H291.096L198.932 177.178ZM280.702 178.744C270.794 178.744 263.07 174.832 257.529 167.008C251.989 159.183 249.207 149.789 249.184 138.825C249.184 127.793 251.885 118.456 257.286 110.815C262.687 103.173 270.379 99.3564 280.362 99.3641C290.793 99.3641 298.653 103.39 303.941 111.441C309.23 119.493 311.876 128.811 311.878 139.395C311.878 149.836 309.14 159.006 303.664 166.904C298.188 174.803 290.532 178.75 280.697 178.744H280.702ZM280.868 169.799C287.26 169.799 292.033 167.046 295.19 161.54C298.346 156.034 299.925 149.002 299.925 140.443C299.925 131.282 298.327 123.6 295.133 117.396C291.938 111.191 286.961 108.085 280.202 108.075C267.349 108.075 260.922 118.232 260.922 138.545C260.918 159.383 267.565 169.8 280.863 169.799H280.868Z" fill="#3F3D56"/>
<path opacity="0.15" d="M195.431 102.373C185.669 102.373 177.976 98.4958 172.352 90.7419C166.727 82.988 163.915 73.5949 163.915 62.5624C163.915 51.4554 166.635 42.0813 172.074 34.4401C177.514 26.7988 185.187 22.982 195.093 22.9896C205.598 22.9896 213.513 27.0154 218.838 35.067C224.164 43.1186 226.827 52.4373 226.829 63.0232C226.829 73.5328 224.073 82.7199 218.561 90.5844C213.049 98.449 205.339 102.378 195.431 102.373ZM195.717 93.6503C202.138 93.6503 206.938 90.8497 210.116 85.2485C213.293 79.6474 214.882 72.5863 214.882 64.0652C214.882 54.5804 213.256 46.8142 210.004 40.7664C206.752 34.7187 201.765 31.6939 195.042 31.692C182.263 31.692 175.874 41.8485 175.874 62.1616C175.874 83.156 182.486 93.6522 195.711 93.6503H195.717ZM198.932 177.178H184.814L277.244 24.544H291.096L198.932 177.178ZM280.702 178.744C270.794 178.744 263.07 174.832 257.529 167.008C251.989 159.183 249.207 149.789 249.184 138.825C249.184 127.793 251.885 118.456 257.286 110.815C262.687 103.173 270.379 99.3564 280.362 99.3641C290.793 99.3641 298.653 103.39 303.941 111.441C309.23 119.493 311.876 128.811 311.878 139.395C311.878 149.836 309.14 159.006 303.664 166.904C298.188 174.803 290.532 178.75 280.697 178.744H280.702ZM280.868 169.799C287.26 169.799 292.033 167.046 295.19 161.54C298.346 156.034 299.925 149.002 299.925 140.443C299.925 131.282 298.327 123.6 295.133 117.396C291.938 111.191 286.961 108.085 280.202 108.075C267.349 108.075 260.922 118.232 260.922 138.545C260.918 159.383 267.565 169.8 280.863 169.799H280.868Z" fill="black"/>
<path d="M186.561 102.373C176.8 102.373 169.107 98.4958 163.483 90.7419C157.858 82.988 155.046 73.5949 155.046 62.5624C155.046 51.4554 157.766 42.0813 163.205 34.4401C168.645 26.7988 176.318 22.982 186.224 22.9896C196.729 22.9896 204.644 27.0154 209.969 35.067C215.294 43.1186 217.958 52.4373 217.96 63.0232C217.96 73.5328 215.204 82.7199 209.692 90.5844C204.18 98.449 196.47 102.378 186.561 102.373ZM186.848 93.6503C193.269 93.6503 198.069 90.8497 201.246 85.2485C204.424 79.6474 206.013 72.5863 206.013 64.0652C206.013 54.5804 204.387 46.8142 201.135 40.7664C197.883 34.7187 192.896 31.6939 186.172 31.692C173.394 31.692 167.004 41.8485 167.004 62.1616C167.004 83.156 173.617 93.6522 186.842 93.6503H186.848ZM190.063 177.178H175.945L268.374 24.544H282.227L190.063 177.178ZM271.833 178.744C261.925 178.744 254.201 174.832 248.66 167.008C243.119 159.183 240.338 149.789 240.315 138.825C240.315 127.793 243.015 118.456 248.417 110.815C253.818 103.173 261.51 99.3564 271.493 99.3641C281.924 99.3641 289.783 103.39 295.072 111.441C300.361 119.493 303.007 128.811 303.008 139.395C303.008 149.836 300.271 159.006 294.795 166.904C289.319 174.803 281.663 178.75 271.828 178.744H271.833ZM271.999 169.799C278.39 169.799 283.164 167.046 286.321 161.54C289.477 156.034 291.056 149.002 291.056 140.443C291.056 131.282 289.458 123.6 286.264 117.396C283.069 111.191 278.09 108.085 271.327 108.075C258.474 108.075 252.047 118.232 252.047 138.545C252.047 159.383 258.696 169.8 271.993 169.799H271.999Z" fill="#3F3D56"/>
<path d="M217.448 181.009C218.627 178.822 217.288 176.142 215.749 174.19C214.209 172.238 212.333 170.211 212.373 167.723C212.43 164.154 216.218 162.044 219.239 160.149C221.486 158.744 223.558 157.078 225.413 155.185C226.189 154.456 226.831 153.595 227.309 152.643C227.936 151.246 227.916 149.657 227.882 148.129C227.75 143.029 227.498 137.938 227.126 132.854" stroke="#3F3D56" stroke-width="1.14436" stroke-miterlimit="10"/>
<path d="M232.882 132.573C232.839 131.64 232.562 130.733 232.076 129.936C231.591 129.139 230.913 128.476 230.104 128.01L228.857 130.478L228.894 127.489C228.299 127.315 227.679 127.241 227.06 127.269C225.96 127.32 224.9 127.697 224.014 128.351C223.129 129.006 222.456 129.908 222.083 130.945C221.71 131.981 221.652 133.105 221.917 134.174C222.182 135.244 222.758 136.21 223.572 136.952C224.387 137.694 225.402 138.177 226.491 138.342C227.58 138.506 228.693 138.343 229.689 137.875C230.686 137.406 231.521 136.652 232.089 135.708C232.657 134.765 232.933 133.674 232.882 132.573Z" fill="#1FB545"/>
<path d="M222.955 170.285C222.371 171.421 221.414 172.321 220.245 172.835C219.077 173.349 217.767 173.445 216.536 173.107C215.305 172.769 214.227 172.018 213.484 170.98C212.74 169.941 212.376 168.679 212.453 167.404C212.529 166.129 213.042 164.919 213.904 163.977C214.766 163.035 215.925 162.418 217.188 162.23C218.451 162.042 219.739 162.294 220.838 162.944C221.937 163.594 222.78 164.602 223.224 165.799L219.745 168.631L223.579 167.737C223.577 168.624 223.363 169.498 222.955 170.285Z" fill="#1FB545"/>
<path d="M220.206 159.462C219.475 159.496 218.745 159.386 218.057 159.138C217.37 158.89 216.737 158.509 216.197 158.016C215.656 157.523 215.218 156.929 214.907 156.267C214.596 155.605 214.418 154.888 214.384 154.157C214.34 153.285 214.505 152.414 214.864 151.618C215.197 150.874 215.688 150.212 216.304 149.678C216.92 149.144 217.645 148.752 218.429 148.529L218.398 150.819L219.659 148.323C221.134 148.254 222.576 148.774 223.668 149.769C224.76 150.764 225.412 152.152 225.481 153.628C225.55 155.104 225.03 156.546 224.036 157.639C223.042 158.731 221.655 159.384 220.18 159.453L220.206 159.462Z" fill="#1FB545"/>
<path d="M233.72 150.465C232.981 150.514 232.24 150.415 231.54 150.174C230.839 149.933 230.194 149.554 229.642 149.061C229.089 148.567 228.641 147.968 228.322 147.299C228.004 146.63 227.822 145.904 227.787 145.164C227.753 144.424 227.866 143.684 228.121 142.988C228.375 142.292 228.766 141.654 229.27 141.111C229.774 140.568 230.381 140.131 231.056 139.825C231.731 139.52 232.459 139.352 233.2 139.332C234.24 139.281 235.274 139.526 236.181 140.039L235.197 142.735L237.222 140.792C238.309 141.783 238.959 143.166 239.027 144.636C239.053 145.152 239.005 145.669 238.884 146.171C238.608 147.351 237.954 148.409 237.022 149.184C236.09 149.958 234.931 150.408 233.72 150.465Z" fill="#1FB545"/>
<path opacity="0.1" d="M232.133 134.059C230.848 134.199 229.601 134.6 228.31 134.68C227.02 134.76 225.604 134.451 224.789 133.446C224.348 132.908 224.131 132.224 223.759 131.634C223.408 131.085 222.926 130.632 222.357 130.314C222 131.021 221.797 131.795 221.762 132.585C221.727 133.376 221.861 134.165 222.155 134.9C222.448 135.635 222.895 136.299 223.466 136.847C224.036 137.396 224.716 137.816 225.462 138.081C226.207 138.346 227 138.449 227.789 138.382C228.577 138.316 229.342 138.083 230.033 137.698C230.724 137.312 231.325 136.784 231.796 136.148C232.267 135.513 232.597 134.784 232.765 134.01C232.553 134.022 232.344 134.036 232.133 134.059Z" fill="black"/>
<path opacity="0.1" d="M233.721 150.464C232.761 150.508 231.807 150.303 230.95 149.869C230.093 149.435 229.363 148.787 228.83 147.987C228.298 147.188 227.98 146.264 227.909 145.306C227.838 144.348 228.016 143.387 228.425 142.518C228.866 142.817 229.246 143.198 229.544 143.64C229.942 144.238 230.182 144.931 230.648 145.481C231.506 146.503 232.997 146.835 234.339 146.775C235.68 146.714 236.979 146.331 238.318 146.202C238.504 146.185 238.693 146.173 238.89 146.168C238.614 147.349 237.959 148.409 237.026 149.184C236.093 149.96 234.932 150.409 233.721 150.464Z" fill="black"/>
<path opacity="0.1" d="M220.206 159.462C219.475 159.496 218.745 159.386 218.057 159.138C217.37 158.89 216.737 158.509 216.197 158.016C215.656 157.524 215.218 156.929 214.907 156.267C214.596 155.605 214.418 154.888 214.384 154.157C214.34 153.285 214.505 152.414 214.864 151.618C215.323 151.924 215.722 152.312 216.04 152.763C216.472 153.373 216.744 154.077 217.25 154.641C218.189 155.686 219.768 156.055 221.19 156.021C222.612 155.987 223.896 155.654 225.267 155.549C224.927 156.642 224.259 157.604 223.353 158.304C222.448 159.005 221.349 159.409 220.206 159.462Z" fill="black"/>
<path opacity="0.1" d="M222.955 170.285C222.307 171.559 221.195 172.535 219.848 173.011C218.501 173.488 217.023 173.427 215.719 172.843C214.415 172.26 213.385 171.196 212.843 169.874C212.3 168.552 212.287 167.072 212.805 165.739C213.263 166.041 213.674 166.409 214.026 166.83C214.555 167.477 214.904 168.21 215.517 168.811C216.661 169.927 218.492 170.388 220.128 170.431C221.073 170.439 222.017 170.39 222.955 170.285Z" fill="black"/>
<path d="M303.561 180.722C304.739 178.535 303.401 175.856 301.861 173.904C300.322 171.951 298.445 169.925 298.485 167.437C298.543 163.867 302.331 161.758 305.352 159.863C307.599 158.458 309.671 156.792 311.525 154.899C312.302 154.169 312.944 153.309 313.422 152.357C314.049 150.96 314.029 149.371 313.994 147.842C313.863 142.743 313.611 137.652 313.239 132.568" stroke="#3F3D56" stroke-width="1.14436" stroke-miterlimit="10"/>
<path d="M318.996 132.287C318.953 131.354 318.676 130.447 318.19 129.65C317.705 128.852 317.026 128.19 316.218 127.724L314.97 130.191L315.008 127.203C314.413 127.029 313.793 126.954 313.174 126.982C312.074 127.034 311.014 127.411 310.128 128.065C309.242 128.719 308.57 129.622 308.197 130.658C307.824 131.695 307.766 132.819 308.031 133.888C308.296 134.957 308.872 135.924 309.686 136.666C310.5 137.408 311.516 137.891 312.605 138.055C313.694 138.219 314.807 138.057 315.803 137.588C316.799 137.119 317.635 136.366 318.203 135.422C318.771 134.478 319.047 133.387 318.996 132.287Z" fill="#1FB545"/>
<path d="M309.068 169.999C308.484 171.135 307.527 172.035 306.359 172.549C305.19 173.062 303.88 173.158 302.649 172.821C301.418 172.483 300.341 171.732 299.597 170.694C298.854 169.655 298.49 168.393 298.566 167.118C298.643 165.843 299.155 164.633 300.017 163.691C300.879 162.749 302.039 162.132 303.301 161.944C304.564 161.756 305.853 162.008 306.952 162.658C308.051 163.308 308.893 164.316 309.337 165.513L305.858 168.344L309.692 167.451C309.69 168.338 309.476 169.212 309.068 169.999Z" fill="#1FB545"/>
<path d="M306.319 159.175C305.589 159.21 304.859 159.1 304.171 158.851C303.483 158.603 302.851 158.222 302.31 157.73C301.769 157.237 301.331 156.643 301.02 155.981C300.709 155.319 300.531 154.602 300.497 153.871C300.454 152.998 300.618 152.128 300.978 151.332C301.31 150.588 301.802 149.925 302.418 149.392C303.033 148.858 303.759 148.466 304.542 148.243L304.511 150.533L305.773 148.037H305.787C306.517 148.003 307.247 148.113 307.935 148.361C308.623 148.609 309.255 148.99 309.796 149.483C310.336 149.975 310.775 150.569 311.086 151.231C311.397 151.894 311.575 152.61 311.609 153.341C311.643 154.072 311.533 154.802 311.285 155.491C311.037 156.179 310.656 156.812 310.164 157.353C309.672 157.893 309.078 158.332 308.416 158.643C307.754 158.955 307.038 159.132 306.308 159.167L306.319 159.175Z" fill="#1FB545"/>
<path d="M319.833 150.178C319.094 150.227 318.353 150.129 317.653 149.887C316.952 149.646 316.307 149.268 315.754 148.774C315.202 148.281 314.753 147.682 314.435 147.013C314.117 146.344 313.935 145.618 313.9 144.878C313.866 144.137 313.979 143.398 314.233 142.702C314.488 142.006 314.879 141.367 315.383 140.824C315.887 140.281 316.494 139.844 317.169 139.539C317.843 139.233 318.572 139.066 319.313 139.046C320.353 138.995 321.387 139.24 322.294 139.753L321.309 142.449L323.335 140.506C324.422 141.497 325.071 142.88 325.14 144.35C325.166 144.866 325.117 145.382 324.997 145.884C324.72 147.065 324.066 148.122 323.135 148.897C322.203 149.672 321.044 150.122 319.833 150.178Z" fill="#1FB545"/>
<path opacity="0.1" d="M318.245 133.772C316.961 133.913 315.714 134.314 314.423 134.394C313.133 134.474 311.717 134.165 310.901 133.16C310.461 132.622 310.243 131.938 309.872 131.348C309.52 130.799 309.039 130.346 308.47 130.028C308.112 130.734 307.909 131.508 307.875 132.299C307.84 133.09 307.974 133.879 308.267 134.614C308.561 135.349 309.008 136.013 309.578 136.561C310.149 137.11 310.829 137.53 311.575 137.795C312.32 138.06 313.113 138.162 313.902 138.096C314.69 138.03 315.455 137.797 316.146 137.411C316.837 137.026 317.438 136.498 317.909 135.862C318.38 135.226 318.71 134.497 318.878 133.724C318.666 133.735 318.457 133.75 318.245 133.772Z" fill="black"/>
<path opacity="0.1" d="M319.834 150.178C318.874 150.222 317.92 150.017 317.063 149.583C316.206 149.149 315.476 148.501 314.943 147.701C314.41 146.902 314.093 145.978 314.022 145.02C313.951 144.061 314.129 143.101 314.538 142.232C314.979 142.531 315.359 142.912 315.657 143.354C316.054 143.952 316.295 144.645 316.761 145.194C317.619 146.216 319.11 146.548 320.452 146.488C321.793 146.428 323.092 146.045 324.431 145.916C324.617 145.899 324.806 145.887 325.003 145.881C324.727 147.063 324.072 148.122 323.139 148.898C322.206 149.673 321.045 150.123 319.834 150.178Z" fill="black"/>
<path opacity="0.1" d="M306.319 159.176C305.589 159.21 304.859 159.1 304.171 158.852C303.483 158.604 302.851 158.223 302.31 157.73C301.769 157.237 301.331 156.643 301.02 155.981C300.709 155.319 300.531 154.602 300.497 153.871C300.454 152.999 300.618 152.128 300.978 151.332C301.437 151.638 301.835 152.026 302.153 152.477C302.585 153.087 302.857 153.791 303.364 154.355C304.302 155.4 305.881 155.769 307.303 155.735C308.682 155.706 310.009 155.368 311.38 155.262C311.04 156.356 310.372 157.318 309.467 158.018C308.561 158.718 307.462 159.123 306.319 159.176Z" fill="black"/>
<path opacity="0.1" d="M309.068 169.999C308.42 171.273 307.307 172.249 305.961 172.725C304.614 173.201 303.135 173.141 301.831 172.557C300.528 171.973 299.498 170.91 298.956 169.588C298.413 168.266 298.399 166.785 298.917 165.453C299.376 165.755 299.787 166.122 300.139 166.544C300.668 167.191 301.017 167.924 301.629 168.525C302.774 169.641 304.605 170.102 306.241 170.145C307.185 170.153 308.129 170.104 309.068 169.999Z" fill="black"/>
<path d="M31.45 177.001C30.2713 174.814 31.6102 172.134 33.1494 170.182C34.6885 168.23 36.5653 166.203 36.5252 163.716C36.468 160.146 32.6802 158.036 29.6591 156.141C27.4122 154.737 25.3398 153.07 23.4853 151.177C22.7087 150.448 22.0666 149.588 21.5885 148.635C20.962 147.238 20.982 145.65 21.0163 144.121C21.1479 139.022 21.3997 133.93 21.7716 128.846" stroke="#3F3D56" stroke-width="1.14436" stroke-miterlimit="10"/>
<path d="M16.0149 128.565C16.0579 127.633 16.3349 126.726 16.8204 125.928C17.3059 125.131 17.9842 124.469 18.7928 124.002L20.0401 126.47L20.0029 123.481C20.5979 123.307 21.2175 123.233 21.8368 123.261C22.9366 123.313 23.9965 123.689 24.8824 124.344C25.7683 124.998 26.4404 125.9 26.8137 126.937C27.187 127.973 27.2447 129.097 26.9796 130.167C26.7145 131.236 26.1385 132.203 25.3244 132.944C24.5102 133.686 23.4946 134.17 22.4058 134.334C21.317 134.498 20.204 134.336 19.2076 133.867C18.2111 133.398 17.3759 132.644 16.8076 131.701C16.2393 130.757 15.9635 129.666 16.0149 128.565Z" fill="#1FB545"/>
<path d="M25.9425 166.277C26.5267 167.413 27.4833 168.313 28.652 168.827C29.8208 169.341 31.1305 169.437 32.3615 169.099C33.5926 168.761 34.6702 168.01 35.4136 166.972C36.157 165.934 36.521 164.671 36.4446 163.396C36.3682 162.121 35.8559 160.911 34.9938 159.969C34.1317 159.027 32.9721 158.411 31.7095 158.222C30.4469 158.034 29.158 158.286 28.0591 158.936C26.9601 159.586 26.1179 160.594 25.6736 161.792L29.1524 164.623L25.3188 163.73C25.3204 164.617 25.5343 165.49 25.9425 166.277Z" fill="#1FB545"/>
<path d="M28.6917 155.454C29.4221 155.488 30.1521 155.378 30.8399 155.13C31.5278 154.882 32.1601 154.501 32.7007 154.008C33.2413 153.516 33.6797 152.921 33.9908 152.259C34.3018 151.597 34.4795 150.88 34.5137 150.149C34.557 149.277 34.3922 148.407 34.033 147.61C33.7004 146.866 33.2089 146.204 32.5931 145.67C31.9772 145.137 31.252 144.745 30.4684 144.522L30.4998 146.812L29.2382 144.315C27.7631 144.246 26.3211 144.766 25.2293 145.761C24.1375 146.756 23.4853 148.144 23.4163 149.62C23.3472 151.096 23.8669 152.539 24.8611 153.631C25.8553 154.724 27.2425 155.376 28.7175 155.445L28.6917 155.454Z" fill="#1FB545"/>
<path d="M15.1773 146.457C15.9163 146.506 16.6577 146.407 17.3581 146.166C18.0584 145.925 18.7037 145.547 19.2562 145.053C19.8087 144.56 20.2572 143.961 20.5756 143.292C20.894 142.622 21.0758 141.897 21.1104 141.156C21.1451 140.416 21.0318 139.676 20.7772 138.98C20.5227 138.284 20.132 137.646 19.628 137.103C19.124 136.56 18.5169 136.123 17.8421 135.818C17.1673 135.512 16.4383 135.344 15.698 135.324C14.6623 135.276 13.6341 135.521 12.7312 136.031L13.7154 138.728L11.6756 136.793C10.5905 137.782 9.94138 139.161 9.87033 140.629C9.84499 141.144 9.89315 141.661 10.0134 142.163C10.2902 143.343 10.9442 144.401 11.8761 145.176C12.808 145.951 13.9669 146.401 15.1773 146.457Z" fill="#1FB545"/>
<path opacity="0.1" d="M16.7651 130.051C18.0496 130.191 19.297 130.592 20.5872 130.672C21.8775 130.752 23.2936 130.443 24.109 129.438C24.5496 128.9 24.767 128.216 25.1389 127.626C25.4901 127.077 25.9717 126.624 26.5407 126.307C26.8981 127.013 27.101 127.787 27.1359 128.578C27.1708 129.368 27.0369 130.158 26.7431 130.892C26.4493 131.627 26.0024 132.291 25.4322 132.84C24.8619 133.388 24.1814 133.809 23.4359 134.073C22.6904 134.338 21.8972 134.441 21.1089 134.375C20.3207 134.309 19.5556 134.075 18.8646 133.69C18.1735 133.305 17.5725 132.777 17.1015 132.141C16.6304 131.505 16.3002 130.776 16.1328 130.002C16.3445 130.014 16.5534 130.028 16.7651 130.051Z" fill="black"/>
<path opacity="0.1" d="M15.1774 146.457C16.1368 146.501 17.0912 146.296 17.9481 145.862C18.8049 145.428 19.5351 144.779 20.0679 143.98C20.6007 143.18 20.918 142.257 20.9889 141.298C21.0599 140.34 20.8822 139.38 20.473 138.51C20.0319 138.809 19.6522 139.19 19.3544 139.632C18.9567 140.231 18.7164 140.923 18.25 141.473C17.3918 142.495 15.9013 142.827 14.5595 142.767C13.2177 142.707 11.9189 142.323 10.58 142.194C10.394 142.177 10.2052 142.166 10.0078 142.16C10.2844 143.342 10.939 144.401 11.8721 145.176C12.8051 145.952 13.9657 146.402 15.1774 146.457Z" fill="black"/>
<path opacity="0.1" d="M28.6918 155.454C29.4221 155.488 30.1521 155.378 30.84 155.13C31.5278 154.882 32.1601 154.501 32.7008 154.008C33.2414 153.516 33.6797 152.922 33.9908 152.259C34.3019 151.597 34.4796 150.88 34.5137 150.15C34.557 149.277 34.3923 148.407 34.0331 147.61C33.574 147.916 33.1754 148.305 32.8572 148.756C32.4252 149.365 32.1535 150.069 31.6471 150.633C30.7087 151.678 29.1295 152.048 27.7076 152.013C26.3287 151.985 25.0012 151.647 23.6309 151.541C23.9705 152.634 24.6385 153.597 25.5441 154.297C26.4496 154.997 27.5486 155.401 28.6918 155.454Z" fill="black"/>
<path opacity="0.1" d="M25.9424 166.278C26.5902 167.551 27.7027 168.527 29.0496 169.004C30.3965 169.48 31.8748 169.42 33.1786 168.836C34.4825 168.252 35.5122 167.189 36.0546 165.866C36.597 164.544 36.6107 163.064 36.0928 161.732C35.6345 162.033 35.2229 162.401 34.8712 162.822C34.342 163.469 33.9929 164.202 33.3807 164.803C32.2363 165.92 30.4054 166.381 28.7689 166.424C27.8247 166.431 26.8808 166.382 25.9424 166.278Z" fill="black"/>
<path d="M192.681 150.175C192.687 149.481 192.53 148.796 192.223 148.173C191.916 147.551 191.467 147.009 190.913 146.591C190.845 143.966 188.974 141.822 186.568 141.49C186.382 140.598 185.965 139.771 185.358 139.092C184.751 138.412 183.977 137.905 183.112 137.62C182.901 137.553 182.686 137.502 182.468 137.468H182.405L182.294 137.454H182.199H182.105H181.982H181.907H181.704C179.25 137.454 177.207 139.332 176.786 141.808C175.199 141.441 173.742 141.917 173.482 142.921C173.415 143.188 173.43 143.468 173.525 143.726C173.794 144.504 174.669 145.249 175.857 145.618L176.011 145.664C176.088 145.687 176.166 145.704 176.243 145.721H176.294C175.858 146.652 175.796 147.716 176.121 148.691C176.447 149.667 177.134 150.48 178.042 150.962C178.007 150.982 177.972 151.004 177.939 151.028C177.793 151.163 177.676 151.327 177.596 151.509C177.309 152.013 177.086 152.55 176.932 153.109C176.818 153.587 176.798 154.088 176.646 154.561C176.386 155.419 175.716 156.172 175.639 157.086C175.605 157.492 175.671 157.97 175.382 158.248C175.31 158.31 175.233 158.366 175.153 158.417C174.95 158.555 174.779 158.735 174.649 158.943C174.565 159.116 174.452 159.273 174.315 159.407C174.054 159.605 173.625 159.585 173.496 159.888C173.368 160.191 173.699 160.549 173.622 160.881C173.559 161.15 173.265 161.274 173.05 161.454C172.81 161.714 172.642 162.033 172.564 162.378C172.136 162.461 171.696 162.448 171.274 162.341C170.852 162.233 170.459 162.034 170.123 161.757C170.239 162.052 170.323 162.358 170.375 162.67C170.035 162.307 169.474 162.201 169.059 162.012C168.524 161.767 168.046 161.412 167.657 160.97L168.407 160.867L165.088 155.829L164.11 155.628L164.988 157.315C164.916 157.349 164.853 157.399 164.804 157.462C164.754 157.524 164.719 157.597 164.702 157.675C164.655 157.862 164.643 158.056 164.668 158.248C164.714 158.7 164.79 159.148 164.894 159.59L165.148 160.775C165.17 160.887 165.198 160.996 165.231 161.105C164.899 161.093 164.568 161.13 164.247 161.216C163.589 160.973 162.904 160.81 162.207 160.732C162.054 160.706 161.897 160.713 161.747 160.755C161.577 160.834 161.429 160.954 161.318 161.105C160.745 161.767 160.238 162.482 159.801 163.24C158.019 166.343 155.639 169.051 153.41 171.857C151.871 172.483 150.32 173.079 148.767 173.669L145.428 174.942C144.762 175.197 144.069 175.458 143.36 175.412C143.039 175.392 142.65 175.343 142.47 175.615C142.382 175.75 142.314 175.896 142.267 176.05C142.15 176.05 142.032 176.079 141.924 176.085H141.904C141.692 175.558 141.509 174.994 141.102 174.61C141.021 174.623 140.943 174.656 140.877 174.706C140.811 174.756 140.759 174.821 140.725 174.897C140.645 175.046 140.596 175.209 140.505 175.346C140.324 175.609 140.012 175.738 139.789 175.962C139.566 176.185 139.426 176.534 139.186 176.752C138.849 176.996 138.455 177.149 138.041 177.195C137.422 177.341 136.825 177.568 136.265 177.871C136.058 177.998 135.837 178.1 135.607 178.174C135.353 178.223 135.093 178.232 134.837 178.2L133.069 178.071C132.912 178.051 132.752 178.057 132.597 178.091C132.415 178.158 132.26 178.283 132.156 178.448C132.053 178.612 132.007 178.806 132.025 178.999C132.046 179.191 132.107 179.376 132.203 179.543C132.299 179.711 132.428 179.857 132.583 179.972C132.89 180.197 133.229 180.374 133.59 180.496C135.126 181.091 136.71 181.556 138.325 181.884V182.242C139.444 182.806 140.679 183.1 141.932 183.101C142.024 183.108 142.117 183.091 142.201 183.052C142.317 182.965 142.397 182.839 142.427 182.697C142.802 181.575 143.039 180.411 143.134 179.231C143.355 179.216 143.571 179.161 143.772 179.067C144.381 178.901 144.985 179.319 145.611 179.388C146.384 179.471 147.102 179.022 147.831 178.744C147.937 178.704 148.043 178.67 148.149 178.635C147.941 178.905 147.695 179.143 147.419 179.342C147.116 179.56 146.776 179.72 146.478 179.946C146.231 180.172 145.966 180.378 145.686 180.562C145.488 180.654 145.284 180.732 145.076 180.797C144.774 180.907 144.486 181.052 144.218 181.229C143.978 181.37 143.774 181.567 143.623 181.801C143.547 181.911 143.5 182.038 143.487 182.171C143.474 182.304 143.495 182.437 143.549 182.56C143.602 182.682 143.686 182.788 143.792 182.869C143.898 182.95 144.023 183.002 144.155 183.021C144.394 183.063 144.638 183.07 144.879 183.041C145.834 182.969 146.787 182.88 147.74 182.795C148.143 182.768 148.544 182.71 148.938 182.623C149.147 182.571 149.353 182.503 149.562 182.448C149.918 182.354 150.284 182.299 150.652 182.285C150.759 182.277 150.867 182.287 150.97 182.317C151.193 182.388 151.35 182.603 151.576 182.66C151.723 182.674 151.871 182.654 152.008 182.6C152.706 182.448 153.417 182.373 154.131 182.374C154.443 182.357 154.809 182.297 154.955 182.007C155.132 181.65 154.835 181.249 154.717 180.862C154.658 180.617 154.625 180.365 154.62 180.112C154.566 179.489 154.387 178.882 154.094 178.329C153.938 178.071 153.807 177.799 153.702 177.516C155.069 176.996 156.377 176.332 157.604 175.535C158.308 175.097 159.035 174.625 159.83 174.464C160.757 174.278 161.712 174.525 162.625 174.788C164.799 175.417 166.937 176.164 169.031 177.024C170.032 177.433 171.033 177.868 172.057 178.169C172.357 178.573 172.719 178.927 173.13 179.216C173.817 179.66 174.655 179.789 175.462 179.852C176.552 179.951 177.646 179.993 178.74 179.975C179.576 179.961 180.437 179.903 181.184 179.523C181.366 179.429 181.538 179.316 181.696 179.185C182.268 179.288 182.854 178.982 183.303 178.589C183.898 178.083 184.327 177.41 184.534 176.657C184.797 175.624 184.594 174.419 185.229 173.574C185.398 173.348 185.618 173.165 185.784 172.936C185.988 172.629 186.089 172.265 186.07 171.897L186.099 171.854C186.242 171.522 186.339 171.171 186.385 170.812C186.46 170.531 186.556 170.257 186.671 169.99C186.993 169.191 187.274 168.376 187.512 167.548C187.677 166.999 187.807 166.44 187.901 165.874C187.97 165.421 188.01 164.966 188.047 164.511C188.093 163.799 188.231 163.095 188.459 162.419C189.024 160.804 189.343 159.113 189.406 157.403C189.406 157.369 189.406 157.337 189.406 157.303C190.236 157.212 191.003 156.814 191.556 156.187C192.109 155.56 192.408 154.75 192.395 153.914C192.396 153.41 192.291 152.911 192.086 152.451C192.481 151.758 192.686 150.973 192.681 150.175ZM176.503 169.844C176.552 170.019 176.609 170.193 176.666 170.368C176.403 170.108 176.143 169.838 175.877 169.581C175.982 169.612 176.088 169.647 176.191 169.684C176.301 169.727 176.406 169.781 176.506 169.844H176.503ZM175.221 168.985C173.659 167.629 171.851 166.575 170.252 165.264C171.11 165.696 171.969 166.197 172.827 166.678C173.826 167.251 174.837 167.798 175.859 168.321C175.692 168.576 175.478 168.797 175.23 168.974L175.221 168.985ZM175.888 165.567L175.962 165.49C175.962 165.682 175.962 165.862 175.962 166.025C175.822 165.98 175.676 165.934 175.542 165.882C175.665 165.782 175.782 165.672 175.891 165.556L175.888 165.567ZM162.136 169.243C162.779 168.515 163.338 167.717 163.804 166.864C164.422 167.949 165.429 168.731 166.287 169.638C164.908 169.443 163.526 169.292 162.139 169.232L162.136 169.243Z" fill="url(#paint0_linear_11_91)"/>
<path d="M164.367 156.047L165.354 156.247L168.716 161.217L167.231 161.417L164.367 156.047Z" fill="#2F2E41"/>
<path d="M140.464 176.217C140.73 177.097 141.058 177.958 141.445 178.793C142.559 178.56 143.655 178.247 144.724 177.857C144.517 177.534 144.289 177.226 144.043 176.932C143.78 176.64 143.466 176.398 143.116 176.219C142.775 176.071 142.355 176.182 141.992 176.202C141.482 176.221 140.973 176.226 140.464 176.217Z" fill="#FBBEBE"/>
<path d="M143.122 177.545C142.567 177.37 142.226 176.809 142 176.268C141.774 175.727 141.591 175.137 141.162 174.739C141.081 174.752 141.003 174.785 140.937 174.835C140.872 174.885 140.819 174.95 140.785 175.026C140.702 175.169 140.653 175.332 140.559 175.469C140.381 175.727 140.066 175.853 139.84 176.073C139.614 176.294 139.474 176.629 139.231 176.849C138.894 177.092 138.5 177.244 138.087 177.29C137.463 177.431 136.861 177.655 136.296 177.954C136.087 178.075 135.864 178.171 135.632 178.24C135.377 178.289 135.115 178.298 134.857 178.266L133.074 178.137C132.916 178.118 132.755 178.125 132.6 178.16C132.418 178.223 132.263 178.346 132.159 178.508C132.055 178.67 132.009 178.862 132.027 179.053C132.051 179.244 132.114 179.428 132.213 179.593C132.311 179.758 132.443 179.901 132.6 180.012C132.909 180.234 133.251 180.408 133.612 180.528C135.165 181.112 136.763 181.569 138.39 181.893V182.245C139.521 182.805 140.765 183.099 142.026 183.104C142.124 183.113 142.223 183.096 142.312 183.055C142.428 182.97 142.51 182.846 142.541 182.706C142.969 181.455 143.218 180.15 143.282 178.83C143.315 178.496 143.29 178.159 143.208 177.834C143.11 177.513 143.442 177.648 143.133 177.522" fill="#2F2E41"/>
<path d="M177.292 170.823C172.008 171.144 166.79 169.592 161.497 169.426C160.84 169.386 160.181 169.429 159.535 169.552C158.861 169.733 158.209 169.987 157.589 170.308C154.754 171.628 151.819 172.721 148.886 173.815L145.522 175.069C144.847 175.318 144.152 175.572 143.434 175.53C143.113 175.509 142.721 175.461 142.538 175.73C141.992 176.54 142.252 177.734 142.612 178.644C142.73 178.93 142.927 179.259 143.242 179.294C143.465 179.279 143.683 179.223 143.886 179.131C144.498 178.968 145.11 179.38 145.739 179.446C146.52 179.529 147.244 179.085 147.98 178.813C149.198 178.363 150.531 178.378 151.813 178.163C153.965 177.805 155.956 176.806 157.821 175.667C158.531 175.235 159.251 174.771 160.064 174.613C160.999 174.43 161.964 174.671 162.882 174.931C165.071 175.551 167.227 176.286 169.339 177.133C170.438 177.611 171.566 178.022 172.715 178.363C175.219 179.023 177.868 178.869 180.279 177.923C181.137 177.588 182.041 176.998 182.09 176.085C182.119 175.564 181.715 175.106 181.446 174.654C181.272 174.367 181.1 174.081 180.911 173.809C180.001 172.481 178.897 170.726 177.292 170.823Z" fill="#2F2E41"/>
<path opacity="0.1" d="M177.292 170.823C172.008 171.144 166.79 169.592 161.497 169.426C160.84 169.386 160.181 169.429 159.535 169.552C158.861 169.733 158.209 169.987 157.589 170.308C154.754 171.628 151.819 172.721 148.886 173.815L145.522 175.069C144.847 175.318 144.152 175.572 143.434 175.53C143.113 175.509 142.721 175.461 142.538 175.73C141.992 176.54 142.252 177.734 142.612 178.644C142.73 178.93 142.927 179.259 143.242 179.294C143.465 179.279 143.683 179.223 143.886 179.131C144.498 178.968 145.11 179.38 145.739 179.446C146.52 179.529 147.244 179.085 147.98 178.813C149.198 178.363 150.531 178.378 151.813 178.163C153.965 177.805 155.956 176.806 157.821 175.667C158.531 175.235 159.251 174.771 160.064 174.613C160.999 174.43 161.964 174.671 162.882 174.931C165.071 175.551 167.227 176.286 169.339 177.133C170.438 177.611 171.566 178.022 172.715 178.363C175.219 179.023 177.868 178.869 180.279 177.923C181.137 177.588 182.041 176.998 182.09 176.085C182.119 175.564 181.715 175.106 181.446 174.654C181.272 174.367 181.1 174.081 180.911 173.809C180.001 172.481 178.897 170.726 177.292 170.823Z" fill="black"/>
<path d="M150.606 176.474C151.434 176.755 152.267 177.014 153.106 177.253C153.578 176.477 154.46 175.939 154.66 175.054C154.671 175.016 154.671 174.975 154.66 174.937C154.638 174.899 154.605 174.869 154.565 174.851C153.962 174.518 153.293 174.323 152.606 174.278C152.062 174.244 151.816 174.811 151.57 175.209C151.484 175.369 150.826 176.549 150.606 176.474Z" fill="#FBBEBE"/>
<path d="M151.77 175.907C151.523 175.866 151.287 175.774 151.078 175.636C150.869 175.499 150.69 175.319 150.554 175.109C150.437 174.905 150.314 174.631 150.079 174.645C149.845 174.659 149.765 174.917 149.716 175.131C149.558 175.933 149.329 176.72 149.032 177.482C148.733 178.246 148.227 178.911 147.57 179.402C147.264 179.614 146.924 179.775 146.623 179.998C146.373 180.221 146.105 180.424 145.822 180.605C145.623 180.696 145.417 180.772 145.207 180.834C144.899 180.942 144.604 181.085 144.329 181.26C144.088 181.402 143.883 181.598 143.731 181.833C143.658 181.952 143.615 182.088 143.606 182.227C143.597 182.367 143.622 182.507 143.679 182.634C143.741 182.738 143.824 182.828 143.923 182.897C144.021 182.967 144.133 183.015 144.252 183.038C144.493 183.078 144.738 183.084 144.981 183.055C145.945 182.984 146.907 182.898 147.868 182.812C148.275 182.787 148.679 182.731 149.078 182.646C149.29 182.594 149.496 182.526 149.704 182.471C150.065 182.379 150.434 182.326 150.806 182.311C150.914 182.303 151.022 182.313 151.126 182.342C151.35 182.414 151.507 182.629 151.736 182.68C151.883 182.696 152.032 182.676 152.171 182.623C152.874 182.474 153.591 182.399 154.311 182.4C154.625 182.382 154.997 182.322 155.14 182.039C155.32 181.687 155.023 181.292 154.903 180.914C154.843 180.672 154.81 180.424 154.803 180.175C154.748 179.56 154.568 178.963 154.273 178.421C154.027 177.968 153.701 177.47 153.864 176.989C153.952 176.839 154.007 176.673 154.027 176.5C153.987 175.724 152.205 176.01 151.77 175.907Z" fill="#2F2E41"/>
<path d="M169.37 162.344C168.434 161.931 167.684 161.185 167.265 160.252C167.179 160.051 167.105 159.842 167.022 159.639C166.743 158.967 166.312 158.369 165.763 157.893C165.704 157.828 165.632 157.777 165.551 157.743C165.471 157.709 165.384 157.693 165.296 157.695C165.212 157.721 165.136 157.768 165.075 157.832C165.015 157.897 164.973 157.976 164.953 158.062C164.904 158.248 164.891 158.443 164.916 158.634C164.965 159.079 165.041 159.519 165.145 159.954L165.402 161.122C165.435 161.301 165.489 161.476 165.562 161.643C165.673 161.839 165.818 162.013 165.992 162.155C166.226 162.373 166.464 162.582 166.704 162.785C166.836 162.905 166.981 163.011 167.136 163.1C167.39 163.22 167.661 163.3 167.94 163.335C168.99 163.529 170.057 163.81 170.941 164.48C170.941 164.48 170.941 163.698 170.921 163.621C170.91 163.395 170.833 163.176 170.698 162.994C170.366 162.636 169.794 162.53 169.37 162.344Z" fill="#FBBEBE"/>
<path opacity="0.1" d="M169.37 162.344C168.434 161.931 167.684 161.185 167.265 160.252C167.179 160.051 167.105 159.842 167.022 159.639C166.743 158.967 166.312 158.369 165.763 157.893C165.704 157.828 165.632 157.777 165.551 157.743C165.471 157.709 165.384 157.693 165.296 157.695C165.212 157.721 165.136 157.768 165.075 157.832C165.015 157.897 164.973 157.976 164.953 158.062C164.904 158.248 164.891 158.443 164.916 158.634C164.965 159.079 165.041 159.519 165.145 159.954L165.402 161.122C165.435 161.301 165.489 161.476 165.562 161.643C165.673 161.839 165.818 162.013 165.992 162.155C166.226 162.373 166.464 162.582 166.704 162.785C166.836 162.905 166.981 163.011 167.136 163.1C167.39 163.22 167.661 163.3 167.94 163.335C168.99 163.529 170.057 163.81 170.941 164.48C170.941 164.48 170.941 163.698 170.921 163.621C170.91 163.395 170.833 163.176 170.698 162.994C170.366 162.636 169.794 162.53 169.37 162.344Z" fill="black"/>
<path d="M180.127 153.413C180.837 153.413 181.412 152.834 181.412 152.119C181.412 151.404 180.837 150.825 180.127 150.825C179.418 150.825 178.843 151.404 178.843 152.119C178.843 152.834 179.418 153.413 180.127 153.413Z" fill="#2F2E41"/>
<path d="M179.332 151.338C178.987 151.259 178.625 151.311 178.316 151.484C178.168 151.615 178.05 151.777 177.97 151.959C177.681 152.453 177.456 152.982 177.301 153.533C177.186 154.006 177.166 154.498 177.014 154.965C176.751 155.823 176.076 156.553 175.999 157.449C175.964 157.85 176.03 158.322 175.738 158.594C175.666 158.655 175.588 158.71 175.507 158.758C175.303 158.894 175.131 159.071 175 159.279C174.913 159.464 174.792 159.632 174.643 159.774C174.38 159.968 173.948 159.948 173.819 160.249C173.69 160.55 174.022 160.899 173.945 161.225C173.882 161.491 173.584 161.614 173.372 161.798C173.131 162.053 172.962 162.368 172.883 162.711C172.454 162.792 172.011 162.779 171.587 162.672C171.163 162.566 170.767 162.369 170.426 162.095C170.783 162.98 170.792 163.956 170.806 164.909C170.848 165.214 170.766 165.523 170.58 165.768C171.604 165.791 172.6 166.054 173.599 166.292C174.026 166.435 174.488 166.435 174.915 166.292C175.143 166.169 175.347 166.006 175.518 165.811C176.062 165.259 176.631 164.666 176.763 163.896C176.797 163.463 176.805 163.028 176.786 162.593C176.838 162.057 176.948 161.529 177.115 161.016C177.402 159.952 177.593 158.865 177.687 157.767C177.747 157.089 178.33 156.545 178.639 155.938C179.212 154.793 179.812 153.605 179.858 152.322C179.898 151.904 179.755 151.392 179.332 151.338Z" fill="#2F2E41"/>
<path opacity="0.1" d="M179.332 151.338C178.987 151.259 178.625 151.311 178.316 151.484C178.168 151.615 178.05 151.777 177.97 151.959C177.681 152.453 177.456 152.982 177.301 153.533C177.186 154.006 177.166 154.498 177.014 154.965C176.751 155.823 176.076 156.553 175.999 157.449C175.964 157.85 176.03 158.322 175.738 158.594C175.666 158.655 175.588 158.71 175.507 158.758C175.303 158.894 175.131 159.071 175 159.279C174.913 159.464 174.792 159.632 174.643 159.774C174.38 159.968 173.948 159.948 173.819 160.249C173.69 160.55 174.022 160.899 173.945 161.225C173.882 161.491 173.584 161.614 173.372 161.798C173.131 162.053 172.962 162.368 172.883 162.711C172.454 162.792 172.011 162.779 171.587 162.672C171.163 162.566 170.767 162.369 170.426 162.095C170.783 162.98 170.792 163.956 170.806 164.909C170.848 165.214 170.766 165.523 170.58 165.768C171.604 165.791 172.6 166.054 173.599 166.292C174.026 166.435 174.488 166.435 174.915 166.292C175.143 166.169 175.347 166.006 175.518 165.811C176.062 165.259 176.631 164.666 176.763 163.896C176.797 163.463 176.805 163.028 176.786 162.593C176.838 162.057 176.948 161.529 177.115 161.016C177.402 159.952 177.593 158.865 177.687 157.767C177.747 157.089 178.33 156.545 178.639 155.938C179.212 154.793 179.812 153.605 179.858 152.322C179.898 151.904 179.755 151.392 179.332 151.338Z" fill="black"/>
<path d="M178.13 171.937C177.029 171.413 176.225 170.437 175.335 169.601C173.636 168.004 171.559 166.876 169.774 165.379C168.592 164.388 167.533 163.234 166.232 162.404C165.087 161.673 163.788 161.218 162.438 161.073C162.284 161.046 162.126 161.054 161.975 161.096C161.804 161.173 161.656 161.291 161.543 161.44C160.966 162.09 160.453 162.795 160.012 163.544C157.749 167.385 154.536 170.617 151.873 174.193C151.788 174.277 151.737 174.39 151.731 174.51C151.725 174.63 151.765 174.747 151.841 174.839L152.382 175.902C152.685 176.494 153.172 177.187 153.813 177.069C154.107 176.985 154.37 176.817 154.571 176.586L157.003 174.258L159.552 171.819C161.045 170.388 162.564 168.928 163.54 167.102C164.301 168.422 165.651 169.286 166.578 170.497C166.93 170.955 167.216 171.462 167.531 171.948C168.037 172.73 168.609 173.463 169.181 174.193L172.108 177.928C172.477 178.46 172.935 178.925 173.461 179.302C174.154 179.74 174.998 179.858 175.813 179.929C176.911 180.029 178.014 180.07 179.117 180.049C179.958 180.035 180.834 179.981 181.578 179.606C182.321 179.231 182.954 178.461 182.914 177.622C182.868 177.182 182.724 176.759 182.493 176.382C181.46 174.464 180.093 172.861 178.13 171.937Z" fill="#2F2E41"/>
<path d="M180.917 154.008C181.462 154.008 181.904 153.564 181.904 153.015C181.904 152.466 181.462 152.022 180.917 152.022C180.372 152.022 179.93 152.466 179.93 153.015C179.93 153.564 180.372 154.008 180.917 154.008Z" fill="#E8E8F0"/>
<path d="M180.7 152.268C180.923 152.712 180.962 153.226 180.809 153.699C180.656 154.164 180.442 154.607 180.173 155.016C179.942 155.438 179.665 155.834 179.347 156.195C180.872 156.27 182.351 155.672 183.695 154.944C184.78 154.372 185.861 153.642 186.439 152.551C186.267 152.592 186.088 152.597 185.914 152.565C185.74 152.533 185.575 152.465 185.429 152.365C185.138 152.162 184.877 151.919 184.654 151.644L183.89 150.785C183.709 150.597 183.551 150.388 183.418 150.164C183.251 149.859 183.18 149.511 183.215 149.165C182.91 149.483 182.571 149.766 182.202 150.006C181.655 150.364 181.057 150.622 180.505 150.974C180.311 151.1 179.879 151.303 179.99 151.546C180.102 151.79 180.545 151.993 180.7 152.268Z" fill="#FBBEBE"/>
<path opacity="0.1" d="M180.7 152.268C180.923 152.712 180.962 153.226 180.809 153.699C180.656 154.164 180.442 154.607 180.173 155.016C179.942 155.438 179.665 155.834 179.347 156.195C180.872 156.27 182.351 155.672 183.695 154.944C184.78 154.372 185.861 153.642 186.439 152.551C186.267 152.592 186.088 152.597 185.914 152.565C185.74 152.533 185.575 152.465 185.429 152.365C185.138 152.162 184.877 151.919 184.654 151.644L183.89 150.785C183.709 150.597 183.551 150.388 183.418 150.164C183.251 149.859 183.18 149.511 183.215 149.165C182.91 149.483 182.571 149.766 182.202 150.006C181.655 150.364 181.057 150.622 180.505 150.974C180.311 151.1 179.879 151.303 179.99 151.546C180.102 151.79 180.545 151.993 180.7 152.268Z" fill="black"/>
<path d="M180.72 152.417C180.565 152.635 180.483 152.895 180.483 153.162C180.483 153.43 180.565 153.69 180.72 153.908C180.762 153.963 180.926 154.303 181.006 154.306C181.073 154.3 181.136 154.268 181.18 154.217C181.526 153.856 181.849 153.474 182.147 153.072C182.449 152.666 182.885 152.38 183.377 152.265C183.975 152.171 184.55 152.488 185.074 152.792C185.299 152.904 185.495 153.066 185.646 153.267C185.756 153.466 185.822 153.687 185.838 153.914C185.988 155.279 186.045 156.652 186.009 158.025C186.037 159.014 185.972 160.004 185.815 160.982C185.718 161.485 185.572 161.978 185.503 162.487C185.453 162.936 185.433 163.387 185.443 163.839V165.728C185.43 166.074 185.455 166.42 185.517 166.761C185.635 167.168 185.774 167.568 185.932 167.961C186.071 168.428 186.167 168.907 186.218 169.392L186.476 171.347C186.559 171.965 186.619 172.638 186.244 173.133C186.078 173.36 185.855 173.537 185.672 173.76C185.028 174.579 185.243 175.767 184.957 176.783C184.745 177.529 184.312 178.193 183.715 178.687C183.26 179.073 182.671 179.38 182.081 179.259C181.289 179.111 180.811 178.283 180.594 177.502C180.376 176.72 180.308 175.867 179.83 175.212C179.446 174.671 178.854 174.333 178.319 173.946C177.784 173.56 177.258 173.065 177.141 172.412C177.089 172.126 177.121 171.84 177.092 171.553C177.049 171.188 176.91 170.842 176.687 170.55C176.465 170.258 176.168 170.031 175.827 169.893C175.421 169.735 174.918 169.678 174.683 169.32C175.266 168.954 175.69 168.384 175.873 167.72C176.051 167.067 176.147 166.394 176.159 165.716L176.297 163.443C176.357 162.427 176.385 161.42 176.832 160.506C177.032 160.1 177.281 159.716 177.487 159.313C177.763 158.746 177.998 158.161 178.191 157.561C178.514 156.63 178.84 155.697 179.129 154.755C179.245 154.299 179.418 153.86 179.644 153.447C179.91 153.018 180.262 152.503 180.72 152.417Z" fill="#E8E8F0"/>
<path d="M175.676 167.185L176.277 167.205L176.406 166.298C176.423 166.116 176.465 165.938 176.531 165.768C176.631 165.589 176.747 165.419 176.878 165.261C177.47 164.425 177.427 163.315 177.573 162.298C177.767 160.944 178.334 159.673 178.895 158.425L180.062 155.823C180.166 155.609 180.249 155.386 180.311 155.156C180.362 154.903 180.386 154.645 180.382 154.386C180.382 153.985 180.514 152.523 180.522 152.119C180.522 151.97 180.196 152.053 180.128 151.921C179.982 151.635 179.781 152.414 179.507 152.586C179.248 152.784 179.059 153.06 178.969 153.373C178.717 154.028 178.563 154.718 178.328 155.377C178.122 156.051 177.747 156.661 177.238 157.149C177.001 157.36 176.723 157.526 176.497 157.75C175.77 158.468 175.702 159.602 175.676 160.612C175.659 161.239 175.542 167.185 175.676 167.185Z" fill="#2F2E41"/>
<path d="M184.33 151.332C183.758 151.561 183.426 152.191 183.263 152.803C183.1 153.416 183.031 154.063 182.716 154.607C181.984 155.883 180.116 156.255 179.598 157.635C179.466 158.101 179.396 158.582 179.389 159.067C179.297 160.054 178.971 161.01 178.874 161.998C178.824 162.766 178.842 163.537 178.928 164.302L179.584 172.097C179.711 173.245 179.644 174.406 179.386 175.532C180.058 175.629 180.743 175.516 181.349 175.209C181.964 174.923 182.525 174.545 183.114 174.218C184.13 173.646 185.251 173.259 186.138 172.501C186.299 172.375 186.437 172.223 186.547 172.051C186.689 171.724 186.786 171.378 186.833 171.024C186.908 170.748 187.004 170.478 187.119 170.216C187.448 169.431 187.734 168.628 187.977 167.812C188.144 167.27 188.275 166.719 188.369 166.16C188.441 165.716 188.478 165.267 188.518 164.82C188.564 164.118 188.703 163.425 188.933 162.759C189.5 161.172 189.822 159.506 189.886 157.821C189.905 157.578 189.889 157.333 189.837 157.094C189.738 156.805 189.606 156.528 189.442 156.27C189.17 155.757 189.007 155.193 188.75 154.675C188.178 153.502 187.151 152.611 186.078 151.864C185.528 151.501 184.925 151.106 184.33 151.332Z" fill="#2F2E41"/>
<path d="M170.673 164.05C170.208 163.807 169.787 163.488 169.428 163.106C169.265 162.914 169.142 162.699 168.965 162.51C168.544 162.062 167.999 161.751 167.4 161.617C166.804 161.486 166.195 161.427 165.586 161.443C165.179 161.414 164.77 161.464 164.381 161.589C164.186 161.652 164.011 161.765 163.871 161.915C163.73 162.065 163.631 162.248 163.58 162.447C163.492 162.934 163.809 163.406 164.19 163.715C164.544 164.005 164.96 164.208 165.406 164.308C165.769 164.371 166.136 164.414 166.504 164.437C168.667 164.663 170.598 165.84 172.492 166.913C174.157 167.854 175.855 168.735 177.584 169.555C177.653 169.037 177.682 168.515 177.67 167.992C177.67 167.603 177.642 167.007 177.273 166.778C176.844 166.509 176.128 166.449 175.653 166.289C174.538 165.925 173.45 165.485 172.395 164.972C171.797 164.683 171.225 164.377 170.673 164.05Z" fill="#FBBEBE"/>
<path d="M180.128 151.824C182.256 151.824 183.981 150.088 183.981 147.945C183.981 145.803 182.256 144.067 180.128 144.067C177.999 144.067 176.274 145.803 176.274 147.945C176.274 150.088 177.999 151.824 180.128 151.824Z" fill="#FBBEBE"/>
<path d="M185.432 155.729C185.125 156.16 184.874 156.629 184.685 157.123C184.207 158.105 183.46 158.946 183.088 159.986C182.694 161.065 182.708 162.35 181.944 163.2C181.791 163.329 181.675 163.497 181.609 163.687C181.605 163.805 181.591 163.923 181.569 164.039C181.461 164.348 180.954 164.363 180.86 164.677C180.834 164.769 180.86 164.869 180.814 164.964C180.737 165.167 180.471 165.196 180.291 165.319C179.916 165.573 180.004 166.163 179.718 166.53C179.602 166.666 179.452 166.768 179.283 166.828C179.114 166.887 178.933 166.901 178.757 166.867C178.406 166.793 178.069 166.667 177.756 166.492C177.646 166.43 177.524 166.392 177.398 166.381C177.249 166.384 177.104 166.433 176.983 166.521C176.271 166.973 175.936 167.872 175.942 168.719C175.992 169.567 176.193 170.398 176.534 171.176C176.574 171.31 176.642 171.434 176.732 171.542C176.966 171.791 177.378 171.751 177.693 171.611C177.988 171.436 178.302 171.296 178.628 171.193C179.223 171.084 179.807 171.496 180.411 171.462C180.852 171.395 181.268 171.211 181.615 170.929C182.228 170.557 182.777 170.088 183.24 169.541C183.503 169.195 183.698 168.8 183.93 168.43C184.226 167.977 184.55 167.542 184.902 167.131L187.125 164.408C187.348 164.151 187.548 163.874 187.723 163.581C187.924 163.185 188.08 162.769 188.189 162.339C188.428 161.621 188.582 160.879 188.65 160.126C188.661 159.503 188.607 158.88 188.487 158.268C188.412 157.66 188.251 157.065 188.009 156.502C187.514 155.5 186.338 154.67 185.432 155.729Z" fill="#2F2E41"/>
<path d="M193.173 150.676C193.176 149.989 193.016 149.31 192.705 148.696C192.395 148.083 191.943 147.552 191.388 147.147C191.371 145.926 190.921 144.751 190.119 143.831C189.317 142.91 188.214 142.305 187.008 142.123C186.775 140.966 186.141 139.929 185.218 139.195C184.296 138.46 183.144 138.074 181.965 138.106C180.787 138.138 179.657 138.585 178.775 139.369C177.894 140.152 177.317 141.222 177.146 142.389C175.544 142.028 174.079 142.498 173.813 143.486C173.527 144.519 174.672 145.727 176.365 146.185C176.896 146.335 177.449 146.39 177.999 146.348C178.393 146.927 178.903 147.417 179.497 147.786C180.091 148.156 180.756 148.398 181.449 148.495C181.653 149.429 182.113 150.287 182.777 150.973C183.442 151.66 184.285 152.147 185.211 152.38C185.467 152.999 185.865 153.55 186.373 153.988C186.373 154.109 186.353 154.232 186.353 154.358C186.334 154.798 186.405 155.237 186.561 155.649C186.716 156.061 186.953 156.437 187.258 156.755C187.563 157.073 187.929 157.326 188.333 157.499C188.738 157.672 189.174 157.761 189.614 157.761C190.054 157.761 190.49 157.672 190.895 157.499C191.3 157.326 191.665 157.073 191.97 156.755C192.275 156.437 192.512 156.061 192.668 155.649C192.823 155.237 192.894 154.798 192.875 154.358C192.876 153.864 192.769 153.375 192.564 152.926C192.966 152.245 193.176 151.468 193.173 150.676Z" fill="#F86D70"/>
<path opacity="0.1" d="M174.9 143.683C175.166 142.695 176.617 142.226 178.233 142.586C178.421 141.401 179.022 140.32 179.929 139.534C180.836 138.748 181.991 138.309 183.191 138.293C183.303 138.293 183.414 138.293 183.523 138.293C183.059 138.151 182.577 138.08 182.093 138.081C180.893 138.097 179.738 138.537 178.83 139.322C177.923 140.108 177.323 141.189 177.135 142.375C175.532 142.014 174.068 142.483 173.802 143.471C173.516 144.504 174.66 145.712 176.354 146.17C176.669 146.258 176.992 146.313 177.318 146.336C175.71 145.867 174.628 144.693 174.9 143.683Z" fill="black"/>
<path opacity="0.1" d="M187.44 154.558C187.44 154.432 187.44 154.309 187.46 154.186C186.953 153.749 186.555 153.199 186.299 152.58C185.373 152.345 184.531 151.857 183.866 151.17C183.202 150.484 182.742 149.626 182.536 148.693C181.843 148.595 181.178 148.354 180.584 147.985C179.99 147.615 179.48 147.125 179.086 146.546C178.766 146.571 178.444 146.562 178.125 146.52C178.52 147.053 179.018 147.503 179.589 147.842C180.16 148.181 180.792 148.403 181.449 148.495C181.653 149.429 182.113 150.287 182.777 150.973C183.442 151.66 184.285 152.147 185.211 152.38C185.468 152.999 185.866 153.55 186.373 153.988C186.373 154.109 186.353 154.232 186.353 154.358C186.338 155.235 186.671 156.083 187.279 156.716C187.887 157.349 188.72 157.715 189.597 157.735C188.957 157.488 188.408 157.052 188.022 156.484C187.637 155.916 187.434 155.244 187.44 154.558Z" fill="black"/>
<path d="M181.891 149.367C182.153 149.168 182.15 148.724 181.886 148.375C181.621 148.026 181.194 147.904 180.932 148.103C180.67 148.302 180.673 148.747 180.937 149.095C181.202 149.444 181.629 149.566 181.891 149.367Z" fill="#FBBEBE"/>
<path d="M89.7752 168.668L93.5859 166.426C93.0709 165.546 92.4124 164.757 91.6377 164.093L84.4511 166.329L90.0813 163.017C88.6872 162.253 87.1182 161.866 85.5289 161.893C83.9395 161.92 82.3846 162.36 81.0171 163.171C79.6496 163.982 78.5167 165.135 77.7298 166.517C76.9429 167.899 76.5292 169.462 76.5293 171.052C76.5293 176.111 80.629 176.285 85.6842 176.285C90.7394 176.285 94.839 176.111 94.839 171.052C94.842 169.77 94.5739 168.502 94.0523 167.331L89.7752 168.668Z" fill="#1FB545"/>
<path opacity="0.1" d="M90.7451 173.586C90.3392 173.179 89.8858 172.822 89.3947 172.524C88.7053 172.063 87.9872 171.593 87.1718 171.439C86.4566 171.301 85.7185 171.419 84.989 171.376C83.7222 171.298 82.5298 170.751 81.6446 169.841C81.1239 169.303 80.7148 168.642 80.0883 168.23C79.388 167.813 78.5617 167.662 77.7595 167.803C77.527 167.836 77.2967 167.882 77.07 167.943C76.7114 168.941 76.5285 169.992 76.5293 171.052C76.5293 176.11 80.629 176.285 85.6842 176.285C88.1388 176.285 90.3646 176.245 92.0096 175.624L91.7235 175.111C91.4636 174.563 91.1348 174.05 90.7451 173.586Z" fill="black"/>
</g>
<defs>
<linearGradient id="paint0_linear_11_91" x1="162.356" y1="183.104" x2="162.356" y2="137.405" gradientUnits="userSpaceOnUse">
<stop stop-color="#808080" stop-opacity="0.25"/>
<stop offset="0.54" stop-color="#808080" stop-opacity="0.12"/>
<stop offset="1" stop-color="#808080" stop-opacity="0.1"/>
</linearGradient>
<clipPath id="clip0_11_91">
<rect width="327" height="190" fill="white"/>
</clipPath>
</defs>
</svg>
