<svg width="327" height="144" viewBox="0 0 327 144" fill="none" xmlns="http://www.w3.org/2000/svg">
<g clip-path="url(#clip0_11_217)">
<path d="M97.2834 118.565C96.1591 127.379 92.0253 135.443 87.6153 143.211C87.4695 143.475 87.3194 143.736 87.1657 144H41.3304C40.4034 143.759 39.4884 143.495 38.5772 143.211C33.4002 141.633 28.5128 139.227 24.1048 136.086C7.24199 123.929 0.753196 100.957 3.68404 80.3735C5.50645 67.585 11.1154 54.5282 22.0378 47.6406C27.8047 43.9974 35.2124 42.8133 41.8511 44.1672C42.0248 44.1987 42.1983 44.2382 42.3757 44.2737C48.0874 45.5605 53.1757 48.7576 56.0711 53.9085C61.2778 63.1643 58.1774 74.6305 55.6176 84.9323C53.0654 95.2342 51.6807 107.565 59.0886 115.163C56.643 107.959 59.0571 99.3667 64.8989 94.496C69.3128 90.8213 75.4584 89.4438 81.0635 90.5845C81.5999 90.699 82.1286 90.8292 82.6492 90.9871C83.9076 91.3559 85.1208 91.8643 86.2663 92.5028C95.0033 97.3853 98.5416 108.63 97.2834 118.565Z" fill="#F2F2F2"/>
<path d="M70.1058 143.211C71.3758 143.507 72.6499 143.767 73.9318 144H67.0014C66.094 143.755 65.1907 143.495 64.2955 143.211C62.3271 142.595 60.389 141.888 58.4812 141.091C50.8289 137.878 43.78 133.055 38.447 126.637C35.8389 123.527 33.709 120.046 32.1279 116.307C30.4134 112.082 29.3239 107.629 28.8935 103.089C27.9271 93.7737 28.9132 84.2021 30.7552 75.0528C32.6562 65.5701 35.7248 56.3598 39.8908 47.6326C40.3917 46.5867 40.9098 45.5473 41.4449 44.5145C41.4817 44.4294 41.5374 44.3539 41.6078 44.2938C41.6782 44.2336 41.7614 44.1902 41.8511 44.1671C42.0332 44.1318 42.2219 44.1701 42.3758 44.2737C42.5605 44.3797 42.6975 44.5527 42.7584 44.7569C42.8193 44.9611 42.7996 45.1809 42.7032 45.371C38.4079 53.7529 35.1519 62.6284 33.0075 71.8004C30.9091 80.7484 29.7179 90.1108 30.1241 99.3114C30.5106 107.908 32.7552 116.363 37.8475 123.392C42.498 129.81 48.9196 134.87 56.0238 138.316C60.5203 140.469 65.2438 142.111 70.1058 143.211Z" fill="white"/>
<path d="M85.3157 144H83.2724C83.0435 143.74 82.8226 143.475 82.6058 143.211C77.9516 137.552 74.7987 130.811 73.4386 123.61C71.7869 114.623 73.0718 105.343 77.1031 97.1446C78.2278 94.8456 79.553 92.6504 81.0634 90.5846C81.5998 90.6991 82.1285 90.8293 82.6491 90.9872C78.6764 96.2541 76.0043 102.386 74.8507 108.883C73.8217 114.971 74.1639 121.212 75.8522 127.151C77.5405 133.09 80.5324 138.576 84.6096 143.211C84.8382 143.475 85.0749 143.74 85.3157 144Z" fill="white"/>
<path d="M269.382 137.287C269.679 139.613 270.77 141.742 271.934 143.792C271.972 143.861 272.012 143.93 272.052 144H284.149C284.394 143.936 284.635 143.867 284.876 143.792C286.242 143.375 287.532 142.74 288.695 141.911C293.146 138.703 294.858 132.64 294.085 127.208C293.604 123.833 292.124 120.387 289.241 118.569C287.676 117.615 285.808 117.288 284.012 117.652C283.966 117.661 283.92 117.671 283.873 117.68C283.126 117.825 282.417 118.126 281.794 118.565C281.171 119.003 280.648 119.568 280.259 120.223C278.885 122.666 279.703 125.692 280.379 128.411C281.052 131.13 281.418 134.384 279.463 136.389C279.749 135.551 279.807 134.651 279.631 133.782C279.455 132.914 279.051 132.108 278.46 131.447C277.87 130.787 277.114 130.296 276.271 130.024C275.428 129.753 274.528 129.711 273.663 129.903C273.521 129.933 273.382 129.967 273.244 130.009C272.912 130.106 272.592 130.24 272.29 130.409C269.984 131.698 269.05 134.665 269.382 137.287Z" fill="#F2F2F2"/>
<path d="M276.555 143.792C276.22 143.87 275.884 143.939 275.545 144H277.374C277.614 143.935 277.852 143.867 278.088 143.792C278.608 143.629 279.119 143.443 279.623 143.232C281.665 142.403 283.478 141.094 284.91 139.418C285.599 138.597 286.161 137.678 286.578 136.691C287.03 135.576 287.318 134.401 287.432 133.203C287.639 130.726 287.474 128.231 286.94 125.804C286.439 123.301 285.629 120.87 284.529 118.567C284.397 118.291 284.26 118.017 284.119 117.744C284.109 117.722 284.095 117.702 284.076 117.686C284.057 117.67 284.036 117.658 284.012 117.652C283.964 117.643 283.914 117.653 283.873 117.68C283.825 117.708 283.788 117.754 283.772 117.808C283.756 117.862 283.762 117.92 283.787 117.97C284.921 120.182 285.78 122.525 286.346 124.945C286.929 127.32 287.185 129.762 287.107 132.206C287.065 134.479 286.356 136.689 285.069 138.561C283.816 140.248 282.169 141.6 280.271 142.5C279.085 143.068 277.838 143.501 276.555 143.792Z" fill="white"/>
<path d="M272.541 144H273.08C273.14 143.931 273.199 143.862 273.256 143.792C274.484 142.298 275.316 140.519 275.675 138.619C276.111 136.247 275.772 133.798 274.708 131.634C274.411 131.027 274.062 130.448 273.663 129.903C273.521 129.933 273.382 129.967 273.244 130.009C274.293 131.399 274.998 133.017 275.303 134.732C275.574 136.339 275.484 137.986 275.038 139.553C274.593 141.121 273.803 142.569 272.727 143.792C272.667 143.862 272.604 143.931 272.541 144Z" fill="white"/>
<path d="M160.348 83.8781H122.488L122.087 72.2301C122.07 71.7252 122.162 71.2225 122.357 70.7566C122.553 70.2907 122.847 69.8728 123.219 69.5315C123.591 69.1902 124.033 68.9336 124.514 68.7795C124.995 68.6254 125.503 68.5774 126.004 68.6388L148.036 71.3384H148.039C151.305 71.3472 154.435 72.6512 156.742 74.9646C159.049 77.2781 160.346 80.4124 160.348 83.6808V83.8781Z" fill="#1FB545"/>
<path d="M143.474 42.5607H117.068C116.717 42.5606 116.37 42.6297 116.045 42.7642C115.721 42.8986 115.426 43.0957 115.178 43.3442C114.929 43.5926 114.732 43.8876 114.598 44.2123C114.464 44.537 114.394 44.885 114.395 45.2364V71.6588C114.394 72.0102 114.464 72.3581 114.598 72.6828C114.732 73.0075 114.929 73.3025 115.178 73.551C115.426 73.7995 115.721 73.9965 116.045 74.131C116.37 74.2654 116.717 74.3345 117.068 74.3345H143.474C143.825 74.3345 144.173 74.2654 144.497 74.131C144.822 73.9965 145.117 73.7995 145.365 73.551C145.613 73.3025 145.81 73.0075 145.945 72.6828C146.079 72.3582 146.148 72.0102 146.148 71.6588V45.2364C146.148 44.885 146.079 44.537 145.945 44.2123C145.81 43.8876 145.613 43.5926 145.365 43.3441C145.117 43.0957 144.822 42.8986 144.497 42.7642C144.173 42.6297 143.825 42.5606 143.474 42.5607Z" fill="#CCCCCC"/>
<path d="M137.527 62.3183L125.06 64.7477C124.32 64.8909 123.554 64.7348 122.93 64.3135C122.305 63.8922 121.873 63.2402 121.728 62.5006L120.77 57.5762C120.626 56.8362 120.783 56.0696 121.203 55.4445C121.624 54.8195 122.276 54.3871 123.015 54.2422L135.482 51.8129C136.222 51.6696 136.988 51.8258 137.613 52.247C138.237 52.6683 138.669 53.3203 138.814 54.06L139.773 58.9844C139.916 59.7244 139.76 60.491 139.339 61.116C138.918 61.741 138.266 62.1734 137.527 62.3183Z" fill="#3F3D56"/>
<path d="M135.033 56.5007L125.519 58.3547C125.345 58.3886 125.165 58.352 125.018 58.2528C124.871 58.1536 124.769 58.0001 124.735 57.826C124.701 57.6518 124.738 57.4713 124.837 57.3242C124.936 57.1771 125.089 57.0754 125.263 57.0415L134.778 55.1875C134.952 55.1536 135.132 55.1903 135.279 55.2894C135.426 55.3886 135.528 55.5421 135.562 55.7162C135.596 55.8904 135.559 56.0709 135.46 56.218C135.361 56.3651 135.207 56.4668 135.033 56.5007Z" fill="white"/>
<path d="M133.183 59.2462L128.262 60.2051C128.088 60.239 127.908 60.2024 127.761 60.1032C127.614 60.0041 127.512 59.8505 127.478 59.6764C127.444 59.5023 127.481 59.3218 127.58 59.1747C127.679 59.0276 127.833 58.9259 128.007 58.892L132.928 57.933C133.014 57.9162 133.103 57.9166 133.189 57.934C133.275 57.9515 133.356 57.9858 133.429 58.0349C133.502 58.084 133.564 58.1469 133.613 58.2202C133.661 58.2934 133.695 58.3755 133.712 58.4617C133.729 58.5479 133.728 58.6366 133.711 58.7227C133.693 58.8088 133.659 58.8906 133.61 58.9634C133.561 59.0363 133.498 59.0987 133.425 59.1473C133.352 59.1958 133.269 59.2294 133.183 59.2462Z" fill="white"/>
<path d="M146.148 45.2364V48.7482H114.395V45.2364C114.394 44.885 114.464 44.537 114.598 44.2123C114.732 43.8876 114.929 43.5926 115.178 43.3442C115.426 43.0957 115.721 42.8986 116.045 42.7642C116.37 42.6297 116.717 42.5606 117.068 42.5607H143.474C143.825 42.5606 144.173 42.6297 144.497 42.7642C144.822 42.8986 145.117 43.0957 145.365 43.3442C145.613 43.5926 145.81 43.8876 145.945 44.2123C146.079 44.537 146.148 44.885 146.148 45.2364Z" fill="#B3B3B3"/>
<path d="M209.556 49.8481C209.373 49.2559 209.062 48.7112 208.646 48.2523C208.229 47.7934 207.717 47.4314 207.146 47.1919C206.575 46.9524 205.958 46.8412 205.339 46.866C204.72 46.8909 204.114 47.0513 203.563 47.3358L167.236 34.2937L165.636 43.3748L201.848 53.3393C202.387 54.2327 203.235 54.8973 204.231 55.207C205.227 55.5168 206.302 55.4502 207.252 55.0198C208.202 54.5895 208.961 53.8253 209.386 52.8721C209.811 51.9189 209.871 50.843 209.556 49.8481Z" fill="#FFB8B8"/>
<path opacity="0.2" d="M209.556 49.8481C209.373 49.2559 209.062 48.7112 208.646 48.2523C208.229 47.7934 207.717 47.4314 207.146 47.1919C206.575 46.9524 205.958 46.8412 205.339 46.866C204.72 46.8909 204.114 47.0513 203.563 47.3358L167.236 34.2937L165.636 43.3748L201.848 53.3393C202.387 54.2327 203.235 54.8973 204.231 55.207C205.227 55.5168 206.302 55.4502 207.252 55.0198C208.202 54.5895 208.961 53.8253 209.386 52.8721C209.811 51.9189 209.871 50.843 209.556 49.8481Z" fill="black"/>
<path d="M173.684 35.9483L170.253 44.9161C170.156 45.1713 170.004 45.4024 169.809 45.5937C169.614 45.785 169.38 45.932 169.124 46.0248C168.867 46.1175 168.593 46.1538 168.321 46.1311C168.049 46.1084 167.785 46.0273 167.547 45.8933L159.21 41.1978C157.908 40.6906 156.86 39.6876 156.297 38.4088C155.733 37.1299 155.699 35.6795 156.202 34.3756C156.705 33.0716 157.704 32.0205 158.981 31.4527C160.257 30.8849 161.707 30.8467 163.011 31.3465L172.321 33.4127C172.588 33.4719 172.838 33.5879 173.056 33.7528C173.274 33.9178 173.453 34.1277 173.583 34.3683C173.712 34.6089 173.788 34.8746 173.805 35.1473C173.823 35.4199 173.781 35.6931 173.684 35.9483Z" fill="#1FB545"/>
<path d="M212.416 58.1517L199.399 64.0723L201.108 70.5104C204.408 82.9427 205.284 95.8947 203.688 108.659L213.205 110.648L221.094 90.5176L218.333 67.6247L212.416 58.1517Z" fill="#1FB545"/>
<path d="M237.957 87.9518C229.404 87.9518 222.434 94.1731 222.096 101.964H253.817C253.479 94.1731 246.509 87.9518 237.957 87.9518Z" fill="#3F3D56"/>
<path d="M231.299 89.2945C230.853 54.1269 210.838 57.3622 210.838 57.3622C210.838 57.3622 211.212 68.3087 211.392 68.6491C224.147 92.797 203.097 121.107 176.302 115.899C175.796 115.801 175.311 115.701 174.846 115.6C171.45 114.891 168.453 112.914 166.462 110.072C164.472 107.23 163.638 103.735 164.131 100.3C166.771 79.0904 153.642 79.4657 153.642 79.4657H134.446L124.477 70.4878C124.125 70.1709 123.701 69.9451 123.241 69.8301C122.782 69.7151 122.302 69.7144 121.842 69.8282C121.383 69.9419 120.958 70.1666 120.605 70.4826C120.252 70.7986 119.982 71.1962 119.819 71.6407L118.536 75.124C118.536 75.124 99.6025 77.0975 101.18 95.6486H107.034C107.02 96.1757 107.041 96.7032 107.097 97.2275L150.783 96.872C153.344 96.8512 155.604 98.9275 155.615 101.49C155.617 102.114 155.494 102.732 155.252 103.307C155.011 103.882 154.656 104.402 154.209 104.837C153.761 105.272 153.231 105.612 152.65 105.837C152.068 106.061 151.447 106.167 150.824 106.146L143.781 105.911C141.612 115.581 146.937 122.094 152.804 126.189C158.328 129.989 164.884 132.003 171.587 131.962H190.721C215.571 131.962 219.91 111.042 219.91 111.042C232.927 105.516 231.299 89.2945 231.299 89.2945Z" fill="#3F3D56"/>
<path d="M236.773 143.408C249.027 143.408 258.961 133.468 258.961 121.206C258.961 108.944 249.027 99.0035 236.773 99.0035C224.519 99.0035 214.585 108.944 214.585 121.206C214.585 133.468 224.519 143.408 236.773 143.408Z" fill="#3F3D56"/>
<path d="M236.773 126.647C239.777 126.647 242.211 124.211 242.211 121.206C242.211 118.2 239.777 115.764 236.773 115.764C233.77 115.764 231.335 118.2 231.335 121.206C231.335 124.211 233.77 126.647 236.773 126.647Z" fill="white"/>
<path d="M124.749 143.408C138.855 143.408 150.29 131.966 150.29 117.851C150.29 103.736 138.855 92.2936 124.749 92.2936C110.643 92.2936 99.2085 103.736 99.2085 117.851C99.2085 131.966 110.643 143.408 124.749 143.408Z" fill="#3F3D56"/>
<path d="M124.749 124.115C128.207 124.115 131.009 121.31 131.009 117.851C131.009 114.391 128.207 111.587 124.749 111.587C121.292 111.587 118.489 114.391 118.489 117.851C118.489 121.31 121.292 124.115 124.749 124.115Z" fill="white"/>
<path d="M199.436 65.8215L194.752 53.0925C194.508 52.4291 194.397 51.7241 194.425 51.0177C194.453 50.3113 194.62 49.6174 194.917 48.9756C195.213 48.3338 195.632 47.7567 196.152 47.2772C196.671 46.7976 197.279 46.4251 197.942 46.1809L211.369 41.2347C212.536 40.8049 213.775 40.6092 215.018 40.6588C216.26 40.7084 217.48 41.0023 218.608 41.5237C219.737 42.0452 220.752 42.7839 221.595 43.6979C222.438 44.6118 223.093 45.683 223.523 46.8502C223.91 47.8979 224.108 49.0063 224.107 50.1233C224.102 51.5417 223.781 52.9412 223.168 54.22C222.555 55.4988 221.665 56.6248 220.562 57.5162C219.765 58.1555 218.87 58.6607 217.911 59.0117L199.436 65.8215Z" fill="#3F3D56"/>
<path d="M223.91 50.1233C223.909 51.5128 223.597 52.8844 222.996 54.1372C222.395 55.3899 221.521 56.492 220.439 57.3622C218.778 56.9239 217.233 56.1288 215.91 55.0324C214.587 53.9359 213.519 52.5644 212.779 51.013C212.04 49.4617 211.647 47.7679 211.628 46.0492C211.609 44.3305 211.964 42.6283 212.668 41.0609C214.021 40.7665 215.423 40.779 216.77 41.0976C218.118 41.4162 219.377 42.0327 220.455 42.9018C221.533 43.771 222.403 44.8708 223.001 46.1204C223.599 47.3701 223.91 48.7379 223.91 50.1233Z" fill="#1FB545"/>
<path d="M104.533 98.2142C107.583 98.2142 110.055 95.21 110.055 91.5042C110.055 87.7984 107.583 84.7942 104.533 84.7942C101.483 84.7942 99.0107 87.7984 99.0107 91.5042C99.0107 95.21 101.483 98.2142 104.533 98.2142Z" fill="#1FB545"/>
<path d="M177.531 115.256H182.367L184.668 102.706L177.53 102.706L177.531 115.256Z" fill="#FFB8B8"/>
<path d="M176.297 113.676L185.821 113.676H185.821C186.618 113.676 187.408 113.833 188.144 114.138C188.88 114.443 189.549 114.891 190.113 115.454C190.676 116.018 191.124 116.688 191.429 117.425C191.734 118.162 191.891 118.951 191.891 119.749V119.946L176.298 119.947L176.297 113.676Z" fill="#2F2E41"/>
<path d="M183.144 110.105C183.088 110.105 183.031 110.102 182.975 110.097L176.282 109.609C176.011 109.584 175.75 109.497 175.518 109.355C175.287 109.213 175.091 109.019 174.946 108.789C174.8 108.559 174.71 108.299 174.681 108.029C174.652 107.758 174.686 107.485 174.78 107.229L183.736 87.0936C183.8 86.9141 183.826 86.7233 183.813 86.5331C183.8 86.343 183.747 86.1577 183.659 85.9889C183.571 85.8181 183.447 85.6679 183.297 85.5481C183.147 85.4284 182.973 85.3419 182.787 85.2943C178.575 84.1927 167.769 81.2594 158.415 77.8273C154.407 76.3567 151.883 74.2317 150.913 71.5112C149.634 67.9245 151.526 64.6536 151.607 64.5164L151.671 64.4088L160.473 65.2094L170.015 66.0216L190.926 77.2421C192.678 78.1903 194.009 79.7641 194.654 81.6502C195.299 83.5362 195.21 85.596 194.405 87.4193L184.764 109.052C184.625 109.365 184.397 109.632 184.11 109.818C183.822 110.005 183.487 110.105 183.144 110.105Z" fill="#2F2E41"/>
<path d="M162.003 25.3721C167.354 25.3721 171.691 21.0318 171.691 15.6778C171.691 10.3237 167.354 5.9834 162.003 5.9834C156.652 5.9834 152.315 10.3237 152.315 15.6778C152.315 21.0318 156.652 25.3721 162.003 25.3721Z" fill="#FFB8B8"/>
<path d="M174.77 116.44H179.606L181.907 103.89L174.769 103.89L174.77 116.44Z" fill="#FFB8B8"/>
<path d="M173.536 114.86L183.06 114.86H183.06C183.857 114.86 184.646 115.017 185.383 115.322C186.119 115.627 186.788 116.075 187.352 116.639C187.915 117.203 188.362 117.872 188.667 118.609C188.972 119.346 189.129 120.135 189.129 120.933V121.13L173.536 121.131L173.536 114.86Z" fill="#2F2E41"/>
<path d="M180.383 111.289C180.327 111.289 180.27 111.286 180.213 111.281L173.521 110.793C173.25 110.768 172.989 110.681 172.757 110.539C172.526 110.397 172.329 110.203 172.184 109.973C172.039 109.743 171.949 109.483 171.92 109.213C171.891 108.942 171.925 108.669 172.018 108.413L180.975 88.2777C181.039 88.0982 181.065 87.9073 181.052 87.7172C181.038 87.5271 180.986 87.3418 180.897 87.173C180.809 87.0021 180.686 86.8519 180.536 86.7322C180.385 86.6125 180.211 86.526 180.025 86.4784C175.814 85.3768 165.008 82.4434 155.654 79.0113C151.646 77.5408 149.122 75.4158 148.152 72.6953C146.872 69.1086 148.765 65.8377 148.846 65.7004L148.91 65.5929L157.712 66.3935L167.254 67.2056L188.165 78.4262C189.917 79.3744 191.248 80.9482 191.893 82.8342C192.537 84.7203 192.448 86.7801 191.643 88.6034L182.003 110.236C181.863 110.55 181.636 110.816 181.349 111.002C181.061 111.189 180.726 111.289 180.383 111.289Z" fill="#2F2E41"/>
<path d="M164.991 30.8692L154.735 27.3169C154.735 27.3169 148.297 32.2665 151.39 44.5452C153.004 50.8815 152.534 57.5699 150.049 63.6175C149.749 64.3657 149.404 65.0948 149.016 65.8007C149.016 65.8007 160.455 79.6154 171.105 69.353L166.963 49.4204C166.963 49.4204 173.472 36.1978 164.991 30.8692Z" fill="#1FB545"/>
<path d="M163.206 25.7019C161.827 23.6366 160.739 20.7729 162.257 18.808C163.755 16.8683 166.711 17.1541 169.006 16.2958C172.203 15.1004 174.057 11.3425 173.478 7.97713C172.9 4.61173 170.2 1.82192 166.984 0.680424C163.768 -0.461076 160.141 -0.0898335 156.992 1.22467C153.114 2.84285 149.788 5.9731 148.394 9.93829C146.999 13.9035 147.745 18.6645 150.638 21.7122C153.74 24.9797 158.608 25.8505 163.112 25.7977" fill="#2F2E41"/>
<path d="M154.194 8.08519C152.457 9.50055 149.806 8.87191 147.941 7.62975C146.076 6.38759 144.562 4.61883 142.544 3.64493C138.987 1.92798 134.685 3.06936 131.223 4.97118C127.76 6.87301 124.691 9.50043 121.034 10.9929C117.376 12.4853 112.709 12.5591 109.94 9.74101C109.258 11.7168 109.202 13.855 109.78 15.8636C110.358 17.8723 111.541 19.6537 113.168 20.9648C114.795 22.2759 116.786 23.0528 118.87 23.1895C120.955 23.3263 123.031 22.8162 124.814 21.7288C128.822 19.2862 131.035 14.1648 135.53 12.8166C138.017 12.0706 140.688 12.6714 143.202 13.3222C145.716 13.9731 148.337 14.6763 150.874 14.1222C153.41 13.5682 155.783 11.287 155.461 8.70894L154.194 8.08519Z" fill="#2F2E41"/>
<path d="M209.074 49.453C208.819 48.888 208.444 48.3858 207.974 47.9818C207.504 47.5778 206.951 47.2818 206.355 47.1147C205.758 46.9476 205.132 46.9133 204.521 47.0144C203.91 47.1155 203.328 47.3495 202.817 47.6998L165.159 39.2424L164.691 48.4517L201.855 53.8692C202.5 54.6893 203.423 55.2441 204.45 55.4285C205.476 55.6129 206.535 55.4141 207.425 54.8697C208.315 54.3254 208.974 53.4733 209.278 52.475C209.582 51.4766 209.509 50.4013 209.074 49.453Z" fill="#FFB8B8"/>
<path d="M171.762 40.0886L169.463 49.4114C169.398 49.6766 169.276 49.9247 169.106 50.1386C168.936 50.3525 168.722 50.5273 168.479 50.651C168.236 50.7748 167.968 50.8446 167.696 50.8556C167.423 50.8667 167.151 50.8188 166.898 50.7152L158.046 47.0849C156.69 46.7431 155.526 45.8773 154.808 44.6776C154.09 43.4778 153.877 42.042 154.216 40.6852C154.555 39.3285 155.417 38.1616 156.615 37.4406C157.812 36.7197 159.247 36.5035 160.603 36.8396L170.097 37.7405C170.369 37.7664 170.632 37.8506 170.868 37.9873C171.104 38.1241 171.309 38.3102 171.467 38.5331C171.625 38.7559 171.733 39.0102 171.784 39.2786C171.835 39.547 171.827 39.8233 171.762 40.0885V40.0886Z" fill="#1FB545"/>
<path d="M204.724 56.77C206.249 56.77 207.485 55.533 207.485 54.0071C207.485 52.4811 206.249 51.2441 204.724 51.2441C203.199 51.2441 201.963 52.4811 201.963 54.0071C201.963 55.533 203.199 56.77 204.724 56.77Z" fill="#1FB545"/>
<path d="M327 143.605C327 143.71 326.958 143.81 326.884 143.884C326.81 143.958 326.71 143.999 326.606 143.999H0.394451C0.289836 143.999 0.189506 143.958 0.115532 143.884C0.0415578 143.81 0 143.71 0 143.605C0 143.5 0.0415578 143.4 0.115532 143.326C0.189506 143.252 0.289836 143.211 0.394451 143.211H326.606C326.71 143.211 326.81 143.253 326.884 143.326C326.958 143.4 327 143.501 327 143.605Z" fill="#3F3D56"/>
</g>
<defs>
<clipPath id="clip0_11_217">
<rect width="327" height="144" fill="white"/>
</clipPath>
</defs>
</svg>
